<?xml version="1.0" standalone="no"?>
<!DOCTYPE svg PUBLIC "-//W3C//DTD SVG 20010904//EN"
 "http://www.w3.org/TR/2001/REC-SVG-20010904/DTD/svg10.dtd">
<svg version="1.0" xmlns="http://www.w3.org/2000/svg"
 width="1375.000000pt" height="1536.000000pt" viewBox="0 0 1375.000000 1536.000000"
 preserveAspectRatio="xMidYMid meet">
<metadata>
Created by potrace 1.16, written by Peter Selinger 2001-2019
</metadata>
<g transform="translate(0.000000,1536.000000) scale(0.100000,-0.100000)"
fill="#000000" stroke="none">
<path d="M6913 15350 c-144 -34 -222 -182 -193 -364 17 -109 62 -210 163 -366
120 -186 197 -320 286 -498 l71 -142 -20 -39 c-58 -114 -109 -443 -140 -896
-6 -88 -13 -197 -16 -241 l-6 -82 -37 -6 c-76 -12 -121 -71 -121 -159 0 -72
23 -144 77 -249 57 -108 124 -197 280 -375 148 -167 224 -264 315 -403 60 -91
67 -106 53 -115 -184 -113 -328 -262 -532 -550 -139 -195 -359 -557 -451 -740
-49 -98 -63 -241 -42 -415 32 -258 143 -488 315 -656 l84 -81 -52 -13 c-87
-22 -240 -107 -311 -171 l-64 -59 -75 107 c-89 129 -96 142 -137 258 -101 286
-160 738 -179 1378 -9 294 -10 298 -33 317 -26 21 -80 46 -120 54 -32 7 -27
-15 -63 294 -65 553 -161 1033 -240 1198 l-35 72 15 138 c44 426 55 777 31
934 -10 58 -28 184 -42 280 -59 419 -85 560 -105 560 -45 0 -64 -344 -29 -555
45 -279 48 -491 15 -1175 -18 -362 -18 -393 -4 -384 7 4 9 0 6 -12 -32 -107
-39 -424 -13 -574 45 -258 147 -516 293 -739 53 -81 54 -86 40 -110 -36 -63
-49 -135 -54 -307 -8 -257 24 -480 111 -785 116 -404 311 -820 478 -1020 l50
-60 -40 -122 c-22 -67 -61 -198 -87 -292 -26 -93 -49 -171 -50 -173 -2 -2 -41
28 -88 66 -345 276 -745 472 -1107 543 -122 24 -343 32 -448 16 l-52 -8 6 43
c12 88 36 183 65 259 45 116 187 337 324 505 16 19 31 58 40 100 20 95 19 109
-12 132 l-26 19 73 129 c158 278 275 447 434 629 103 118 118 147 64 119 -87
-43 -396 -294 -472 -382 -108 -125 -207 -312 -267 -502 l-33 -105 -130 -125
c-211 -204 -423 -463 -487 -598 -38 -78 -50 -192 -29 -258 19 -57 65 -120 119
-162 46 -35 48 -40 54 -95 12 -127 110 -246 262 -318 206 -99 421 -111 760
-43 111 22 148 25 250 21 143 -6 228 -28 371 -96 109 -52 264 -147 264 -162 0
-48 -63 -337 -110 -509 -96 -346 -160 -639 -160 -730 0 -41 -8 -54 -24 -41
-11 9 -439 -158 -821 -321 -663 -283 -1195 -555 -1426 -730 -69 -53 -150 -131
-174 -170 -7 -12 -116 -38 -415 -98 -893 -179 -1508 -320 -1570 -359 -12 -8
-12 -11 4 -17 13 -5 -24 -19 -120 -44 -390 -103 -696 -226 -841 -337 -34 -27
-155 -120 -270 -208 -285 -219 -339 -276 -303 -320 31 -38 121 3 320 144 315
224 439 302 589 366 112 48 473 179 690 250 l173 57 97 -23 c79 -20 121 -24
236 -23 168 1 269 20 482 94 162 55 361 112 563 160 241 57 409 100 455 115
39 14 48 14 80 1 60 -26 126 -30 193 -12 120 30 225 97 575 363 263 200 373
278 507 356 120 70 385 202 595 297 88 40 214 100 280 134 66 33 122 62 126
64 3 1 11 -17 18 -40 25 -83 73 -157 147 -228 41 -39 74 -72 74 -74 0 -2 -11
-6 -23 -10 -51 -12 -187 -113 -277 -205 -52 -53 -131 -144 -175 -203 -166
-221 -200 -304 -193 -476 5 -118 26 -191 78 -275 17 -27 30 -50 30 -51 0 -2
-24 1 -52 6 -71 14 -260 4 -328 -17 -194 -58 -318 -127 -377 -211 -139 -200
-174 -430 -99 -652 14 -40 23 -72 21 -72 -2 0 -48 11 -102 24 -147 37 -244 49
-388 50 -121 0 -137 -2 -225 -33 -185 -63 -325 -157 -516 -346 -153 -151 -261
-285 -390 -480 -471 -716 -744 -1612 -659 -2165 19 -125 38 -189 88 -284 97
-187 346 -366 593 -428 130 -32 358 -32 502 0 340 76 690 266 970 527 171 159
432 491 654 830 348 531 521 939 505 1189 -4 63 -12 92 -37 140 -59 116 -184
315 -261 418 l-77 103 27 7 c14 3 65 16 113 27 49 11 131 40 184 65 295 140
454 360 455 630 1 162 -52 285 -179 418 -50 53 -53 58 -31 58 51 1 167 31 226
60 201 99 338 354 383 714 20 159 2 349 -45 459 -6 15 0 17 67 17 90 0 172 20
251 63 64 34 193 148 242 216 17 22 32 41 35 41 3 0 37 -44 75 -97 97 -137
217 -291 321 -409 128 -146 174 -243 335 -704 184 -525 187 -533 294 -690 189
-281 438 -534 645 -654 232 -136 342 -85 265 121 -29 75 -53 121 -127 235
l-50 77 28 68 c26 62 28 79 29 198 0 100 -5 152 -22 225 -34 144 -51 257 -68
455 -17 201 -30 287 -51 327 l-14 27 112 81 c127 90 323 192 413 216 88 23
255 20 406 -6 70 -12 144 -20 165 -18 34 3 39 6 42 30 7 63 -96 109 -298 133
-69 9 -155 20 -193 25 -97 14 -144 12 -229 -9 -144 -37 -270 -118 -429 -277
l-96 -95 -24 38 -24 38 -17 -140 c-23 -192 -46 -479 -54 -668 l-7 -158 -94
143 c-471 716 -630 946 -809 1169 -93 116 -287 335 -303 341 -4 2 -36 29 -70
60 l-63 57 40 68 c22 37 75 136 117 218 66 127 342 628 380 690 23 38 382 166
574 205 253 51 360 26 1047 -248 437 -175 578 -226 680 -247 86 -17 134 -10
134 20 0 27 25 66 94 149 36 44 85 90 108 104 24 13 133 74 243 134 110 60
213 121 228 136 41 39 34 71 -24 102 l-47 25 55 60 c200 222 440 585 537 810
41 96 79 232 74 267 -14 98 -180 -92 -393 -450 -54 -90 -124 -199 -156 -242
-114 -155 -321 -380 -349 -380 -8 0 -35 11 -59 25 -23 14 -51 25 -61 25 -30 0
-87 -77 -145 -196 -30 -61 -55 -116 -55 -122 0 -17 -5 -16 -103 23 -254 99
-782 208 -1242 256 -66 7 -232 13 -370 13 -251 0 -385 -12 -540 -48 -33 -8
-61 -13 -63 -12 -1 2 6 41 17 87 56 239 79 861 38 1006 l-15 52 47 6 c142 19
247 71 334 165 69 75 215 312 314 510 151 303 224 648 209 995 l-7 150 93 24
c362 92 585 207 619 319 17 59 -12 114 -104 192 -126 108 -201 132 -267 88
-19 -13 -72 -70 -120 -128 -85 -104 -232 -236 -251 -225 -5 4 -9 28 -9 55 0
45 3 52 41 82 23 18 87 85 142 148 309 354 497 448 796 400 109 -18 161 17
161 109 0 25 26 54 173 196 449 434 868 897 1030 1137 49 73 54 77 97 83 102
14 163 30 315 80 413 136 841 367 1067 574 73 67 171 189 203 252 43 84 31
127 -40 155 -85 32 -366 10 -709 -56 -136 -27 -210 -51 -331 -110 -187 -91
-355 -242 -478 -427 l-62 -93 -13 38 c-7 20 -20 44 -28 52 -14 13 -20 10 -54
-28 -21 -24 -80 -109 -131 -190 -126 -201 -217 -327 -544 -757 -313 -411 -392
-519 -475 -647 l-56 -86 -28 54 c-36 68 -110 138 -184 172 -50 24 -69 27 -157
27 -80 -1 -112 -5 -158 -24 -193 -76 -501 -368 -778 -735 -39 -53 -74 -96 -76
-96 -4 0 -143 39 -237 67 -13 4 10 19 84 55 114 55 193 120 211 175 17 54 -9
111 -83 177 -118 107 -189 143 -249 125 -42 -12 -60 -27 -123 -104 -115 -139
-273 -284 -294 -271 -5 3 -13 43 -16 88 -16 181 -75 414 -176 698 -96 269
-165 384 -260 438 -27 16 -106 46 -175 68 -97 30 -125 42 -121 54 2 8 43 103
91 210 215 484 335 849 312 942 -5 19 -17 30 -42 38 -19 6 -37 15 -40 20 -3 5
6 47 20 94 14 46 36 137 50 202 93 459 39 797 -158 980 -123 115 -356 187
-494 154z"/>
<path d="M13589 10727 c-68 -40 -225 -136 -349 -213 -124 -77 -247 -153 -275
-169 -134 -76 -412 -311 -770 -649 -147 -139 -152 -143 -235 -172 -183 -63
-632 -299 -1060 -557 -118 -71 -230 -139 -248 -149 -19 -12 -39 -17 -50 -13
-9 4 -39 10 -67 15 -50 8 -51 7 -190 -72 -196 -112 -611 -315 -790 -386 -196
-78 -380 -137 -535 -169 -101 -22 -153 -27 -275 -27 -145 -1 -154 0 -280 37
-295 86 -417 51 -371 -107 9 -30 23 -61 31 -69 42 -43 720 -94 1110 -84 538
14 907 102 1131 270 99 75 266 281 295 367 9 25 15 29 33 24 11 -4 66 -7 121
-6 237 2 513 125 805 359 116 92 369 341 445 435 64 81 286 282 640 578 264
222 355 289 538 397 83 50 181 112 217 139 68 49 290 268 290 284 0 23 -44 6
-161 -63z"/>
</g>
</svg>
