
        <svg xmlns:rdf="http://www.w3.org/1999/02/22-rdf-syntax-ns#" xmlns="http://www.w3.org/2000/svg" xmlns:cc="http://creativecommons.org/ns#" xmlns:xlink="http://www.w3.org/1999/xlink" xmlns:dc="http://purl.org/dc/elements/1.1/" x="0px" y="0px" width="501" height="342" viewBox="0 0 501 342" xml:space="preserve">
            <title>Dipodomys ordii (Kangaroo Rat)</title>
            <desc xmlns:ian_image_library="https://ian.umces.edu/media-library/">
                <ian_image_library:title>Dipodomys ordii (Kangaroo Rat)</ian_image_library:title>
                <ian_image_library:descr>Illustration of Dipodomys ordii (Kangaroo Rat)</ian_image_library:descr>
                <ian_image_library:scene>
                    <ian_image_library:contains>mammal, kangaroo, rat, rodent, Chordata, Mammalia, Rodentia, Heteromyidae, Dipodomyinae, Dipodomys, ordii</ian_image_library:contains>
                    <ian_image_library:when>2004-09-11</ian_image_library:when>
                </ian_image_library:scene>
            </desc>
            <metadata id="metadata-iil-0e3c390cd9548b54416294c680ed9955">
                <rdf:RDF>
                <cc:Work
                rdf:about="">
                <dc:format>image/svg+xml</dc:format>
                <dc:type
                rdf:resource="http://purl.org/dc/dcmitype/StillImage" />
                <cc:license
                rdf:resource="http://creativecommons.org/licenses/by-sa/3.0/" />
                <dc:title>Dipodomys ordii (Kangaroo Rat)</dc:title>
                <dc:date>2004-09-11</dc:date>
                <dc:creator>
                    <cc:Agent>
                        <dc:title></dc:title>
                    </cc:Agent>
                </dc:creator>
                <dc:rights>
                <cc:Agent>
                    <dc:title></dc:title>
                </cc:Agent>
                </dc:rights>
                <dc:publisher>
                <cc:Agent>
                    <dc:title>Integration and Application Network</dc:title>
                </cc:Agent>
                </dc:publisher>
                <dc:identifier>https://ian.umces.edu/media-library/dipodomys-ordii-kangaroo-rat/</dc:identifier>
                <dc:source>https://ian.umces.edu/media-library/dipodomys-ordii-kangaroo-rat/</dc:source>
                <dc:language>en-US</dc:language>
                <dc:subject>
                <rdf:Bag>
                    <rdf:li>mammal, kangaroo, rat, rodent, Chordata, Mammalia, Rodentia, Heteromyidae, Dipodomyinae, Dipodomys, ordii</rdf:li>
                </rdf:Bag>
                </dc:subject>
                <dc:coverage></dc:coverage>
                <dc:description>Illustration of Dipodomys ordii (Kangaroo Rat)</dc:description>
                <dc:contributor>
                <cc:Agent>
                    <dc:title></dc:title>
                </cc:Agent>
                </dc:contributor>
            </cc:Work>
            <cc:License
                rdf:about="http://creativecommons.org/licenses/by-sa/3.0/">
                <cc:permits
                rdf:resource="http://creativecommons.org/ns#Reproduction" />
                <cc:permits
                rdf:resource="http://creativecommons.org/ns#Distribution" />
                <cc:requires
                rdf:resource="http://creativecommons.org/ns#Notice" />
                <cc:requires
                rdf:resource="http://creativecommons.org/ns#Attribution" />
                <cc:permits
                rdf:resource="http://creativecommons.org/ns#DerivativeWorks" />
                <cc:requires
                rdf:resource="http://creativecommons.org/ns#ShareAlike" />
            </cc:License>
            </rdf:RDF>
            </metadata>
            
<defs>
</defs>
<path fill="none" stroke="#44251C" stroke-width="0.6959" d="M36.515,60.64c10.587,16.466-15.297,102.349-15.297,102.349
	s5.882-65.884,0-74.117"/>
<path fill="none" stroke="#44251C" stroke-width="0.6959" d="M11.81,101.832c8.236,5.864,9.408,61.157,9.408,61.157
	s-10.584-50.58-12.936-52.924"/>
<path fill="none" stroke="#44251C" stroke-width="0.6959" d="M3.58,127.696c5.875,1.182,17.638,35.293,17.638,35.293
	S8.282,146.52,0.049,145.344"/>
<linearGradient id="ian_symbols_19ad7caeeaf3d9a4f97c5224493a1d73" gradientUnits="userSpaceOnUse" x1="414.0991" y1="177.7378" x2="449.817" y2="126.7274">
	<stop  offset="0.736" style="stop-color:#EFEBDD"/>
	<stop  offset="1" style="stop-color:#C8C5C4"/>
</linearGradient>
<path fill="url(#ian_symbols_19ad7caeeaf3d9a4f97c5224493a1d73)" stroke="#44251C" stroke-width="0.6959" d="M372.029,148.28c0,0,49.011-2.161,63.506-0.612
	c41.942,4.495,47.949,47.926,47.949,47.926l7.476-26.962c0,0-13.482-31.447-44.939-40.434c-23.37-6.676-73.529-7.988-73.529-7.988
	L372.029,148.28z"/>
<linearGradient id="ian_symbols_bfeb30f53fc5c0f4f9cb49771ab87758" gradientUnits="userSpaceOnUse" x1="105.9131" y1="69.6519" x2="136.3646" y2="39.2004">
	<stop  offset="0" style="stop-color:#AF9A65"/>
	<stop  offset="0.7753" style="stop-color:#7E6E45"/>
	<stop  offset="1" style="stop-color:#5F594C"/>
</linearGradient>
<path fill="url(#ian_symbols_bfeb30f53fc5c0f4f9cb49771ab87758)" stroke="#44251C" stroke-width="0.6959" d="M97.061,60.799c0,0,2.99-8.491,9.979-14.971
	c6.996-6.497,12.979-11.991,18.474-11.991c5.498,0,9.989,4.499,13.476,7.988c3.5,3.49,7.489,9.986,7.489,9.986L97.061,60.799z"/>
<linearGradient id="ian_symbols_ccf267d0b9d36c3411a70d037b027ef9" gradientUnits="userSpaceOnUse" x1="147.0693" y1="221.2095" x2="210.8877" y2="221.2095">
	<stop  offset="0.0281" style="stop-color:#EFEBDD"/>
	<stop  offset="0.4607" style="stop-color:#E9CDAF"/>
	<stop  offset="1" style="stop-color:#A59B83"/>
</linearGradient>
<path fill="url(#ian_symbols_ccf267d0b9d36c3411a70d037b027ef9)" stroke="#44251C" stroke-width="0.6959" d="M173.43,204.584c0,0-19.463,17.221-22.453,18.716
	c-2.997,1.509-5.239,2.99-2.997,5.246c2.242,2.242,3.737,5.239,8.236,3.737c4.492-1.495,0.748,3.751,4.492,5.246
	c3.745,1.495,13.476-2.99,13.476-2.99s11.981-10.492,17.22-13.489c5.24-2.996,19.483-16.466,19.483-16.466H173.43z"/>
<linearGradient id="ian_symbols_d896e18969ed37a4fdbe8dc98f7b5675" gradientUnits="userSpaceOnUse" x1="97.0439" y1="210.7446" x2="143.4883" y2="210.7446">
	<stop  offset="0.2135" style="stop-color:#EBD9C3"/>
	<stop  offset="1" style="stop-color:#AF9A65"/>
</linearGradient>
<path fill="url(#ian_symbols_d896e18969ed37a4fdbe8dc98f7b5675)" stroke="#44251C" stroke-width="0.6959" d="M143.488,209.825c0,0-20.964,5.986-28.457,8.229
	c-7.489,2.256-11.237,4.505-16.476,0c-6.738-7.489,11.233-17.221,11.233-17.221L143.488,209.825z"/>
<linearGradient id="ian_symbols_3e2e753716a51fa4213dae2239e93fff" gradientUnits="userSpaceOnUse" x1="145.3179" y1="252.1304" x2="302.2827" y2="252.1304">
	<stop  offset="0.0787" style="stop-color:#D0CAB8"/>
	<stop  offset="1" style="stop-color:#A59B83"/>
</linearGradient>
<path fill="url(#ian_symbols_3e2e753716a51fa4213dae2239e93fff)" stroke="#44251C" stroke-width="0.6959" d="M282.028,213.555c0,0,13.469,14.243,16.473,18.729
	c2.99,4.492,5.98,13.489,1.495,17.975c-4.499,4.492-18.716,0.754-42.681,10.485c-23.975,9.731-35.942,14.23-38.945,17.975
	c-2.99,3.744-21.726,8.229-26.965,9.731c-5.239,1.502,13.49-15.725,13.49-15.725s-13.49,0.754-18.729,6.748
	c-5.246,5.979-18.722,11.967-23.961,11.967s8.236-12.722,8.236-12.722s-20.217,11.233-23.214,11.98
	c-2.997,0.741-2.25-5.246,0.754-8.236c2.997-2.989,17.974-13.469,32.198-17.974c14.216-4.492,27.712-4.492,38.946-5.24
	c11.219-0.754,32.191-8.236,41.929-10.485c9.748-2.249,8.239-13.476,8.987-17.975c0.761-4.498-10.482-17.968-10.482-17.968
	L282.028,213.555z"/>
<linearGradient id="ian_symbols_6f7aa19d614db4e4a9329025cc99caa8" gradientUnits="userSpaceOnUse" x1="269.2925" y1="224.4282" x2="305.2417" y2="224.4282">
	<stop  offset="0.0056" style="stop-color:#ECDBC5"/>
	<stop  offset="1" style="stop-color:#E9CDAF"/>
</linearGradient>
<path fill="url(#ian_symbols_6f7aa19d614db4e4a9329025cc99caa8)" stroke="#44251C" stroke-width="0.6959" d="M305.242,213.555c0,0-15.983,22.385-23.962,21.732
	c-3.765-0.306-11.239-4.499-11.239-4.499l-0.748-17.233H305.242z"/>
<linearGradient id="ian_symbols_01c05236a53f91346964ffcbc08ebb98" gradientUnits="userSpaceOnUse" x1="87.0854" y1="259.5737" x2="330.3716" y2="16.2875">
	<stop  offset="0" style="stop-color:#C8B084"/>
	<stop  offset="0.319" style="stop-color:#AF9A65"/>
	<stop  offset="0.7753" style="stop-color:#7E6E45"/>
	<stop  offset="1" style="stop-color:#5F594C"/>
</linearGradient>
<path fill="url(#ian_symbols_01c05236a53f91346964ffcbc08ebb98)" stroke="#44251C" stroke-width="0.6959" d="M19.37,160.593c3.35-7.958,5.861-12.15,10.482-19.694
	c4.601-7.536,19.68-49.428,31.406-60.739C72.994,68.852,80.102,60.895,83.88,57.965c3.765-2.929,6.279-3.768,8.373-3.768
	c2.086,0-10.061,7.961-4.608,7.119c4.608-2.929,7.958-7.119,10.051-6.704c2.1,0.425-7.536,5.868-2.929,6.283
	c1.675-2.508,14.662-6.697,20.52-8.372c5.865-1.679,4.193-1.679,9.636-1.679c5.45,0,18.844-0.836,24.294-2.929
	c5.45-2.086,50.682-38.123,71.626-42.303c20.944-4.189,39.788-4.189,46.492-5.029c6.7-0.839,11.729,0.839,11.729,0.839
	s-12.993,2.515-8.372,3.765c8.779-2.504,18.416,0,23.023,0c4.621,0,9.215,2.929,9.215,2.929s-11.716-0.415-9.215,1.264
	c10.058,0.411,21.365,5.015,30.159,7.543c8.807,2.501,18.443,11.312,18.443,11.312s-8.386-2.525-7.136,1.253
	c7.557,2.086,15.209,8.848,18.565,13.048c3.357,4.179,10.765,16.68,10.765,16.68s-7.965-5.029-7.965-2.5
	c4.607,2.929,8.386,10.044,10.887,15.487c2.515,5.457,8.386,24.297,8.386,24.297s-6.279-8.379-8.793-4.601
	c4.607,4.18,12.966,35.596,13.822,42.717c0.836,7.119,0.407,10.058,0.407,10.058s-3.765-7.958-5.015-5.029
	c1.672,6.283-5.45,30.992-6.293,35.599c-0.843,4.617-2.922,9.633-2.922,9.633s2.514-7.958-1.265-7.122
	c0.843,4.187-18.008,23.404-21.772,26.326c-3.779,2.937-10.887,6.762-10.887,6.762s4.607-4.179,2.079-6.693
	c0,3.337-14.651,11.723-14.651,11.723s5.437-5.443,3.344-6.707c-2.501,4.62-26.381,12.164-35.596,13.414
	s-79.587-13.414-92.146-13.414c-12.572,0-33.931,5.871-39.795,5.456c-5.865-0.428-53.913-12.564-61.032-11.735
	c-7.122,0.849-16.884-1.679-23.163,0.849c-6.283,2.501-14.24,5.858-21.773,5.016c-7.546-0.836-12.562-1.672-20.947-7.543
	c-8.376-5.858-12.987-15.066-13.405-21.346C15.598,173.577,16.019,168.551,19.37,160.593z"/>
<linearGradient id="ian_symbols_39174797349057940d04a517a93134f0" gradientUnits="userSpaceOnUse" x1="17.1709" y1="178.4009" x2="381.3677" y2="178.4009">
	<stop  offset="0.0911" style="stop-color:#E9CDAF"/>
	<stop  offset="0.4557" style="stop-color:#AF9A65"/>
	<stop  offset="0.7696" style="stop-color:#887853"/>
	<stop  offset="1" style="stop-color:#6F654F"/>
</linearGradient>
<path opacity="0.39" fill="url(#ian_symbols_39174797349057940d04a517a93134f0)" d="M380.775,134.148c-17.159,2.402-34.379,9.422-51.626,9.031
	c-25.063-0.567-39.945-11.678-64.933-8.358c-39.014,5.185-75.33,47.848-113.174,52.884c-41.759,5.545-94.623-5.11-133.871-2.556
	c1.886,5.484,6.018,11.702,12.253,16.059c8.386,5.871,13.401,6.707,20.947,7.543c7.533,0.843,15.491-2.515,21.773-5.016
	c6.279-2.527,16.041,0,23.163-0.849c7.119-0.829,55.167,11.308,61.032,11.735c5.865,0.415,27.224-5.456,39.795-5.456
	c12.558,0,82.931,14.664,92.146,13.414s33.095-8.794,35.596-13.414c2.093,1.264-3.344,6.707-3.344,6.707s14.651-8.386,14.651-11.723
	c2.528,2.515-2.079,6.693-2.079,6.693s7.107-3.825,10.887-6.762c3.765-2.922,22.615-22.14,21.772-26.326
	c3.778-0.836,1.265,7.122,1.265,7.122s2.079-5.016,2.922-9.633c0.843-4.607,7.965-29.316,6.293-35.599
	c1.25-2.929,5.015,5.029,5.015,5.029s0.429-2.939-0.407-10.058C380.836,134.488,380.795,134.294,380.775,134.148z"/>
<path fill="none" stroke="#44251C" stroke-width="0.6959" d="M19.37,160.593c3.35-7.958,5.861-12.15,10.482-19.694
	c4.601-7.536,19.68-49.428,31.406-60.739C72.994,68.852,80.102,60.895,83.88,57.965c3.765-2.929,6.279-3.768,8.373-3.768
	c2.086,0-10.061,7.961-4.608,7.119c4.608-2.929,7.958-7.119,10.051-6.704c2.1,0.425-7.536,5.868-2.929,6.283
	c1.675-2.508,14.662-6.697,20.52-8.372c5.865-1.679,4.193-1.679,9.636-1.679c5.45,0,18.844-0.836,24.294-2.929
	c5.45-2.086,50.682-38.123,71.626-42.303c20.944-4.189,39.788-4.189,46.492-5.029c6.7-0.839,11.729,0.839,11.729,0.839
	s-12.993,2.515-8.372,3.765c8.779-2.504,18.416,0,23.023,0c4.621,0,9.215,2.929,9.215,2.929s-11.716-0.415-9.215,1.264
	c10.058,0.411,21.365,5.015,30.159,7.543c8.807,2.501,18.443,11.312,18.443,11.312s-8.386-2.525-7.136,1.253
	c7.557,2.086,15.209,8.848,18.565,13.048c3.357,4.179,10.765,16.68,10.765,16.68s-7.965-5.029-7.965-2.5
	c4.607,2.929,8.386,10.044,10.887,15.487c2.515,5.457,8.386,24.297,8.386,24.297s-6.279-8.379-8.793-4.601
	c4.607,4.18,12.966,35.596,13.822,42.717c0.836,7.119,0.407,10.058,0.407,10.058s-3.765-7.958-5.015-5.029
	c1.672,6.283-5.45,30.992-6.293,35.599c-0.843,4.617-2.922,9.633-2.922,9.633s2.514-7.958-1.265-7.122
	c0.843,4.187-18.008,23.404-21.772,26.326c-3.779,2.937-10.887,6.762-10.887,6.762s4.607-4.179,2.079-6.693
	c0,3.337-14.651,11.723-14.651,11.723s5.437-5.443,3.344-6.707c-2.501,4.62-26.381,12.164-35.596,13.414
	s-79.587-13.414-92.146-13.414c-12.572,0-33.931,5.871-39.795,5.456c-5.865-0.428-53.913-12.564-61.032-11.735
	c-7.122,0.849-16.884-1.679-23.163,0.849c-6.283,2.501-14.24,5.858-21.773,5.016c-7.546-0.836-12.562-1.672-20.947-7.543
	c-8.376-5.858-12.987-15.066-13.405-21.346C15.598,173.577,16.019,168.551,19.37,160.593z"/>
<linearGradient id="ian_symbols_f2fa0f29ebe455848dcbaec40fe747c3" gradientUnits="userSpaceOnUse" x1="58.3931" y1="132.1377" x2="105.7687" y2="165.3105">
	<stop  offset="0.118" style="stop-color:#ECDECC"/>
	<stop  offset="0.618" style="stop-color:#BCB4A1"/>
	<stop  offset="0.9213" style="stop-color:#A59B83"/>
</linearGradient>
<path opacity="0.65" fill="url(#ian_symbols_f2fa0f29ebe455848dcbaec40fe747c3)" d="M80.581,123.71c2.3-3.863,9.358-11.811,9.979-11.991c0.628-0.17-2.45,7.023,0,6.993
	c1.125-3.514,7.217-3.469,7.995-3.004c0.775,0.489-4.448,4.873-1.998,6.004c3.938-2.035,8.396,0.194,8.987,0.999
	c0.598,0.785-3.099,1.2-2.99,2.994c5.24,0.785,11.053,3.714,10.972,4.988c-0.088,1.271-4.743,2.056-4.988,3.986
	c4.24,1.274,8.413,5.583,7.988,8.002c-0.421,2.409-6.588,18.759-9.983,20.968c-3.395,2.205-13.126,5.284-16.976,6.982
	c-3.853,1.695-32.205,4.74-32.205,4.74s-14.804-7.965-14.716-12.722c0.061-4.774,6.945-21.07,10.968-21.974
	c4.033-0.9,15.99-2.942,19.969-5.997C77.578,131.644,78.277,127.549,80.581,123.71z"/>
<radialGradient id="ian_symbols_712a0890daf95c440159e8f5c5eba07a" cx="218.6367" cy="181.2622" r="120.327" gradientUnits="userSpaceOnUse">
	<stop  offset="0.1544" style="stop-color:#C8B48B"/>
	<stop  offset="0.519" style="stop-color:#AF9A65"/>
	<stop  offset="1" style="stop-color:#7E6E45"/>
</radialGradient>
<path fill="url(#ian_symbols_712a0890daf95c440159e8f5c5eba07a)" stroke="#44251C" stroke-width="0.6959" d="M281.28,235.288c-5.857-0.999-24.726-3.004-27.716-7.489
	c-3.73,0,3.751,8.236,3.751,8.236s-14.236-9.744-15.725-12.734c-2.997,0,2.243,8.983,2.243,8.983s-11.981-13.482-13.49-17.968
	c-3.737,0.748-0.741,8.243-0.741,8.243s-6.748-9.738-7.489-14.243c-3.744,1.509-2.249,8.243-2.249,8.243s-6.735-10.479-5.987-15.726
	c-3.737,0-5.239,5.246-5.239,5.246s-2.25-7.488-1.509-14.229c-3.73-0.741-4.485,1.495-4.485,1.495s6.734-27.706,14.23-34.451
	c-3.745-2.243-5.987,0.754-5.987,0.754s8.977-20.968,17.974-26.961c-2.256-2.994-6.007,0-6.007,0s12.735-23.217,38.946-28.46
	c0,0,22.722,0.197,29.959,4.499c7.244,4.302,21.623,15.895,26.258,24.709c4.642,8.814,9.745,33.4,6.497,43.138
	c-3.248,9.738-18.199,35.779-25.157,41.345C292.398,223.484,285.085,235.94,281.28,235.288z"/>
<linearGradient id="ian_symbols_ab7a4d76d98e5874e9afca632ffab910" gradientUnits="userSpaceOnUse" x1="122.9082" y1="100.0376" x2="159.9285" y2="125.9594">
	<stop  offset="0.118" style="stop-color:#ECDECC"/>
	<stop  offset="0.618" style="stop-color:#BCB4A1"/>
	<stop  offset="1" style="stop-color:#A59B83"/>
</linearGradient>
<path fill="url(#ian_symbols_ab7a4d76d98e5874e9afca632ffab910)" d="M127.009,131.188c6.911,10.336,12.722,14.984,12.722,14.984s13.489-9.735,16.486-14.984
	c2.997-5.239,8.984-17.22,6.734-27.702c-2.243-10.486-2.99-11.227-7.482-14.984c-4.492-3.734-16.479-0.744-25.47,4.499
	c-8.984,5.243-11.23,17.22-11.23,17.22S120.101,120.856,127.009,131.188z"/>
<path fill="none" stroke="#44251C" stroke-width="0.6959" d="M139.73,146.173c0,0,13.489-9.735,16.486-14.984
	c2.997-5.239,8.984-17.22,6.734-27.702c-2.243-10.486-2.99-11.227-7.482-14.984c-4.492-3.734-16.479-0.744-25.47,4.499
	c-8.984,5.243-11.23,17.22-11.23,17.22"/>
<linearGradient id="ian_symbols_dda89fcfa891f054d5d366806740ebe4" gradientUnits="userSpaceOnUse" x1="112.5947" y1="125.998" x2="154.4557" y2="84.1371">
	<stop  offset="0.0449" style="stop-color:#AF9A65"/>
	<stop  offset="0.3933" style="stop-color:#A7925F"/>
	<stop  offset="0.7753" style="stop-color:#7E6E45"/>
	<stop  offset="1" style="stop-color:#5F594C"/>
</linearGradient>
<path fill="url(#ian_symbols_dda89fcfa891f054d5d366806740ebe4)" d="M124.923,121.352c0,0-0.163-16.371,3.581-20.859c3.751-4.499,11.981-11.237,20.224-9.001
	c8.236,2.25,13.476,7.492,13.476,7.492s1.502-7.492-4.492-11.226c-5.994-3.745-11.974-4.499-16.473-4.499
	c-4.499,0-8.984,2.25-14.23,5.997c-5.239,3.745-14.971,18.729-14.971,18.729s-5.994,10.228-3.5,13.727
	c2.494,3.483,11.162,9.786,13.561,9.636C124.519,131.188,124.923,121.352,124.923,121.352z"/>
<path fill="none" stroke="#44251C" stroke-width="0.6959" d="M112.038,107.985c0,0,9.731-14.984,14.971-18.729
	c5.247-3.748,9.731-5.997,14.23-5.997c4.499,0,10.479,0.754,16.473,4.499c5.994,3.734,4.492,11.226,4.492,11.226
	s-5.239-5.243-13.476-7.492c-8.243-2.236-16.473,4.502-20.224,9.001c-3.744,4.488-3.581,20.859-3.581,20.859"/>
<linearGradient id="ian_symbols_5c38a93c1dc51994551406c953288e44" gradientUnits="userSpaceOnUse" x1="70.7778" y1="148.4429" x2="113.5884" y2="148.4429">
	<stop  offset="0.0056" style="stop-color:#344146"/>
	<stop  offset="0.9213" style="stop-color:#44251C"/>
</linearGradient>
<path fill="url(#ian_symbols_5c38a93c1dc51994551406c953288e44)" stroke="#44251C" stroke-width="0.6959" d="M70.85,149.914c-0.754-2.99,4.489-11.988,12.722-14.978
	c8.247-2.994,29.208,1.501,29.955,5.239c0.751,3.748-5.317,19.789-18.718,22.473C83.571,164.892,71.59,152.911,70.85,149.914z"/>
<path fill="#B6B2B7" d="M80.833,145.418c1.4-2.99,2.11-4.499,4.914-4.499s3.513,1.509,2.1,4.499c-1.4,2.994-4.2,2.25-4.2,2.25
	S79.422,148.412,80.833,145.418z"/>
<linearGradient id="ian_symbols_44e89a5044ce2cf43983fe5afacf075d" gradientUnits="userSpaceOnUse" x1="28.0864" y1="171.3579" x2="69.0152" y2="200.0166">
	<stop  offset="0" style="stop-color:#B9A88B"/>
	<stop  offset="0.9213" style="stop-color:#7E6E45"/>
</linearGradient>
<path opacity="0.75" fill="url(#ian_symbols_44e89a5044ce2cf43983fe5afacf075d)" d="M21.67,183.212c0,0,0.887-7.598,7.074-9.677c6.177-2.079,12.949-4.414,22.093-4.159
	c9.146,0.265,14.036,2.165,14.145,2.779c0.115,0.605-3.17,2.145-2.654,3.459c1.434,0.571,7.102,1.91,7.078,2.76
	c-0.031,0.849-7.693,1.569-7.078,2.766c5.317-0.245,12.3,2.093,12.382,2.772c0.075,0.666-6.344,0.095-6.198,1.379
	c4.332,0.728,7.366,3.433,7.071,4.166c-0.289,0.714-4.733-0.149-6.177,0.68c2.729,1.155,3.184,4.729,2.654,5.531
	c-0.544,0.803-4.013-0.319-5.138,0.17c2.569,1.299,0.296,4.561-0.295,4.798c-0.615,0.231-4.607-2.97-5.624-2.711
	c3.374,4.077,0.211,6.782-0.914,6.7c-1.125-0.081-2.035-3.588-4.084-3.438c-0.095,1.604-2.959,4.566-3.979,4.479
	c-1.02-0.089-1.74-5.029-2.864-5.029c0.319,1.761-4.798,3.194-5.909,2.875c-1.139-0.313-1.743-4.553-2.963-4.798
	c-2.036,2.324-6.833,1.522-7.659,0.965c1.43-2.079-5.199-6.238-5.199-6.238L21.67,183.212z"/>
<linearGradient id="ian_symbols_387753d0b57e97d48d42c6e15e17a164" gradientUnits="userSpaceOnUse" x1="25.0928" y1="177.1929" x2="61.8802" y2="202.9517">
	<stop  offset="0.118" style="stop-color:#ECDECC"/>
	<stop  offset="0.618" style="stop-color:#BCB4A1"/>
	<stop  offset="0.9213" style="stop-color:#A59B83"/>
</linearGradient>
<path opacity="0.75" fill="url(#ian_symbols_387753d0b57e97d48d42c6e15e17a164)" d="M20.671,187.351c0,0,0.748-8.236,5.994-10.485c5.243-2.25,10.975-4.771,18.719-4.489
	c7.747,0.289,11.885,2.338,11.98,2.994c0.092,0.669-2.684,2.338-2.239,3.744c1.207,0.639,6.004,2.079,5.984,2.99
	c-0.021,0.938-6.514,1.699-5.984,2.99c4.499-0.245,10.408,2.283,10.482,3.01c0.064,0.734-5.369,0.103-5.239,1.495
	c3.669,0.782,6.238,3.718,5.983,4.499c-0.245,0.781-4.013-0.156-5.243,0.741c2.314,1.25,2.694,5.116,2.249,5.993
	c-0.445,0.884-3.394-0.347-4.349,0.184c2.175,1.406,0.251,4.94-0.255,5.198c-0.509,0.231-3.894-3.221-4.753-2.949
	c2.854,4.431,0.17,7.354-0.785,7.271c-0.945-0.095-1.719-3.9-3.459-3.724c-0.088,1.739-2.508,4.934-3.364,4.845
	c-0.87-0.095-1.475-5.443-2.43-5.443c0.262,1.89-4.054,3.459-5.012,3.113c-0.955-0.354-1.461-4.934-2.501-5.192
	c-1.74,2.501-5.793,1.631-6.493,1.04c1.206-2.25-4.403-6.748-4.403-6.748L20.671,187.351z"/>
<linearGradient id="ian_symbols_0839353cccb4104475f64fc410b600c4" gradientUnits="userSpaceOnUse" x1="162.8408" y1="387.6519" x2="486.993" y2="160.678">
	<stop  offset="0.3483" style="stop-color:#B9AD9E"/>
	<stop  offset="0.882" style="stop-color:#828178"/>
	<stop  offset="1" style="stop-color:#6B6D67"/>
</linearGradient>
<path fill="url(#ian_symbols_0839353cccb4104475f64fc410b600c4)" d="M493.957,171.625c8.983,17.975,10.343,65.32-12.056,82.839
	c-22.398,17.52-56.757,30.853-83.77,37.655c-26.985,6.815-52.184,14.549-71.293,16.744c-19.123,2.182-48.48,6.429-67.28,10.207
	c-18.79,3.758-50.668,4.417-64.178,7.938c-13.503,3.521-18.763,12.755-31.206,12.796c-12.429,0.041-36.73-2.147-37.077-3.207
	c-0.34-1.061,2.059-0.489,3.636-4.01c1.597-3.5-7.074-7.706-6.15-8.569c0.911-0.863,13.924-1.359,15.147,0.231
	c4.268-1.57-4.58-3.541-2.65-4.37c1.923-0.829,18.695-4.328,24.396-2.446c5.905-2.528-10.689-3.547-8.943-4.75
	c1.726-1.189,20.944-6.429,25.626-5.124c4.805-1.937-9.765-2.385-8.63-3.174c1.121-0.809,28.875-3.832,28.99-1.719
	c3.024-0.911-5.355-2.97-3.52-4.2c1.821-1.243,15.644-1.488,15.154,0.231c5.13-1.38,1.067-3.976,2.637-4.628
	c1.556-0.632,26.088-1.481,25.877,0.558c4.05-1.129-4.995-4.391-3.669-5.002c1.332-0.604,21.025-1.176,23.159,0.271
	c3.615-0.917,0.156-3.813,1.768-4.444c1.638-0.632,17.902,0.599,20.063,2.528c3.711-0.721-5.478-4.621-4.512-4.818
	c0.965-0.197,21.297,1.61,22.778,2.793c2.025-0.476-4.199-3.343-2.501-3.602c1.699-0.23,10.262,1.224,20.604,0.788
	c10.33-0.421,31.776-3.14,43.18-6.197c11.417-3.058,47.665-8.468,65.517-16.948c17.846-8.495,29.378-13.904,37.438-17.981
	c8.08-4.063,14.42-11.668,18.443-24.553c4.029-12.878-0.469-21.868-0.469-39.843c0-29.952-19.463-41.942-19.463-41.942
	S484.965,153.651,493.957,171.625z"/>
<linearGradient id="ian_symbols_e121e8b78571cd5455c72f818ba56d1a" gradientUnits="userSpaceOnUse" x1="462.2866" y1="137.5083" x2="463.3646" y2="136.7535">
	<stop  offset="0.3483" style="stop-color:#757965"/>
	<stop  offset="0.882" style="stop-color:#828178"/>
</linearGradient>
<path fill="url(#ian_symbols_e121e8b78571cd5455c72f818ba56d1a)" d="M464.647,138.585c-2.134-1.954-3.643-2.908-3.643-2.908S462.411,136.748,464.647,138.585z"/>
<linearGradient id="ian_symbols_15ff3cec12742314c1a2b026edf5889e" gradientUnits="userSpaceOnUse" x1="13.7573" y1="199.1597" x2="26.5187" y2="186.3983">
	<stop  offset="0" style="stop-color:#BF936E"/>
	<stop  offset="0.8989" style="stop-color:#D8AF97"/>
</linearGradient>
<path fill="url(#ian_symbols_15ff3cec12742314c1a2b026edf5889e)" stroke="#44251C" stroke-width="0.6959" d="M19.172,182.105c-4.492-0.741-7.485,6.755-6.741,9.745
	c0.751,2.99,2.25,8.236,5.997,11.98c3.738,3.744,7.482-3.744,9.725-6.001c2.246-2.235-1.488-11.226-1.488-11.226
	S23.668,182.866,19.172,182.105z"/>
<linearGradient id="ian_symbols_9504f2bf15c96354c5d652dda6f9734c" gradientUnits="userSpaceOnUse" x1="147.603" y1="81.4004" x2="186.5488" y2="42.4546">
	<stop  offset="0.0056" style="stop-color:#7E6E45"/>
	<stop  offset="1" style="stop-color:#5F594C"/>
</linearGradient>
<path opacity="0.48" fill="url(#ian_symbols_9504f2bf15c96354c5d652dda6f9734c)" d="M174.938,30.844c0,0-2.997,14.984-1.508,25.463c1.508,10.485,7.489,17.974,6,26.951
	c-1.502,9.001-10.486,19.483-10.486,19.483s1.495-14.984,0-26.972c-1.502-11.97-5.994-13.476-17.968-19.462
	C138.99,50.317,136,50.317,136,50.317s8.977,0,20.965-7.492C168.945,35.346,174.938,30.844,174.938,30.844z"/>
<path fill="none" stroke="#44251C" stroke-width="0.6959" d="M493.957,171.625c8.983,17.975,10.343,65.32-12.056,82.839
	c-22.398,17.52-56.757,30.853-83.77,37.655c-26.985,6.815-52.184,14.549-71.293,16.744c-19.123,2.182-48.48,6.429-67.28,10.207
	c-18.79,3.758-50.668,4.417-64.178,7.938c-13.503,3.521-18.763,12.755-31.206,12.796c-12.429,0.041-36.73-2.147-37.077-3.207
	c-0.34-1.061,2.059-0.489,3.636-4.01c1.597-3.5-7.074-7.706-6.15-8.569c0.911-0.863,13.924-1.359,15.147,0.231
	c4.268-1.57-4.58-3.541-2.65-4.37c1.923-0.829,18.695-4.328,24.396-2.446c5.905-2.528-10.689-3.547-8.943-4.75
	c1.726-1.189,20.944-6.429,25.626-5.124c4.805-1.937-9.765-2.385-8.63-3.174c1.121-0.809,28.875-3.832,28.99-1.719
	c3.024-0.911-5.355-2.97-3.52-4.2c1.821-1.243,15.644-1.488,15.154,0.231c5.13-1.38,1.067-3.976,2.637-4.628
	c1.556-0.632,26.088-1.481,25.877,0.558c4.05-1.129-4.995-4.391-3.669-5.002c1.332-0.604,21.025-1.176,23.159,0.271
	c3.615-0.917,0.156-3.813,1.768-4.444c1.638-0.632,17.902,0.599,20.063,2.528c3.711-0.721-5.478-4.621-4.512-4.818
	c0.965-0.197,21.297,1.61,22.778,2.793c2.025-0.476-4.199-3.343-2.501-3.602c1.699-0.23,10.262,1.224,20.604,0.788
	c10.33-0.421,31.776-3.14,43.18-6.197c11.417-3.058,47.665-8.468,65.517-16.948c17.846-8.495,29.378-13.904,37.438-17.981
	c8.08-4.063,14.42-11.668,18.443-24.553c4.029-12.878-0.469-21.868-0.469-39.843c0-29.952-19.463-41.942-19.463-41.942
	S484.965,153.651,493.957,171.625z"/>
<polyline fill="none" stroke="#44251C" stroke-width="0.6959" points="175.326,248.872 47.103,191.224 137.678,247.683 "/>
<path fill="none" stroke="#44251C" stroke-width="0.6959" d="M28.279,215.933c5.878-5.885,5.878-27.06,5.878-27.06
	s8.233,34.107,4.713,42.337"/>
<path fill="none" stroke="#44251C" stroke-width="0.6959" d="M57.69,242.973c-1.175-21.154-23.533-54.1-23.533-54.1
	s27.057,27.053,40.002,57.634"/>
<path fill="none" stroke="#44251C" stroke-width="0.6959" d="M91.804,242.973c-9.412-14.101-50.59-52.931-50.59-52.931
	s61.181,43.532,77.637,57.641"/>
</svg>
