<?xml version="1.0" standalone="no"?>
<!DOCTYPE svg PUBLIC "-//W3C//DTD SVG 20010904//EN"
 "http://www.w3.org/TR/2001/REC-SVG-20010904/DTD/svg10.dtd">
<svg version="1.0" xmlns="http://www.w3.org/2000/svg"
 width="688.000000pt" height="416.000000pt" viewBox="0 0 688.000000 416.000000"
 preserveAspectRatio="xMidYMid meet">
<metadata>
Created by potrace 1.16, written by Peter Selinger 2001-2019
</metadata>
<g transform="translate(0.000000,416.000000) scale(0.100000,-0.100000)"
fill="#000000" stroke="none">
<path d="M3233 4122 c-10 -10 -31 -46 -48 -80 -30 -61 -55 -81 -55 -42 0 11
-11 30 -24 41 -13 12 -27 32 -30 45 -12 47 -46 22 -75 -56 -19 -49 -52 -120
-56 -120 -2 0 -27 14 -55 30 -28 17 -53 30 -56 30 -3 0 -21 -34 -40 -75 -19
-41 -38 -75 -43 -75 -4 0 -25 12 -46 26 -21 14 -43 23 -49 21 -7 -3 -18 -23
-24 -46 -7 -22 -16 -43 -21 -45 -5 -3 -27 8 -50 24 -37 27 -42 29 -47 13 -3
-10 -10 -28 -15 -41 -5 -13 -9 -31 -9 -42 0 -29 -15 -32 -44 -9 -21 17 -29 19
-41 9 -8 -7 -15 -19 -15 -26 0 -8 -6 -24 -12 -37 -7 -12 -14 -23 -15 -25 -1
-2 -13 4 -28 14 -26 17 -28 17 -41 -1 -8 -10 -14 -32 -14 -48 0 -28 -2 -29
-32 -22 -61 13 -62 13 -78 -49 -16 -58 -41 -85 -81 -86 -8 0 -58 -21 -110 -46
-52 -25 -125 -57 -164 -71 -38 -14 -102 -40 -140 -58 -39 -18 -82 -35 -95 -39
-30 -9 -51 -19 -280 -130 -185 -90 -209 -103 -354 -195 -50 -32 -127 -77 -171
-101 -44 -24 -93 -54 -110 -66 -16 -12 -93 -54 -170 -94 -77 -39 -156 -85
-175 -103 -19 -18 -52 -40 -72 -49 -36 -16 -43 -28 -39 -68 2 -24 22 -92 37
-128 18 -43 18 -45 -9 -38 -136 41 -167 39 -167 -7 0 -33 48 -122 100 -182 25
-30 59 -73 75 -95 17 -23 48 -61 70 -85 88 -93 166 -181 174 -193 12 -20 100
-79 154 -103 26 -12 47 -25 47 -29 0 -4 19 -15 42 -25 23 -9 52 -25 66 -36 14
-10 33 -19 43 -19 10 0 33 -12 51 -28 18 -15 47 -34 63 -42 17 -8 48 -27 70
-41 38 -26 127 -69 140 -69 4 0 39 -16 79 -35 40 -19 79 -35 86 -35 6 0 65
-23 131 -50 196 -83 370 -134 594 -175 77 -14 161 -33 187 -41 26 -9 52 -13
56 -10 5 3 36 -5 68 -17 52 -20 64 -31 102 -87 23 -35 45 -75 48 -89 13 -56
96 -252 132 -309 11 -16 18 -20 27 -12 14 12 11 15 145 -185 69 -102 197 -236
238 -249 65 -21 105 87 105 284 0 128 -4 170 -23 273 -10 50 -9 64 6 95 14 31
15 38 3 58 -20 31 -233 189 -298 220 -39 19 -51 28 -40 34 8 5 75 7 149 6 157
-3 314 9 420 31 41 9 100 19 130 24 30 4 88 17 129 29 l75 20 29 -27 c16 -16
45 -49 65 -75 39 -52 66 -61 76 -25 6 21 7 21 39 -14 17 -20 40 -49 50 -63 10
-15 27 -26 40 -26 13 0 31 -6 42 -13 35 -24 97 -15 141 21 21 18 42 32 46 32
5 0 8 7 8 15 0 8 15 21 33 29 19 7 113 93 213 193 105 106 196 189 222 202 23
12 42 27 42 34 0 18 37 51 80 72 38 19 120 97 139 133 6 12 20 22 31 22 10 0
28 13 39 28 14 20 34 32 63 38 33 7 49 18 73 50 16 23 42 49 56 58 40 24 101
88 92 96 -4 4 -21 16 -36 27 -15 12 -23 24 -18 27 5 4 52 9 104 13 81 5 108 2
203 -21 60 -15 132 -36 161 -46 97 -36 267 -129 373 -205 58 -41 117 -80 133
-86 15 -6 27 -15 27 -20 0 -5 9 -9 21 -9 11 0 32 -13 46 -30 13 -16 33 -30 42
-30 10 0 38 -13 62 -30 24 -16 48 -30 52 -30 5 0 23 -11 41 -25 41 -31 147
-75 181 -75 21 0 25 5 25 31 0 17 -16 59 -35 93 -19 35 -35 70 -35 78 0 8 -25
70 -55 136 -30 67 -55 125 -55 130 0 5 -8 20 -19 33 -10 13 -24 55 -31 92 -8
37 -19 72 -26 78 -9 7 -10 18 -4 35 6 15 6 34 0 49 -5 14 -7 32 -4 40 4 9 0
23 -7 33 -29 36 -51 91 -46 114 3 13 2 41 -3 63 -7 29 -5 44 4 55 8 8 16 29
19 45 18 94 28 127 55 190 16 39 46 94 66 123 20 30 34 58 31 63 -3 5 1 19 9
31 7 13 17 34 21 47 4 13 34 57 66 97 33 40 59 77 59 83 0 6 13 24 28 39 32
29 57 85 67 145 3 21 10 35 16 32 5 -4 9 -2 9 4 0 13 -17 24 -22 14 -6 -14
-120 -64 -155 -69 -18 -2 -59 -17 -91 -32 -89 -45 -216 -111 -227 -120 -5 -4
-23 -17 -38 -29 -16 -12 -54 -32 -84 -43 -31 -12 -69 -31 -84 -44 -15 -13 -63
-43 -106 -66 -43 -24 -80 -46 -83 -50 -3 -4 -48 -29 -100 -55 -52 -27 -102
-54 -110 -61 -8 -6 -42 -22 -75 -34 -67 -26 -246 -37 -326 -21 -152 30 -309
82 -309 101 0 3 25 22 55 43 33 23 55 46 55 56 0 20 -43 57 -99 85 -18 10 -36
26 -38 37 -3 10 -10 19 -15 19 -5 0 -13 12 -19 28 -9 27 -32 42 -181 125 -38
21 -88 56 -111 78 -23 22 -52 42 -64 45 -13 3 -23 10 -23 16 0 5 -25 20 -55
33 -30 14 -55 29 -55 35 0 6 -8 14 -17 17 -10 4 -31 16 -48 28 -16 12 -50 30
-75 39 -25 10 -54 26 -65 37 -35 34 -122 99 -133 99 -6 0 -17 12 -24 28 -9 19
-22 28 -43 30 -17 2 -38 11 -48 20 -36 32 -196 118 -254 136 -12 4 -33 20 -47
37 -14 16 -32 29 -41 29 -8 0 -18 6 -21 14 -3 8 -18 18 -33 21 -16 3 -43 21
-61 40 -37 39 -51 42 -70 20 -24 -29 -47 -17 -69 34 -11 27 -21 61 -21 75 0
44 -18 38 -65 -24 -25 -33 -50 -60 -54 -60 -14 0 -50 57 -61 99 -6 22 -13 41
-15 41 -3 0 -13 -8 -22 -18z"/>
</g>
</svg>
