<?xml version="1.0" standalone="no"?>
<!DOCTYPE svg PUBLIC "-//W3C//DTD SVG 20010904//EN"
 "http://www.w3.org/TR/2001/REC-SVG-20010904/DTD/svg10.dtd">
<svg version="1.0" xmlns="http://www.w3.org/2000/svg"
 width="841.000000pt" height="1536.000000pt" viewBox="0 0 841.000000 1536.000000"
 preserveAspectRatio="xMidYMid meet">
<metadata>
Created by potrace 1.16, written by Peter Selinger 2001-2019
</metadata>
<g transform="translate(0.000000,1536.000000) scale(0.100000,-0.100000)"
fill="#000000" stroke="none">
<path d="M5244 15335 c-15 -24 -21 -25 -106 -25 -57 0 -99 -5 -116 -14 -15 -8
-46 -17 -67 -21 -76 -12 -84 -15 -96 -36 -8 -16 -7 -24 6 -39 15 -17 12 -18
-74 -22 -93 -4 -121 -16 -121 -49 0 -26 23 -35 119 -48 46 -6 86 -13 88 -15 3
-2 -15 -7 -39 -11 -24 -3 -84 -27 -135 -51 -50 -25 -111 -48 -135 -51 -56 -7
-77 -19 -88 -49 -5 -13 -18 -27 -27 -30 -42 -13 -115 -49 -125 -62 -15 -18 5
-31 47 -32 l30 -1 -36 -19 c-51 -27 -66 -47 -51 -71 16 -25 15 -29 -3 -29 -22
0 -92 -37 -115 -60 -27 -27 -26 -66 1 -73 19 -5 16 -11 -35 -74 -30 -37 -68
-81 -83 -98 -37 -39 -52 -66 -46 -82 3 -7 -5 -24 -16 -39 -12 -16 -21 -42 -21
-63 0 -30 -10 -47 -60 -101 -63 -68 -67 -78 -48 -110 9 -15 9 -24 -1 -44 -8
-14 -11 -37 -8 -55 5 -26 0 -38 -34 -77 -48 -55 -50 -91 -6 -112 41 -20 34
-45 -33 -129 -77 -95 -79 -143 -7 -143 29 0 29 0 13 -25 -20 -30 -20 -49 -1
-65 30 -25 18 -87 -40 -204 -48 -94 -54 -114 -45 -132 10 -17 9 -28 -4 -52
-20 -39 -20 -82 -1 -96 14 -10 14 -15 0 -50 -14 -33 -15 -43 -4 -63 11 -20 11
-30 0 -56 -45 -108 -46 -114 -32 -141 13 -24 11 -29 -45 -102 -238 -307 -284
-376 -442 -670 -103 -192 -259 -521 -305 -644 -60 -162 -127 -361 -153 -455
-13 -49 -34 -103 -46 -120 -158 -213 -258 -399 -381 -710 -137 -345 -202 -557
-228 -735 -10 -75 -22 -106 -99 -260 -190 -380 -308 -655 -399 -928 -107 -322
-148 -539 -222 -1157 -33 -277 -37 -303 -80 -524 -34 -170 -26 -150 -279 -686
-146 -308 -162 -345 -290 -650 -202 -484 -263 -712 -264 -990 -1 -133 0 -140
19 -140 27 0 81 71 294 381 200 292 356 512 397 559 l25 30 -5 -125 c-4 -104
-13 -161 -56 -340 -120 -509 -263 -1030 -578 -2110 -307 -1051 -488 -1675
-524 -1810 -28 -103 -29 -119 -19 -160 18 -66 70 -170 86 -170 14 0 39 21 52
45 7 12 14 12 48 1 22 -7 56 -16 76 -19 l37 -5 40 86 c81 174 226 564 1009
2707 188 516 211 571 277 655 23 30 114 147 202 260 159 203 520 732 689 1010
283 463 566 890 706 1065 153 190 408 458 656 688 35 31 67 57 73 57 19 0 10
-32 -15 -52 -47 -37 -69 -95 -67 -178 1 -41 3 -118 5 -171 1 -65 7 -101 16
-113 8 -9 17 -34 20 -54 6 -37 7 -37 61 -42 118 -11 23 -54 -105 -48 -86 5
-126 20 -183 69 -38 33 -62 37 -62 10 0 -26 90 -105 155 -135 119 -57 287 -73
360 -36 22 11 51 20 65 20 18 0 31 8 40 25 9 18 22 25 42 25 24 0 32 8 58 63
17 34 51 96 75 137 25 41 45 82 45 91 0 22 20 29 88 29 79 1 130 27 207 106
60 61 65 69 65 110 0 61 -20 96 -79 133 -27 18 -55 39 -62 48 -21 24 -127 93
-162 105 -39 13 -116 69 -117 84 0 6 36 43 79 83 55 49 87 71 105 71 14 0 105
-25 203 -56 98 -30 235 -73 306 -95 70 -22 127 -42 127 -45 0 -3 -17 -31 -39
-62 -21 -31 -54 -89 -74 -128 -20 -39 -61 -104 -91 -145 -57 -76 -67 -107 -41
-129 13 -11 12 -16 -5 -40 -11 -16 -20 -37 -20 -49 0 -37 123 -98 177 -88 20
4 32 -3 56 -30 82 -93 287 -155 437 -132 36 5 89 13 118 18 45 7 60 14 92 49
21 23 43 42 49 42 14 0 41 60 41 92 0 13 8 39 18 58 16 31 16 41 4 94 -7 32
-11 60 -8 63 2 3 13 0 24 -6 35 -19 72 -13 102 17 34 34 50 87 50 164 0 46 -5
62 -25 86 -17 21 -25 42 -25 69 0 48 -20 77 -69 102 -21 11 -50 39 -65 63 -34
51 -76 98 -89 98 -5 0 -22 9 -38 21 -30 21 -223 68 -309 74 -277 22 -547 64
-593 92 -5 3 39 32 98 65 155 87 250 163 577 460 350 318 418 393 603 653 173
244 240 361 413 730 101 213 149 336 186 475 14 52 50 174 81 270 85 263 181
719 211 1002 14 132 14 194 5 458 -12 326 -32 590 -57 733 -16 96 -76 287
-118 379 -33 73 -60 200 -53 252 7 49 38 120 105 241 45 81 53 90 83 95 33 5
34 7 37 54 4 57 20 74 86 92 33 9 42 16 47 41 10 48 15 53 49 40 44 -17 57 1
43 54 -9 33 -8 41 3 45 48 14 47 12 40 63 -5 38 -3 53 9 65 9 9 21 16 26 16
26 0 400 53 494 71 61 11 180 38 265 60 l154 40 47 -26 c54 -29 69 -31 69 -10
0 31 -39 91 -92 143 -152 149 -307 203 -847 297 -139 25 -260 50 -268 57 -8 6
-28 39 -45 72 -94 187 -348 500 -513 635 -192 157 -575 380 -834 486 -153 62
-218 80 -245 66 -17 -10 -40 -5 -128 24 -130 43 -171 45 -194 10z m435 -8864
l24 -15 -29 -8 c-39 -11 -54 -3 -54 26 0 28 12 27 59 -3z m-149 -15 c0 -21
-17 -29 -48 -21 -26 6 -26 7 -8 21 26 18 56 18 56 0z m-1291 -68 l14 -47 -57
-54 c-47 -44 -57 -59 -51 -76 8 -25 -18 -40 -39 -22 -11 10 -11 17 0 49 7 20
13 51 14 67 1 78 37 138 79 133 20 -2 28 -12 40 -50z m1211 10 c17 -12 30 -27
30 -34 0 -13 -77 -86 -106 -101 -10 -6 -30 -13 -44 -16 -23 -6 -27 -2 -38 36
-10 29 -10 43 -3 45 6 2 37 23 69 47 31 24 58 44 60 44 2 1 16 -9 32 -21z
m-910 -58 c12 -7 12 -12 -4 -29 -25 -28 -46 -27 -46 2 0 37 19 47 50 27z
m1225 -42 c-4 -13 -15 -36 -24 -53 -14 -25 -24 -31 -61 -33 -25 -2 -50 -8 -57
-14 -16 -13 -17 -90 -2 -105 9 -9 2 -14 -27 -22 -129 -34 -178 -38 -250 -20
-54 14 -56 25 -6 34 88 16 178 89 222 181 20 40 23 42 51 34 29 -9 113 1 126
14 4 3 13 6 20 6 10 0 12 -7 8 -22z"/>
</g>
</svg>
