<?xml version="1.0" standalone="no"?>
<!DOCTYPE svg PUBLIC "-//W3C//DTD SVG 20010904//EN"
 "http://www.w3.org/TR/2001/REC-SVG-20010904/DTD/svg10.dtd">
<svg version="1.0" xmlns="http://www.w3.org/2000/svg"
 width="1536.000000pt" height="657.000000pt" viewBox="0 0 1536.000000 657.000000"
 preserveAspectRatio="xMidYMid meet">
<metadata>
Created by potrace 1.16, written by Peter Selinger 2001-2019
</metadata>
<g transform="translate(0.000000,657.000000) scale(0.100000,-0.100000)"
fill="#000000" stroke="none">
<path d="M2824 6551 c-161 -98 -252 -473 -194 -801 47 -269 50 -260 -78 -299
-185 -58 -413 -220 -588 -420 -53 -59 -342 -429 -399 -508 -1 -2 -48 13 -106
32 -208 71 -479 108 -629 87 -61 -9 -56 -10 70 -11 147 -1 293 -20 408 -51 85
-24 232 -79 232 -87 0 -11 -62 -103 -69 -103 -3 0 -31 7 -61 15 -223 61 -465
101 -683 114 -140 8 -374 -1 -457 -18 -33 -7 -22 -8 45 -3 154 12 443 6 590
-12 214 -27 523 -92 548 -116 5 -4 1 -20 -8 -34 -17 -26 -19 -26 -136 -26
-146 0 -319 -22 -434 -55 -90 -26 -223 -79 -239 -95 -5 -5 24 5 65 21 100 41
233 76 359 94 105 15 305 20 334 9 12 -5 7 -18 -26 -72 -33 -52 -43 -77 -46
-122 -5 -69 25 -147 72 -186 28 -24 36 -26 91 -20 l60 6 -135 -88 c-334 -218
-573 -462 -709 -723 -58 -111 -63 -135 -6 -34 125 224 434 542 701 723 78 52
162 102 173 102 5 0 14 -13 21 -29 6 -16 20 -37 30 -46 17 -16 15 -21 -52
-108 -121 -158 -236 -372 -292 -541 -30 -89 -66 -260 -65 -303 0 -15 9 11 19
60 43 199 149 452 260 622 69 105 179 237 194 231 6 -2 36 -10 66 -17 l55 -12
0 -241 c0 -229 1 -246 27 -346 15 -58 34 -121 43 -140 17 -38 15 -25 -11 70
-28 101 -44 244 -44 385 0 121 11 250 23 261 2 2 25 1 51 -2 45 -7 49 -9 68
-53 60 -141 116 -394 134 -606 5 -49 10 -77 12 -61 13 102 -41 413 -105 605
-19 57 -33 104 -31 106 2 1 17 7 34 13 l32 10 40 -86 c142 -307 243 -717 271
-1102 l10 -125 -4 160 c-8 313 -77 617 -225 990 l-72 180 38 32 c20 18 53 37
72 43 40 11 150 -2 222 -25 25 -8 110 -28 190 -44 196 -40 249 -59 278 -101
43 -64 22 -75 -112 -59 -104 13 -137 8 -188 -28 -46 -31 -48 -43 -7 -43 l31 0
-49 -45 -48 -46 53 7 52 6 -11 -26 c-17 -36 -6 -42 34 -17 36 22 67 28 67 12
0 -5 -6 -11 -12 -14 -10 -4 -10 -7 -1 -18 18 -19 97 2 199 53 46 23 87 38 91
35 21 -22 -107 -96 -252 -146 -163 -57 -190 -81 -202 -181 -7 -60 4 -64 41
-12 27 37 27 37 19 7 -15 -58 -3 -190 16 -169 4 5 14 32 21 59 25 95 46 99 55
10 8 -67 19 -77 29 -25 3 17 9 44 12 60 7 40 20 38 34 -5 6 -19 15 -35 18 -34
4 0 18 24 32 52 32 64 159 171 266 223 63 30 80 34 151 34 217 0 526 -142 779
-358 63 -55 88 -84 117 -140 46 -88 85 -140 196 -262 284 -313 504 -512 691
-625 261 -158 415 -288 469 -397 36 -71 38 -106 11 -162 -12 -25 -134 -157
-313 -338 -234 -237 -303 -301 -341 -318 -32 -13 -46 -25 -43 -34 6 -15 -68
-60 -126 -77 -18 -5 -102 -14 -187 -19 -156 -9 -244 -26 -205 -40 15 -5 11 -9
-20 -14 -22 -4 -62 -17 -90 -29 l-50 -22 40 -7 c22 -4 63 -7 90 -8 l50 0 -72
-36 c-40 -19 -73 -38 -73 -43 0 -4 37 -6 83 -3 45 2 100 0 122 -5 23 -5 55 -6
75 -1 19 5 54 13 77 17 35 6 41 5 32 -6 -17 -19 4 -17 101 12 46 14 105 25
130 25 59 0 88 21 119 88 24 52 37 61 114 81 27 7 46 6 63 -1 18 -9 36 -8 72
1 68 19 156 26 148 12 -9 -13 -3 -13 49 -1 22 6 76 15 120 20 108 14 190 38
211 61 16 18 16 22 1 55 -9 19 -17 45 -17 57 0 40 115 217 208 322 49 55 332
430 406 538 31 46 46 79 46 100 0 50 -49 141 -150 277 -91 123 -140 207 -140
243 0 43 55 110 115 139 49 24 110 36 330 63 116 14 262 34 326 45 214 37 397
22 571 -45 49 -19 393 -197 765 -396 1393 -744 1787 -950 2343 -1222 821 -402
1023 -480 1430 -552 221 -38 399 -54 695 -61 185 -5 282 -11 309 -21 50 -17
57 -16 26 3 l-25 15 25 -4 c14 -2 49 -14 79 -26 36 -15 50 -17 43 -8 -7 8 -9
17 -5 21 4 4 0 4 -9 1 -9 -4 -18 -2 -21 2 -9 14 34 14 73 1 19 -7 41 -11 49
-9 7 1 11 -1 8 -6 -3 -4 9 -9 26 -9 l30 -1 -34 18 -34 18 51 -3 c28 -2 61 -9
73 -16 13 -6 25 -9 29 -6 3 3 -1 6 -8 6 -7 0 -11 2 -8 5 2 3 31 -4 63 -15 72
-25 80 -25 35 0 -46 25 -33 25 32 -1 100 -40 100 -40 92 -28 -4 7 0 9 12 5 86
-27 307 -86 310 -83 2 2 -29 16 -68 32 -40 15 -80 34 -88 41 -8 7 -36 22 -62
33 -50 21 -67 38 -22 21 15 -6 42 -12 60 -15 18 -2 55 -11 81 -19 110 -36 239
-78 253 -83 8 -3 12 -2 8 2 -4 4 -53 25 -110 46 -57 21 -96 38 -88 39 13 0
103 -29 325 -105 11 -3 -20 15 -68 41 -48 25 -86 48 -84 50 2 2 23 -3 47 -11
23 -8 46 -13 50 -10 9 5 150 -44 201 -70 17 -9 33 -14 36 -11 3 2 -26 21 -63
41 -104 54 41 7 159 -52 26 -13 47 -21 47 -19 0 3 -45 28 -100 57 -94 48 -127
73 -66 50 14 -6 32 -8 39 -5 7 2 35 -4 62 -16 26 -11 50 -19 52 -17 2 3 -30
19 -72 37 -41 19 -73 35 -71 37 3 4 71 -21 191 -69 79 -31 84 -31 25 1 -30 17
-66 40 -80 51 l-25 20 28 -10 c15 -5 39 -16 55 -23 15 -8 43 -17 62 -21 l35
-6 -30 20 c-44 29 -23 24 46 -11 34 -17 64 -28 67 -25 3 3 1 6 -4 6 -5 0 -20
9 -34 20 l-25 20 33 -11 c63 -21 42 -2 -33 31 -104 46 -87 50 22 5 123 -50
130 -51 38 -5 -44 21 -77 40 -74 40 3 0 44 -13 90 -29 120 -42 130 -44 77 -18
-41 21 -44 25 -28 35 13 8 31 7 71 -3 30 -8 78 -16 107 -19 47 -5 51 -4 38 9
-8 9 -29 18 -46 21 -17 4 -33 10 -36 15 -3 5 1 7 8 4 7 -2 29 0 48 4 l35 9
-45 2 c-25 1 -37 4 -27 7 20 5 22 19 5 26 -7 3 13 6 44 6 31 1 60 6 64 12 5 8
34 10 93 6 60 -4 72 -3 40 3 -25 4 -95 11 -155 16 -129 9 -129 9 124 39 108
12 179 23 157 24 -45 1 -336 -24 -381 -34 -20 -4 -15 0 16 14 55 24 45 25 -40
5 -35 -8 -89 -17 -120 -19 -53 -4 -51 -2 73 44 70 27 131 52 135 56 4 5 -2 5
-13 1 -45 -18 -189 -66 -194 -66 -3 1 23 17 59 36 71 38 68 38 -68 -12 -92
-34 -131 -43 -102 -24 12 8 12 10 -5 10 -13 1 0 12 35 31 30 17 46 27 35 23
-11 -3 -65 -21 -119 -40 -55 -19 -101 -32 -103 -31 -2 2 21 16 49 31 29 15 46
25 37 22 -136 -40 -303 -85 -306 -83 -2 3 24 15 57 27 77 29 89 45 14 20 -32
-11 -59 -18 -61 -16 -8 7 118 47 129 40 6 -4 8 -3 4 4 -3 6 3 14 15 17 11 4
19 9 16 11 -2 2 -50 -9 -107 -26 -57 -16 -105 -28 -107 -26 -2 2 35 21 81 42
98 44 109 56 17 19 -34 -14 -67 -22 -73 -19 -6 4 -8 3 -4 -4 4 -6 -1 -10 -11
-10 -10 1 -47 -10 -83 -24 -36 -15 -78 -29 -95 -33 -16 -3 5 9 48 26 42 18 76
33 74 35 -1 2 -52 -13 -112 -32 -61 -19 -118 -32 -128 -30 -10 2 -14 0 -11 -6
4 -6 -2 -8 -16 -3 -12 4 -20 3 -17 -1 3 -5 -17 -10 -44 -12 -27 -1 -49 -1 -49
2 0 3 25 12 56 21 84 24 226 77 221 82 -3 2 -33 -7 -68 -20 -108 -40 -131 -41
-59 -1 69 37 64 37 -40 -2 -40 -14 -57 -18 -46 -9 28 22 17 19 -55 -14 -76
-34 -168 -65 -175 -58 -2 2 17 12 43 22 58 21 75 34 36 27 -41 -7 -26 3 52 37
100 43 80 40 -148 -24 -15 -4 -18 -3 -9 3 10 6 5 9 -16 8 -17 -1 -27 -5 -24
-10 3 -5 -2 -7 -11 -3 -10 4 -17 1 -17 -5 0 -6 -3 -9 -6 -5 -3 3 -35 -6 -71
-19 -36 -14 -68 -23 -70 -20 -2 2 5 7 16 11 12 4 18 11 15 17 -5 8 -1 9 12 4
10 -4 15 -4 11 0 -4 4 -2 13 4 21 16 19 10 17 -81 -22 -94 -40 -126 -46 -60
-10 55 29 50 31 -22 6 -36 -12 -80 -19 -127 -18 l-72 1 42 22 c42 21 42 21 12
20 -17 0 -29 -5 -26 -10 3 -5 0 -6 -8 -4 -8 3 -31 -1 -51 -9 -45 -18 -77 -11
-58 12 16 19 9 19 -37 0 -43 -18 -77 -21 -53 -4 11 8 9 8 -10 2 -75 -24 -701
44 -954 104 -394 93 -970 370 -1889 907 -634 370 -1114 626 -1687 901 -396
190 -707 347 -820 413 -193 113 -348 227 -414 303 -54 63 -125 216 -221 474
-105 284 -200 477 -298 607 -276 365 -578 617 -987 822 -171 85 -309 136 -442
161 -147 28 -465 56 -688 62 -256 6 -250 5 -369 99 -72 58 -153 153 -176 209
-28 65 -27 97 3 200 90 304 79 484 -36 585 -91 80 -204 115 -353 108 -155 -6
-236 -56 -397 -242 -26 -30 -46 -46 -51 -40 -6 5 -6 44 -1 94 15 141 -7 237
-69 303 -53 58 -104 70 -157 38z m3033 -4706 c40 -77 69 -216 46 -215 -5 0
-17 20 -27 43 -13 26 -69 91 -152 172 -73 72 -141 148 -152 170 -26 52 -36
107 -27 142 6 27 10 24 143 -112 95 -97 147 -158 169 -200z m-8 -366 c-79
-158 -264 -416 -403 -565 l-76 -82 -87 -16 c-102 -19 -116 -19 -111 -7 2 5
141 149 309 319 168 171 326 335 350 366 24 30 45 54 47 52 2 -2 -11 -32 -29
-67z m9024 -1126 c-13 -2 -35 -2 -50 0 -16 2 -5 4 22 4 28 0 40 -2 28 -4z"/>
<path d="M723 4623 c9 -2 23 -2 30 0 6 3 -1 5 -18 5 -16 0 -22 -2 -12 -5z"/>
<path d="M188 4483 c6 -2 18 -2 25 0 6 3 1 5 -13 5 -14 0 -19 -2 -12 -5z"/>
<path d="M1890 2955 c0 -5 5 -17 10 -25 5 -8 10 -10 10 -5 0 6 -5 17 -10 25
-5 8 -10 11 -10 5z"/>
<path d="M1202 2785 c0 -16 2 -22 5 -12 2 9 2 23 0 30 -3 6 -5 -1 -5 -18z"/>
<path d="M14040 515 c-14 -8 -20 -14 -15 -14 6 0 21 6 35 14 14 8 21 14 15 14
-5 0 -21 -6 -35 -14z"/>
<path d="M14670 510 c-8 -5 -10 -10 -5 -10 6 0 17 5 25 10 8 5 11 10 5 10 -5
0 -17 -5 -25 -10z"/>
<path d="M14910 510 c-8 -5 -10 -10 -5 -10 6 0 17 5 25 10 8 5 11 10 5 10 -5
0 -17 -5 -25 -10z"/>
<path d="M14130 490 c-8 -5 -10 -10 -5 -10 6 0 17 5 25 10 8 5 11 10 5 10 -5
0 -17 -5 -25 -10z"/>
<path d="M14530 490 c-8 -5 -10 -10 -5 -10 6 0 17 5 25 10 8 5 11 10 5 10 -5
0 -17 -5 -25 -10z"/>
<path d="M13090 435 c-14 -8 -20 -14 -14 -15 5 0 19 7 30 15 24 18 16 19 -16
0z"/>
<path d="M15148 333 c6 -2 18 -2 25 0 6 3 1 5 -13 5 -14 0 -19 -2 -12 -5z"/>
<path d="M14968 323 c12 -2 30 -2 40 0 9 3 -1 5 -23 4 -22 0 -30 -2 -17 -4z"/>
<path d="M15038 313 c6 -2 18 -2 25 0 6 3 1 5 -13 5 -14 0 -19 -2 -12 -5z"/>
<path d="M14878 303 c7 -3 16 -2 19 1 4 3 -2 6 -13 5 -11 0 -14 -3 -6 -6z"/>
<path d="M14923 273 c9 -2 23 -2 30 0 6 3 -1 5 -18 5 -16 0 -22 -2 -12 -5z"/>
<path d="M14400 146 c0 -2 7 -7 16 -10 8 -3 12 -2 9 4 -6 10 -25 14 -25 6z"/>
<path d="M13970 130 c8 -5 20 -10 25 -10 6 0 3 5 -5 10 -8 5 -19 10 -25 10 -5
0 -3 -5 5 -10z"/>
</g>
</svg>
