
        <svg xmlns:rdf="http://www.w3.org/1999/02/22-rdf-syntax-ns#" xmlns="http://www.w3.org/2000/svg" xmlns:cc="http://creativecommons.org/ns#" xmlns:xlink="http://www.w3.org/1999/xlink" xmlns:dc="http://purl.org/dc/elements/1.1/" x="0px" y="0px" width="501" height="391" viewBox="0 0 501 391" xml:space="preserve">
            <title>Larrea tridentata (Creosote Bush)</title>
            <desc xmlns:ian_image_library="https://ian.umces.edu/media-library/">
                <ian_image_library:title>Larrea tridentata (Creosote Bush)</ian_image_library:title>
                <ian_image_library:descr>Illustration of Larrea tridentata (Creosote Bush)</ian_image_library:descr>
                <ian_image_library:scene>
                    <ian_image_library:contains>creosote, bush, chaparral, plant, Plantae, vascular, Magnoliophyta, angiosperm, Magnoliopsida, dicot, Rosidae, Sapinales, Zygophyliaceae, Larrea, tridentata, shrub, evergreen, desert, arid, southwest, North, America, Mexico, Mojave, Sonoran, Chihuahuan</ian_image_library:contains>
                    <ian_image_library:when>2008-12-22</ian_image_library:when>
                </ian_image_library:scene>
            </desc>
            <metadata id="metadata-iil-4474a71984d16f646d33014967fe9468">
                <rdf:RDF>
                <cc:Work
                rdf:about="">
                <dc:format>image/svg+xml</dc:format>
                <dc:type
                rdf:resource="http://purl.org/dc/dcmitype/StillImage" />
                <cc:license
                rdf:resource="http://creativecommons.org/licenses/by-sa/3.0/" />
                <dc:title>Larrea tridentata (Creosote Bush)</dc:title>
                <dc:date>2008-12-22</dc:date>
                <dc:creator>
                    <cc:Agent>
                        <dc:title></dc:title>
                    </cc:Agent>
                </dc:creator>
                <dc:rights>
                <cc:Agent>
                    <dc:title></dc:title>
                </cc:Agent>
                </dc:rights>
                <dc:publisher>
                <cc:Agent>
                    <dc:title>Integration and Application Network</dc:title>
                </cc:Agent>
                </dc:publisher>
                <dc:identifier>https://ian.umces.edu/media-library/larrea-tridentata-creosote-bush/</dc:identifier>
                <dc:source>https://ian.umces.edu/media-library/larrea-tridentata-creosote-bush/</dc:source>
                <dc:language>en-US</dc:language>
                <dc:subject>
                <rdf:Bag>
                    <rdf:li>creosote, bush, chaparral, plant, Plantae, vascular, Magnoliophyta, angiosperm, Magnoliopsida, dicot, Rosidae, Sapinales, Zygophyliaceae, Larrea, tridentata, shrub, evergreen, desert, arid, southwest, North, America, Mexico, Mojave, Sonoran, Chihuahuan</rdf:li>
                </rdf:Bag>
                </dc:subject>
                <dc:coverage></dc:coverage>
                <dc:description>Illustration of Larrea tridentata (Creosote Bush)</dc:description>
                <dc:contributor>
                <cc:Agent>
                    <dc:title></dc:title>
                </cc:Agent>
                </dc:contributor>
            </cc:Work>
            <cc:License
                rdf:about="http://creativecommons.org/licenses/by-sa/3.0/">
                <cc:permits
                rdf:resource="http://creativecommons.org/ns#Reproduction" />
                <cc:permits
                rdf:resource="http://creativecommons.org/ns#Distribution" />
                <cc:requires
                rdf:resource="http://creativecommons.org/ns#Notice" />
                <cc:requires
                rdf:resource="http://creativecommons.org/ns#Attribution" />
                <cc:permits
                rdf:resource="http://creativecommons.org/ns#DerivativeWorks" />
                <cc:requires
                rdf:resource="http://creativecommons.org/ns#ShareAlike" />
            </cc:License>
            </rdf:RDF>
            </metadata>
            
 <defs></defs>
 <linearGradient id="ian_symbols_bf49a683b209d0e429adc737110b606f" y2="79.476" gradientUnits="userSpaceOnUse" x2="285.37" y1="165.4" x1="285.37">
  <stop stop-color="#836C2B" offset="0"/>
  <stop stop-color="#8B7330" offset=".2694"/>
  <stop stop-color="#A28743" offset=".7201"/>
  <stop stop-color="#B49854" offset="1"/>
 </linearGradient>
 <path opacity=".82" d="m354.4 124.1c-2.456-.184-5.674 3.206-6.37 5.575-1.415 4.671 2.068 6.551-2.913 8.181-4.079 1.337-5.212-1.704-8.216-2.672-2.839-.914-6.54.62-8.013-2.844-4.567.89-3.436-3.174-.957-5.041-4.371-3.023-5.132-3.132-9.13-1.167-2.851 1.401-4.913 4.815-7.928.468-2.462 1.01-4.025 3.249-3.505 6.085-2.887.16-5.019-2.249-7.73-2.477-3.09-.253-4.786 1.696-7.237 2.695-5.524 2.239-7.976-.675-13.346-.675-7.455-.021-6.301 5.542-8.3 10.857-1.696 4.442-5.695 8.656-10.199 5.386.112-1.563-.281-3.347-.159-4.921-5.812-1.672-5.663 6.378-5.87 10.02-3.164.941-6.38-1.526-8.354-3.914-4.142 2.879-.34 7.258-2.329 10.635-1.638 2.807-6.966 1.255-8.896 5-2.509.152-5.163.152-7.651 0-1.334-1.489-8.582-8.592-8.481-2.031-4.198.261-12.923-9.735-12.575-14.114 2.837.16 5.607 1.542 8.574 1.377-.316-6.91-3.403-7.92-6.248-13.678 2.021-1.781 5.407-1.087 4.368-5.017-3.9-1.13-5.793-4.652-3.812-8.252 1.93-3.515 5.646-3.105 8.523-5.062 2.339-1.576 5.838-4.682 6.62-7.173 1.563-4.953-1.292-6.896 4.902-8.146 4.376-.869 6.365-.619 10.278-2.411 3.658-1.675 6.455-1.5 10.757-1.665 4.53-.17 6.189-1.066 9.299-4.586 2.239-2.507 2.866-5.389 5.472-7.529.654-.521 2.238-.175 2.851-.63.473-.359 1.69-1.867 1.93-2.05 1.542-1.056 2.153-2.241 4.408-3.047 4.589-1.597 10.278-1.018 15.212-1.51 4.286-.409 8.279-1.008 10.608 3.164.845 1.552.542 4.921 1.696 5.878 1.542 1.294 4.759.598 6.651.718.276 5.322-1.005 8.149 3.408 11.257 4.498 3.15 5.126 1.207 8.539-2.032 2.803-2.642 5.632-3.304 8.562-6.391 3.504-3.671 5.046-5.357 10.32-4.889.048 1.792.091 3.672.154 5.458.133-.038 1.181-.014 1.329 0 2.323-7.838 6.211-10.89 14.187-5.937.111 2.454.026 5.009.154 7.465 3.759.729 4.822 1.912 9.124 1.672.261 5.198 2.196 24.807-5.216 24.991-.064.87-.58 1.467-.654 2.39-.606.101-1.298-.074-1.882.064" fill="url(#ian_symbols_bf49a683b209d0e429adc737110b606f)"/>
 <radialGradient id="ian_symbols_453095edd49183d415b4e0922d1e4260" gradientUnits="userSpaceOnUse" cy="182.14" cx="100.39" gradientTransform="matrix(1.1043 0 0 1.0657 -9.5969 -10.956)" r="29.917">
  <stop stop-color="#836C2B" offset="0"/>
  <stop stop-color="#8F7633" offset=".3252"/>
  <stop stop-color="#B09550" offset=".9386"/>
  <stop stop-color="#B49854" offset="1"/>
 </radialGradient>
 <path opacity=".8" d="m81.24 154.16c-5.509.697-1.13 6.828-.947 9.616.295 4.347-2.042 3.786-6.583 6.107-4.945 2.544-4.977 4.121-5.173 9.824-.106 3.129-2.38 9.042-.13 11.376 3.706 3.868 9.159-.282 12.833-.13 5.04.194 5.234 4.421 10.073 6.237 4.224 1.574 7.561-1.218 11.647.287 8.026 2.961-.925 3.807-2.542 5.828-4.847 6.019 9.659 12.033 13.766 10.756 4.823-1.504 2.14-5.445 5.801-7.699 3.671-2.228 10.31 1.834 13.57 2.398 1.704-3.323 2.512-11.496-.291-14.375-3.969-4.115-12.865 1.242-15.64-2.278-2.303-2.914 3.772-10.278 2.153-14.835-1.989-5.562-8.029-4.618-12.506-2.749-2.784-6.734 1.954-13.006-4.313-18.424-4.182-3.621-12.984-4.259-18.536-3.969l-3.184 2.02z" fill="url(#ian_symbols_453095edd49183d415b4e0922d1e4260)"/>
 <linearGradient id="ian_symbols_4bd764c994c1299419d41d6493af84a4" y2="52.894" gradientUnits="userSpaceOnUse" x2="314.49" y1="199.57" x1="314.49">
  <stop stop-color="#0A0A0A" offset="0"/>
  <stop stop-color="#B4A29E" offset="1"/>
 </linearGradient>
 <polygon points="287.18 195.1 288.62 190.47 290.52 187.11 294.85 183.27 296.76 177.04 300.61 172.73 301.06 170.59 301.56 168.42 302.52 165.54 305.86 163.15 304.43 158.82 300.61 155.96 296.76 150.68 293.39 145.88 292.94 142.54 289.57 140.14 286.22 139.18 281.42 135.33 278.55 131.03 275.68 123.85 273.75 120.48 272.32 115.2 268.95 111.38 264.65 107.55 260.81 97.465 267.51 107.55 271.36 111.85 274.23 115.2 276.16 107.55 279.51 101.31 283.34 95.086 284.79 89.325 289.57 82.133 291 76.855 291 73.027 286.22 66.314 288.62 60.08 290.52 58.166 292.46 56.251 297.72 52.894 290.52 60.566 289.57 62.957 288.62 65.846 292.46 71.108 293.39 74.466 292.94 77.821 291.96 81.165 290.52 85.493 288.62 88.359 286.7 90.284 285.72 93.153 284.79 97.465 282.85 99.387 280.94 102.27 279.99 105.14 278.07 108.49 277.12 112.33 276.16 116.17 276.64 118.57 277.12 122.39 278.55 125.75 279.99 129.1 282.85 132.46 285.27 135.33 288.62 136.78 291.96 138.69 294.85 141.09 295.8 145.4 298.67 149.72 303 154.51 305.86 157.39 307.98 155.88 309.21 154.99 314.5 153.57 321.21 151.63 325.51 151.63 331.27 152.12 337.51 156.43 343.27 159.32 348.05 162.67 350.54 163.9 351.9 164.57 354.76 168.89 357.39 170.73 359.55 172.25 363.86 174.66 368.17 177.04 361.45 175.61 353.8 170.33 350.92 167.92 348.53 165.06 343.74 162.18 340.38 159.79 336.07 157.39 333.21 154.99 328.4 153.24 325.06 153.57 320.25 153.57 316.41 154.99 312.58 155.96 309.21 157.87 307.78 159.79 307.3 162.18 307.78 164.57 304.43 166.97 303.46 170.33 302.52 173.68 301.06 176.09 299.18 178.48 298.67 181.36 297.72 184.23 295.33 187.58 292.46 189.03 290.52 191.9 289.09 199.57" fill="url(#ian_symbols_4bd764c994c1299419d41d6493af84a4)"/>
 <linearGradient id="ian_symbols_d9a997b239e08524dd9fd63a9b0e4426" y2="47.776" gradientUnits="userSpaceOnUse" x2="277.91" y1="379.8" x1="277.91">
  <stop stop-color="#0A0A0A" offset="0"/>
  <stop stop-color="#533E45" offset=".6685"/>
  <stop stop-color="#B4A29E" offset="1"/>
 </linearGradient>
 <polygon points="298.04 377.89 296.13 379.17 293.57 379.8 291.96 379.8 290.05 379.5 288.46 375.95 288.46 370.87 288.46 367.65 288.76 364.13 289.09 359.35 288.76 355.2 288.14 351.99 287.83 347.53 287.18 344.66 287.18 341.47 287.18 338.9 286.22 336.02 285.27 331.56 284.31 326.1 284.31 321 283.98 316.52 283.66 312.37 281.42 308.22 280.79 304.4 280.46 300.54 280.46 297.98 281.09 293.83 282.7 288.4 282.7 285.2 282.7 281.38 282.37 277.86 280.79 274.34 279.18 271.8 278.85 267.95 278.23 264.13 277.57 261.24 277.57 259.01 276.94 256.14 274.38 252.63 272.16 249.75 269.27 247.51 266.41 244.63 264.47 241.75 261.93 238.88 260.97 236.32 260.01 233.44 259.05 230.25 257.77 227.38 255.54 224.49 253.3 221.62 251.07 217.46 248.5 213.63 245.96 210.44 244.04 206.92 242.76 204.04 241.16 200.2 238.6 197.66 235.73 195.1 231.57 190.95 228.38 187.11 225.19 184.55 222.3 180.4 219.43 177.2 216.55 173.04 213.36 170.49 210.47 168.26 206.32 164.09 200.89 159.64 197.07 154.84 193.22 151.32 188.75 148.12 184.92 145.57 182.04 143.96 178.84 141.41 176.29 137.89 174.7 134.7 173.41 131.19 171.19 127.67 168.61 124.16 164.14 121.28 151.69 105.3 165.11 120.64 167.67 121.91 169.58 123.51 170.53 125.12 172.44 118.4 173.51 117.78 176.29 116.17 175.64 113.92 175.64 110.09 177.25 105.93 176.61 112.64 177.56 114.88 177.56 116.81 174.04 119.36 173.09 120.64 172.13 125.12 173.09 127.67 174.38 129.9 175.64 132.79 176.61 135.67 177.89 138.21 180.11 140.45 183 142.69 188.43 145.88 192.59 149.08 196.1 151.63 198.66 154.19 201.22 157.71 204.73 160.9 209.2 164.42 211.77 166.97 213.68 168.89 216.87 171.45 216.55 167.6 215.91 162.83 215.91 158.34 215.91 154.51 215.28 151.32 216.23 147.48 214.31 124.48 217.5 148.12 216.87 150.05 216.87 152.6 217.19 154.84 216.87 157.39 216.55 160.9 217.19 163.46 217.83 167.29 218.15 170.17 218.78 173.04 220.38 175.28 221.98 177.52 223.9 179.76 223.66 176.97 223.58 176.24 222.61 172.09 222.61 168.58 222.61 164.42 225.19 160.9 225.19 155.46 226.14 151.32 226.78 146.2 226.78 140.45 226.78 137.89 227.75 149.39 227.1 152.27 226.78 154.19 226.46 157.07 226.78 160.9 224.22 165.06 224.22 168.58 223.58 171.78 224.22 174.66 224.86 177.52 226.14 181.03 227.42 183.91 230.29 187.11 232.85 189.03 235.73 192.23 239.56 195.42 240.19 196.38 239.88 192.55 238.92 189.03 239.24 182.64 239.24 180.07 237.65 175.93 237.65 173.04 237.65 170.81 237 167.92 237.96 164.74 237 162.51 235.41 160.9 233.17 158.67 232.22 156.43 232.22 153.24 233.17 148.12 234.13 144.29 234.45 140.45 235.08 137.26 236.36 134.7 237.65 132.79 239.88 130.55 241.48 129.27 241.48 126.08 240.53 122.88 240.84 118.72 242.44 114.88 244.35 111.38 247.23 108.81 250.73 98.592 249.15 108.18 247.23 110.73 244.99 112.97 242.76 117.45 242.44 120.64 242.44 122.56 242.76 125.12 243.07 127.99 243.07 130.24 240.19 132.79 237.96 135.33 236.68 137.89 235.73 140.78 235.73 142.69 235.41 145.57 234.45 148.44 233.81 151.32 233.17 153.88 234.13 156.76 236.06 158.99 237.33 159.95 237.33 157.71 237.33 154.84 237.33 151.32 237.33 148.76 237 146.85 236.36 145.24 233.17 138.52 230.93 136.63 228.7 134.38 227.1 131.51 226.46 129.58 227.75 126.39 229.98 124.16 231.57 121.28 233.17 118.4 236.06 115.84 232.52 112 229.65 107.86 227.1 105.3 225.49 101.48 226.14 98.909 226.46 95.716 227.75 92.196 228.38 87.405 231.26 82.288 229.01 88.687 229.33 91.566 228.7 93.478 227.75 95.716 227.42 98.592 226.78 101.48 228.05 104.02 229.98 106.26 231.88 107.86 233.81 110.42 236.68 112.64 237.96 115.2 236.36 118.08 234.77 119.69 233.49 121.28 232.22 123.85 230.61 126.08 229.33 127.99 229.01 130.24 229.98 132.79 232.22 135.33 234.13 136.63 237.33 140.45 238.28 143.01 239.24 146.2 238.92 149.72 239.24 153.57 239.24 157.71 239.24 161.54 239.56 164.09 239.24 166.97 239.24 169.54 239.56 171.78 239.56 174.97 241.16 177.52 241.48 179.45 240.84 184.23 240.84 186.78 241.8 189.98 242.11 192.86 242.44 195.75 243.07 198.61 245.63 202.13 246.92 205.64 247.86 208.52 249.47 210.44 251.7 213.31 254.58 217.79 256.18 220.98 258.74 224.49 260.65 227.69 262.57 230.25 263.84 233.76 264.47 236.64 266.08 239.51 267.99 241.43 269.93 244 272.16 245.9 275.03 248.46 276.31 250.7 277.57 242.39 277.92 238.56 279.83 236.97 280.46 231.21 281.42 227.69 281.75 224.49 284.61 213.63 285.27 209.48 287.18 203.72 287.18 199.57 284.94 194.78 282.37 189.03 281.42 183.27 281.75 177.2 282.37 172.73 280.46 169.54 280.46 165.37 282.37 157.07 282.37 152.92 281.09 145.57 282.37 139.81 282.37 145.57 282.7 148.44 283.34 153.57 283.66 156.43 283.03 159.95 282.37 163.46 282.37 166.97 282.7 169.54 284.61 172.73 283.98 175.28 283.66 179.13 283.66 182.96 283.34 185.83 284.31 189.34 285.58 192.55 287.18 195.1 288.76 197.66 289.42 200.85 288.76 204.04 287.48 207.56 286.86 211.4 286.22 214.92 285.58 218.11 284.31 222.57 283.66 227.06 283.03 231.21 281.75 235.36 281.75 238.56 280.46 240.15 279.51 242.08 278.85 244.63 278.85 249.11 278.85 251.98 280.16 254.21 281.42 257.41 281.42 261.56 281.42 265.41 281.75 268.28 282.7 271.8 284.31 274.99 286.22 277.53 286.53 282.33 286.22 286.82 286.22 290.96 284.94 295.12 284.61 298.97 284.61 303.42 284.61 306.94 285.89 309.18 286.86 311.74 288.46 317.8 288.76 321 288.76 324.84 290.05 329.95 290.38 333.14 290.7 335.71 291.66 342.1 291.96 344.01 292.28 338.28 291.33 333.47 292.61 329.95 294.2 324.52 294.85 319.41 295.15 315.26 296.44 312.37 297.42 308.54 299.63 303.74 301.56 298.31 305.39 291.92 308.26 287.44 310.52 284.25 314.65 281.38 317.82 278.42 319.12 277.19 319.78 276.58 326.17 274.67 330.94 274.04 321.69 277.23 318.17 280.42 316.25 282.02 314.35 283.62 311.78 285.54 309.85 287.75 308.26 289.68 307 291.6 306.04 294.16 304.74 296.72 303.46 298.97 301.87 301.5 301.56 304.4 300.26 307.26 298.67 311.74 297.72 315.89 297.42 319.71 296.76 322.6 296.44 325.8 295.48 328.34 294.85 332.19 294.2 334.43 293.9 336.34 294.52 337.95 295.15 340.81 296.44 332.52 297.07 328.67 298.67 320.37 299.96 313 296.76 304.72 295.8 301.2 295.48 298.31 296.44 292.55 296.76 287.75 295.15 279.47 292.94 275.29 291.96 273.38 291.66 271.15 290.7 268.6 290.7 264.76 290.7 260.28 291.66 256.78 291.66 252.94 290.05 249.75 290.05 245.9 290.05 242.08 290.05 241.43 287.83 235.68 284.94 229.61 290.7 239.2 291.66 244 291.66 246.23 291.96 249.11 292.94 250.7 292.94 239.51 292.28 235.36 291.96 231.53 291.96 226.74 292.09 225.64 292.61 220.98 293.19 219.35 294.52 215.55 295.9 211.46 296.76 208.85 298.67 201.49 298.37 206.6 297.72 211.4 296.13 214.92 294.52 219.69 293.57 223.54 292.94 228.65 292.94 232.17 293.24 234.73 293.9 236.64 294.52 238.56 294.52 240.8 294.52 242.39 294.52 244.94 294.52 247.51 294.2 249.75 293.57 252.94 293.24 256.78 292.61 261.89 291.96 265.41 292.61 268.28 293.9 271.8 295.48 275.62 297.07 277.86 298.04 281.38 298.67 285.2 299.33 288.1 298.67 293.2 298.04 297.35 298.67 299.91 298.37 302.16 301.56 308.22 302.2 309.18 304.1 305.98 305.72 302.79 307.62 300.54 308.26 297.35 308.26 294.48 308.26 292.9 305.39 286.16 304.43 282.97 304.43 280.1 304.1 277.86 304.1 273.71 304.74 269.24 305.72 265.71 307 260.93 308.58 258.37 310.17 255.17 310.83 251.65 311.78 248.78 313.06 244.94 313.06 241.75 312.74 237.92 312.74 234.4 313.71 229.93 314.02 225.14 314.35 220.34 314.97 215.87 315.93 212.67 315.93 207.56 316.58 203.4 316.89 198.3 316.89 193.81 316.58 188.72 316.58 185.83 316.89 179.13 317.21 173.04 316.58 168.26 317.54 163.46 320.41 158.67 322.01 155.15 322.64 150.05 322.64 147.81 324.56 141.72 325.51 136.63 324.25 135.02 324.56 124.48 325.51 134.06 326.8 136.3 326.17 139.49 325.21 143.01 324.25 146.52 323.92 148.76 323.62 152.27 323.92 153.57 322.95 156.43 321.69 159.32 319.78 163.46 318.49 166.33 318.17 169.85 319.15 171.78 318.82 175.28 318.49 179.45 318.49 183.27 318.49 186.15 318.49 189.03 319.15 195.1 321.36 190.62 321.06 186.78 321.69 182.32 322.64 178.82 322.64 176.88 322.64 173.68 323.62 169.54 324.25 166.02 325.21 163.46 326.8 160.9 328.71 157.07 328.4 153.24 327.75 149.72 328.71 145.24 331.27 139.18 334.16 135.33 338.31 129.58 340.86 124.8 344.05 116.17 340.53 128.3 337.66 132.79 334.46 137.26 332.86 140.14 330.94 142.69 330.32 146.2 329.69 149.08 329.99 151.32 330.32 153.88 330.32 156.76 329.03 160.27 327.12 164.09 325.84 167.29 324.88 170.17 324.88 173.04 324.88 177.2 323.92 180.72 323.3 183.6 322.95 185.83 322.95 189.67 322.95 193.18 321.36 196.05 320.1 198.61 319.45 201.81 319.15 205.33 319.15 208.85 318.82 212.67 317.84 216.5 317.21 219.38 316.89 222.88 316.89 227.06 315.93 231.84 315.3 235.36 315.63 238.56 315.93 241.75 315.93 244.94 315.3 247.51 314.02 251.65 313.13 255.21 313.06 255.48 311.78 259.01 310.17 261.56 309.58 263.08 308.91 264.76 307.3 267.32 307.3 270.84 307.3 273.08 307.3 275.29 307.3 278.51 307.62 281.71 309.21 283.92 309.85 280.1 310.17 275.62 309.85 271.8 310.17 266.69 311.47 262.85 313.71 257.09 315.63 251.02 318.17 245.59 319.15 240.8 319.78 235.36 320.41 230.57 321.69 225.76 323.92 221.94 325.84 218.43 326.8 213.63 327.44 210.44 329.99 206.6 330.64 202.13 333.51 199.88 335.42 197.01 337.98 191.9 335.42 199.88 333.51 201.81 331.92 203.08 331.92 205.02 331.59 207.89 329.99 210.44 329.03 212.03 328.08 216.18 330.64 213.63 334.16 209.48 335.75 205.96 337.98 202.45 341.18 198.3 343.09 191.9 346.61 185.83 348.86 181.03 348.86 177.52 350.76 174 353.33 168.89 356.82 163.78 359.72 158.99 361.3 155.46 361.3 152.92 359.09 148.44 357.8 143.33 357.15 138.21 357.48 133.74 358.44 128.3 360.34 123.85 362.29 119.69 362.29 116.49 362.29 113.29 369.3 96.673 369.93 91.566 375.36 80.048 371.22 92.523 370.89 93.791 370.59 96.032 369.63 99.225 368.02 103.7 366.41 106.58 364.82 109.78 363.86 112.97 363.86 115.2 363.86 116.81 367.38 110.09 370.26 102.74 371.84 98.271 368.67 91.241 366.11 88.359 365.15 84.537 364.82 79.418 365.48 70.781 368 65.52 369 63.436 371.84 57.36 377.93 47.776 371.54 59.599 370.26 63.436 368.34 67.91 367.07 70.151 366.41 73.344 366.41 75.909 366.41 79.732 366.74 84.209 368.02 87.091 369.3 89.013 372.5 93.478 372.82 96.032 373.15 98.909 372.19 103.05 370.89 106.58 368.02 112.64 366.11 117.13 364.19 120 362.91 123.2 361.3 126.7 360.04 130.86 359.09 134.7 358.76 138.21 359.09 141.72 359.72 143.96 360.04 146.52 361.96 148.44 363.56 151 366.74 150.05 369.93 147.81 373.15 143.96 377.62 140.78 379.51 139.18 381.43 135.67 386.24 132.79 388.8 128.63 391.99 126.08 394.04 122.41 395.18 120.32 398.37 113.61 399.96 109.68 400.29 108.81 403.18 104.02 402.2 99.225 399.99 94.107 395.51 89.958 389.77 85.493 383.03 82.288 380.49 81.33 393.26 86.448 398.07 89.958 401.57 93.791 402.53 96.673 403.51 98.592 404.13 101.48 404.13 104.67 402.86 107.22 401.27 111.38 398.7 116.17 394.88 124.48 393.59 126.39 390.4 128.94 387.81 133.43 383.03 136.3 381.12 138.84 379.86 140.78 377.62 143.33 375.36 144.29 373.78 146.2 371.84 148.44 369.3 150.68 366.11 152.27 363.86 153.57 363.24 155.78 362.59 158.67 360.34 161.21 358.11 165.37 356.2 167.92 353.96 171.45 353 174.66 351.42 177.2 350.76 180.72 350.13 183.27 348.53 186.78 346.31 190.62 344.05 193.81 343.09 196.05 343.09 198.93 341.83 201.17 340.53 202.77 338.61 205.02 336.7 207.89 335.75 210.75 333.21 212.99 331.92 215.55 329.99 218.11 328.08 220.34 326.17 223.86 325.21 227.69 323.62 233.12 323.3 237.61 322.64 241.12 321.36 245.9 320.41 249.42 318.17 253.58 315.93 258.04 314.35 261.56 313.71 266.04 313.71 270.84 313.06 274.34 313.06 277.86 313.06 287.12 311.78 290.01 311.14 292.9 311.14 295.76 311.14 298.97 309.54 302.16 307.96 305.05 305.72 308.87 304.74 312.7 303.78 315.56 303.46 318.76 302.82 322.6 302.2 327.08 301.24 329.62 300.61 333.77 300.61 336.97 299.33 342.1 298.67 346.9 299 352.31 298.04 357.11 298.04 361.59 298.04 365.42 298.37 370.87" fill="url(#ian_symbols_d9a997b239e08524dd9fd63a9b0e4426)"/>
 <linearGradient id="ian_symbols_a4896ef45d2baa84a1d63c3e61111eb5" y2="149.08" gradientUnits="userSpaceOnUse" x2="182.84" y1="385.23" x1="182.84">
  <stop stop-color="#0A0A0A" offset="0"/>
  <stop stop-color="#533E45" offset="1"/>
 </linearGradient>
 <polygon points="281.42 382.37 272.47 367.65 266.41 355.5 262.88 348.79 260.97 343.69 257.13 337.95 253.3 334.1 248.83 329.95 245.31 327.39 241.16 324.84 237.96 323.56 235.73 321.96 233.81 319.08 233.17 317.5 231.57 315.89 229.01 314.3 226.78 313.33 224.54 310.13 221.98 306.94 218.47 304.4 215.6 302.16 212.08 298.64 209.53 294.79 205.69 293.2 202.5 291.29 199.62 288.4 196.42 286.49 195.47 283.92 194.5 282.02 193.22 280.1 190.99 276.58 186.83 273.71 182.04 270.19 177.89 266.99 174.38 264.13 171.82 261.89 170.53 259.33 168.3 257.09 166.37 252.94 163.83 250.39 160.95 250.07 155.83 247.51 152.95 245.26 147.52 239.2 143.37 234.73 140.81 231.53 138.25 228.96 135.71 227.06 132.51 223.54 127.71 218.43 123.25 212.67 118.13 207.56 115.26 203.4 112.05 199.25 109.5 197.66 105.66 196.69 101.52 195.42 96.721 195.75 90.962 192.55 84.25 189.98 79.142 187.75 75.306 184.87 70.839 181.03 66.365 178.82 62.845 175.28 61.245 153.88 64.116 175.28 67.636 178.15 72.102 180.4 78.177 185.52 83.295 188.06 90.962 190.62 96.083 193.81 100.86 193.81 106.3 195.42 110.46 195.75 104.71 186.78 96.083 185.52 90.962 182 97.037 184.23 103.11 184.55 101.83 182.64 97.994 181.36 95.756 178.82 94.799 175.93 94.799 173.36 94.799 169.22 96.394 176.24 97.994 179.13 100.23 180.4 103.43 180.72 104.38 182.96 107.59 187.75 110.77 192.55 111.73 194.78 113.33 193.18 113.96 189.67 113.66 187.75 114.61 185.52 115.56 182.96 115.56 180.72 116.22 177.84 116.22 175.61 114.61 171.78 113.96 165.37 114.3 160.9 116.22 172.73 117.49 175.61 117.81 178.15 117.49 180.4 117.17 182.64 116.53 185.2 115.26 187.42 115.56 189.34 115.26 191.26 114.93 193.49 113.96 194.78 113.66 196.38 114.3 198.93 115.9 201.49 117.81 204.04 119.74 206.6 121.96 208.52 123.88 210.75 125.81 213.31 127.71 215.55 129.95 218.43 131.55 220.02 134.11 222.26 134.11 217.46 133.78 213.94 132.19 210.44 131.22 205.33 131.22 201.49 131.22 197.34 133.15 191.26 135.07 185.2 137.29 180.72 138.25 175.61 137.29 171.12 135.54 167.35 135.07 166.33 132.83 161.21 132.67 160.07 132.58 159.41 132.51 158.99 133.78 149.08 133.78 157.39 134.11 160.58 135.39 163.78 136.65 167.29 138.9 171.45 139.54 174.97 138.9 179.45 137.62 182.64 136.02 186.46 135.07 189.03 133.78 194.14 132.51 198.93 133.15 204.04 133.15 207.56 133.78 210.75 135.71 212.67 135.71 222.26 137.62 224.82 139.86 228.01 143.05 230.9 145.92 234.09 148.8 236.97 151.69 241.12 155.2 244.31 158.08 246.23 161.26 247.51 164.78 247.82 166.07 243.68 167.02 238.88 168.61 235.36 169.58 223.22 169.58 236 168.61 239.51 167.98 242.72 167.02 246.23 167.02 248.78 167.02 251.33 168.61 252.94 169.9 255.82 171.82 258.04 173.74 260.93 176.61 263.47 180.44 266.04 183.64 268.28 186.83 270.51 189.39 272.43 191.62 274.04 193.22 275.95 194.5 277.86 193.86 273.38 193.56 270.19 190.99 266.99 189.7 264.76 188.75 261.56 188.11 258.69 188.11 252.63 188.11 248.14 186.19 242.72 188.11 236.97 188.43 232.48 189.07 226.09 190.66 219.69 190.78 219.15 191.62 214.92 192.9 207.56 195.14 201.49 194.18 196.69 196.1 203.08 195.14 206.28 193.56 209.16 193.56 214.28 192.59 218.11 192.27 220.98 190.99 224.82 190.66 228.01 190.02 231.84 189.7 234.4 189.7 237.28 188.75 240.15 188.75 243.35 189.39 245.26 190.02 247.51 190.35 251.65 190.66 255.48 191.96 251.65 194.5 249.42 197.7 247.51 200.58 245.9 203.77 245.9 204.4 243.68 206.96 237.92 209.2 234.73 211.77 231.53 215.28 228.96 221.02 225.76 222.3 223.86 222.3 220.67 222.95 215.87 224.54 210.75 226.78 208.52 229.33 206.28 229.58 206.07 232.85 203.4 235.08 200.52 231.88 205.64 228.7 208.52 226.46 210.75 225.19 213.63 224.54 217.15 223.9 220.98 223.9 223.22 223.9 225.14 222.3 227.06 218.47 229.29 216.87 230.25 214.65 231.53 212.4 233.76 210.17 236.32 208.56 239.2 207.92 241.75 206.32 244.63 205.69 246.88 204.1 247.82 202.17 247.82 199.93 248.46 197.07 250.7 195.14 253.26 193.22 255.82 191.96 258.37 191.31 260.93 191.62 263.17 192.59 265.41 194.5 267.65 195.47 269.89 196.1 272.76 196.1 275.62 196.42 278.51 197.07 281.38 198.66 284.57 202.5 286.16 205.05 288.72 207.92 290.34 211.43 291.29 212.08 293.2 213.99 295.76 217.19 299.28 221.02 302.49 223.58 304.4 225.81 306.94 229.01 309.81 232.85 312.37 235.41 314.61 236.68 317.8 237.96 319.41 241.48 321.64 244.67 322.93 248.5 325.16 251.7 327.39 256.18 332.82 251.38 324.84 249.47 320.37 245.63 314.93 241.16 309.5 235.41 303.42 231.26 299.28 226.78 295.45 222.3 291.92 218.47 286.49 214.95 281.38 212.4 279.14 210.8 276.58 210.47 274.34 208.25 272.76 206.96 271.8 204.4 270.51 202.17 269.24 199.3 269.24 195.79 266.99 194.18 264.45 192.9 262.52 185.89 251.02 183.64 249.42 179.81 247.51 176.92 245.9 174.7 244.31 173.09 241.75 171.82 239.82 166.37 236.97 162.87 236 160.31 235.68 157.75 235.68 157.43 222.88 159.35 233.76 165.42 234.73 164.47 228.96 165.11 224.18 165.42 218.74 165.42 216.5 164.14 212.67 160.64 210.44 152.64 208.2 159.35 208.52 156.47 198.93 161.26 208.85 163.19 209.79 165.74 212.36 170.57 208.95 171.19 208.52 180.77 207.24 170.84 210.75 167.34 213.63 166.71 215.24 166.71 219.06 166.71 222.57 166.37 226.42 166.37 230.25 167.02 233.44 171.5 237.28 174.04 239.2 176.29 242.72 178.84 244.94 182.68 246.88 185.89 248.78 193.56 260.61 195.47 262.85 197.7 265.41 200.89 266.37 206.32 268.28 209.53 269.24 211.43 271.8 213.99 275.95 214.65 278.19 216.87 279.77 220.07 282.02 221.02 284.25 222.61 286.82 224.86 289.68 227.75 292.9 230.93 294.79 233.49 297.02 235.73 298.31 239.56 303.11 242.76 306.61 246.59 310.46 249.15 313.65 252.03 317.8 255.22 321.64 256.82 325.16 258.1 328.34 260.01 332.82 261.93 337.29 264.82 341.77 267.67 345.29 268.64 347.53 268.64 341.77 266.73 337.62 264.17 334.43 262.57 330.27 260.65 325.48 259.7 321.64 258.4 317.5 255.54 312.7 253.95 309.5 251.38 305.68 248.83 301.5 247.23 298.64 245.31 291.92 244.67 288.4 242.76 284.57 240.53 282.66 237 280.42 235.73 277.53 233.49 274.34 230.61 270.84 226.14 267.65 222.3 264.45 218.78 260.61 215.91 257.41 213.99 256.45 213.68 253.9 211.77 250.39 208.88 246.55 213.99 250.7 215.28 255.48 219.1 258.69 221.34 261.56 224.86 264.45 227.42 266.04 230.29 268.28 233.17 270.51 235.08 273.08 237 275.62 237.96 278.51 237.96 273.71 236.36 267.65 235.41 263.17 234.13 258.69 233.17 254.54 232.85 250.7 234.13 248.78 236.06 244 232.85 236.97 229.65 225.45 226.78 214.6 232.22 229.29 234.13 236.32 235.73 238.88 237.33 242.72 237.65 245.26 236.36 248.78 235.08 252.3 235.73 255.82 236.68 260.28 237.65 263.8 238.92 267.32 239.56 271.15 239.56 275.62 239.88 278.19 242.11 280.42 245.31 282.97 247.23 287.12 248.5 291.6 249.47 295.45 250.1 298.97 251.7 300.54 252.67 302.16 253.95 304.4 252.34 295.76 249.15 286.49 246.92 280.1 244.67 272.76 243.4 267.65 241.8 260.93 241.8 255.17 241.8 248.78 241.8 242.72 241.16 235.68 240.53 232.17 237.65 227.69 236.24 221.48 236.06 220.67 234.45 213.63 233.81 208.2 237.65 221.3 238.6 224.82 238.92 227.38 241.48 230.57 241.48 225.76 241.48 222.26 239.88 216.5 237 208.52 237 203.72 238.92 210.44 241.48 217.15 242.76 221.62 243.07 223.86 242.76 227.69 243.07 231.21 243.07 234.09 243.4 239.2 243.71 243.68 244.04 247.82 244.35 253.58 244.35 258.69 244.99 262.52 246.26 266.37 247.23 270.84 248.19 274.34 248.83 277.23 249.47 280.42 251.38 285.2 252.99 289.68 255.22 294.16 255.86 297.68 256.5 302.16 257.47 306.31 258.74 310.13 260.01 312.7 260.97 316.52 262.88 320.37 265.12 324.84 266.08 329 267.05 332.82 269.93 335.71 272.16 339.21 273.12 342.73 274.08 346.58 274.38 351.68 275.36 355.2 277.57 360.3 280.79 364.46 282.05 367.98 281.09 360.3 280.79 352.96 280.79 348.48 280.46 344.01 281.09 339.86 280.46 338.58 278.23 335.71 276.94 332.19 275.36 329.32 273.45 326.1 271.51 321.96 270.88 320.7 267.36 319.08 264.17 316.19 262.25 312.37 261.29 310.13 259.37 308.22 262.88 309.18 263.84 310.78 264.47 313 266.41 315.26 268.64 317.17 270.56 317.8 271.51 318.12 271.51 314.61 271.51 312.37 272.79 308.22 274.71 304.4 275.68 300.88 276.31 296.72 276.31 294.16 275.99 291.29 275.99 286.16 274.08 282.33 271.51 280.1 268.95 278.81 266.73 277.23 264.17 276.28 261.61 269.24 265.12 274.67 267.36 275.29 269.6 277.23 272.79 278.81 274.71 281.38 276.31 283.3 277.27 285.54 277.57 288.1 277.57 291.29 277.92 292.9 277.92 295.12 278.23 297.98 277.27 301.83 276.64 304.4 275.36 307.58 274.08 309.81 273.75 313.33 273.75 316.19 274.08 319.71 274.71 322.6 275.68 325.16 276.94 327.39 278.55 329.32 279.51 331.56 281.09 334.43 282.37 330.58 282.7 324.52 283.98 319.71 285.89 314.61 287.83 310.13 290.05 304.06 291.66 300.23 293.24 296.72 292.94 291.92 294.85 286.49 296.13 281.71 297.42 276.9 297.72 272.43 297.72 268.28 296.76 264.76 296.44 260.61 295.8 253.58 295.8 246.23 296.13 240.15 296.44 233.76 297.98 229.59 299.96 224.18 301.87 217.15 304.43 208.52 301.56 221.3 300.26 226.09 299.33 230.9 298.37 232.48 297.72 234.73 297.42 236.64 297.07 240.8 297.07 245.9 297.07 250.39 297.42 254.54 297.72 257.73 297.72 261.56 298.37 263.8 298.67 266.99 299.63 269.89 299.63 273.08 299.63 277.53 298.67 280.1 297.72 282.66 296.76 285.54 296.76 287.75 295.48 290.64 294.85 293.53 295.48 295.45 295.48 298.31 293.9 301.5 293.24 304.06 291.66 307.58 290.7 310.78 289.09 315.26 287.83 318.12 286.22 321.32 286.22 324.22 285.58 326.75 285.58 330.27 285.58 333.14 284.61 335.38 284.94 337.95 284.61 341.77 284.31 345.59 284.94 349.77 285.27 353.29 285.27 356.48 286.22 359.98 287.18 364.79 287.48 369.57 287.48 374.04 288.46 375.95 289.42 381.38 289.42 384.28 288.76 385.23 284.31 385.23 282.05 385.23" fill="url(#ian_symbols_a4896ef45d2baa84a1d63c3e61111eb5)"/>
 <radialGradient id="ian_symbols_5ba05b08dbdfdf44712abca93e7889f4" gradientUnits="userSpaceOnUse" cy="187.12" cx="261.66" gradientTransform="matrix(1.1119 0 0 1.1089 -26.26 -22.297)" r="34.296">
  <stop stop-color="#5A4218" offset=".0169"/>
  <stop stop-color="#664E1E" offset=".1703"/>
  <stop stop-color="#836C2B" offset=".5449"/>
  <stop stop-color="#B49854" offset="1"/>
 </radialGradient>
 <path opacity=".8" d="m307.32 203.8c4.152.123 10.518-.92 12.171-5.439 1.479-4.057-2.195-7.066-3.041-10.39 6.562-.67 3.302-16.223-5.413-6.963-3.76-3.64.372-15.343-9.603-12.323-3.042.936-3.111 3.196-7.04 3.214-3.196.024-7.152-.891-5.78-5.32 1.191-3.892 11.666-6.979 4.865-13.293-2.021-1.877-5.455-.835-7.891-2.757-1.781-1.391-3.147-4.607-3.956-6.708-2.169-.367-8.273-1.866-10.166-.226-2.67 2.302.675 7.269-1.872 9.847-2.866 2.93-5.626-.915-9.193.909-3.642 1.861-2.542 5.097-2.738 8.965-4.414.229-8.912-.175-13.16.707-.122 2.662-.122 5.376.372 7.811-8.816.468-7.12 2.454-5.806 9.648.165.851 1.467 2.882 1.122 3.727-.569 1.465-2.893.936-3.26 1.553-1.686 2.802-2.111 3.586-2.175 7.377-5.248-1.029-3.573 4.522-3.094 7.511.803 4.998 2.244 7.864 8.417 8.592-.25 1.415.404 3.217.154 4.631 4.727.931 10.299 2.781 15.415 1.867-1.377 5.705 7.737 3.323 11.166 3.53 6.216.373 6.195 2.829 6.322 8.954-3.169-.601-6.104 2.882-4.232 5.945 1.494 2.403 6.801 1.717 9.019 1.122.303 5.136.085 8.592 3.822 12.687 1.894 2.095 8.088 6.28 11.061 3.611 1.542-1.361 0-3.893 1.175-5.35.761-.941 4.195-2.313 5.237-2.531 3.169-.649 7.392.729 11.735.458 1.127-4.116 3.499-6.259 3.281-11.065-.177-4.052-.894-8.789-1.154-13.208-2.69-1.467-4.913.734-7.519.053-1.479-.377-4.105-2.707-5.174-3.865-3.584-3.85-3.493-8.901 2.675-10.098l4.24-3.2z" fill="url(#ian_symbols_5ba05b08dbdfdf44712abca93e7889f4)"/>
 <radialGradient id="ian_symbols_6ea0d75913bf6984c5f31dd4e5dc5941" gradientUnits="userSpaceOnUse" cy="188.52" cx="383.27" r="49.88">
  <stop stop-color="#836C2B" offset="0"/>
  <stop stop-color="#8B7430" offset=".2766"/>
  <stop stop-color="#A48945" offset=".7506"/>
  <stop stop-color="#B49854" offset="1"/>
 </radialGradient>
 <path opacity=".8" d="m323.12 195.75c-.017-9.933 5.306-11.368 12.952-12.474 6.87-.979 20.753.979 21.077-7.184 3.504-.433 9.587-1.566 12.958-.859 4.52.947 8.731.644 13.342-.172.388-3.185.781-6.543 3.78-8.694 3.323-2.39 7.284-.726 10.666-1.313 3.482-.609 5.024-2.89 9.108-2.379 2.993.356 5.413 2.053 8.039 3.467 3.632 1.943 5.478 1.584 9.715 2.281 3.478.577 5.78 2.153 9.581 2.393 6.524.431 20.063.072 12.103 9.231-1.058 1.217-2.712 1.241-3.521 2.751-.165.316.112 3.4-.303 4.442-1.175 3.021-4.232 5.389-7.343 5.628-5.344.404-3.823-3.616-8.104-5.301-4.567-1.784-8.306.088-7.758 4.759-1.808.423-3.701.673-5.604.609-.309 8.694 7.71 1.226 11.799 3.844 4.212 2.696 1.298 10.847 1.473 14.713-5.211.218-7.795-1.159-12.299-3.238.086 2.031-.09 4.259-.633 6.109-8.555 1.292-12.974-12.814-21.162-7.231-2.69 1.84-2.653 3.754-6.588 3.494-3.536-.229-6.599-2.499-5.816-6.173-4.85-.218-7.024 1.531-11.002 2.345-1.563.335-1.69-.542-3.865.803-1.59.973-2.978 2.93-3.823 4.36-3.243 1.196-12.086.883-11.522-4.185-3.254.925-12.645 2.143-11.974-3.323-2.451-.303-6.041-2.063-8.582-1.042-2 .792-2.521 3.488-4.647 4.429-2.218.978-6.435.383-7.236-2.515-1.176-4.254 1.908-2.318 3.28-3.829 1.73-1.94 1.92-2.08 1.9-5.76z" fill="url(#ian_symbols_6ea0d75913bf6984c5f31dd4e5dc5941)"/>
 <linearGradient id="ian_symbols_2564abd5a2905d34d5c05b76740b9feb" y2="154.42" gradientUnits="userSpaceOnUse" x2="470.4" y1="154.42" x1="297.61">
  <stop stop-color="#836C2B" offset="0"/>
  <stop stop-color="#8B7430" offset=".2766"/>
  <stop stop-color="#A48945" offset=".7506"/>
  <stop stop-color="#B49854" offset="1"/>
 </linearGradient>
 <path opacity=".82" d="m434.75 176.28c5.302-3.27 9.693-1.563 15.559-3.376 8.454-2.605.999-9.268 4.498-14.474 3.025-4.474 12.347-3.15 14.889-9.571 1.371-3.427.627-12.639-1.437-15.364-3.737-.264-5.343.63-7.363-3.087-1.415-2.63-.766-5.956-.915-8.891-3.913-.194-9.646-.965-13.543-.064-4.228.979-4.302 4.533-8.188 5.509-2.563.652-8.949-2.345-11.411-.162-2.674 2.366.112 8.56-.34 11.602-.855 5.578-3.834 3.773-7.812 5.958-1.712.944-1.36 2.313-3.408 3.01-2.232.768-4.126-.545-5.801-1.111-4.801-1.608-3.217-2.053-7.928.989-2.525 1.643-6.7 3.619-10.108 2.122-5.45-2.379-.175-5.237-.957-9.464-.781-4.089-6.349-5.03-3.472-9.887-4.935-2.771-10.093-3.337-14.409 1.028-1.628 1.654-2.766 4.751-4.366 5.988-2.547 2.001-5.237.97-8.306 1.786-1.525-2.417.128-5.697-1.068-7.912-1.542-2.88-6.955-3.143-9.858-1.502-1.334.739-5.396 4.801-6.194 5.868-2.132 2.872-.33 4.796-1.479 7.609-2.813 6.92-9.587-5.432-12.543 4.475-.846 2.815 1.175 4.511-.563 7.096-1.808 2.672-5.498 1.611-6.413 4.791-4.083 1.111-5.997-4.246-9.167-5.389-4.37-1.584-8.278 1.672-12.085 2.065.568 7.532-6.562 10.257-.479 16.233 2.913 2.869 4.259 3.892 8.172 4.126 1.521.077 2.979-.899 4.392-.519 3.127.867 4.408 4.387 7.211 6.032 8.63 5.041 5.546-8.794 13.691-7.51 3.28.532 3.723 3.086 7.322 3.499 3.604.377 4.87-1.869 8.172 1.066-.127 1.532.282 3.292.128 4.833 3.695.226 9.023-.936 12.501.566 3.893 1.672 3.35 3.257 8.406 3.485 6.807.313 10.39-.008 15.196-4.847 1.755-1.792 2.346-3.321 4.732-4.129 3.76-1.26 3.823.348 6.7-2.497 1.473-1.489 1.84-4.097 4.099-4.846 3.09-1.042 5.286 1.584 7.939 2.794 5.477 2.507 13.602 4.102 19.62 3.478.191-2.512.367-6.24 3.408-6.317.091.883.219 2.013.064 2.914l2.92 1.99z" fill="url(#ian_symbols_2564abd5a2905d34d5c05b76740b9feb)"/>
 <radialGradient id="ian_symbols_961444bcee9fe164c9d86322d3443f93" gradientUnits="userSpaceOnUse" cy="153.27" cx="150.95" r="50.938">
  <stop stop-color="#836C2B" offset="0"/>
  <stop stop-color="#866F2D" offset=".2655"/>
  <stop stop-color="#917834" offset=".5398"/>
  <stop stop-color="#A38944" offset=".8171"/>
  <stop stop-color="#B49854" offset="1"/>
 </radialGradient>
 <path opacity=".8" d="m159.19 188.06c-4.389.805-5.835.489-9.228-1.792-1.194-.803-1.236-2.379-2.714-3.023-1.595-.683-4.871.069-6.662-.064-1.888-4.833-12.493-10.876-10.702-1.425-2.724.383-9.874-2.55-12.038-4.116-1.729-1.26-2.358-4.022-4.185-5.041-3.259-1.773-1.728.127-4.681.726-5.685 1.13-4.881-3.313-9.704-5.413-3.228-1.369-3.999-.184-5.854-3.236-1.176-1.914-1.577-3.881-1.273-6.261 8.933.752 4.181-4.453 5.684-11.105 2-8.853 5.875.62 10.953-.542 2.279-4.421 2.018-10.31 1.986-15.263 0-2.978.404-5.399.859-8.042.141-.76-.708-2.273-.284-3.376.513-1.263 2.251-.665 2.802-1.516 1.731-2.68 6.253-9.254 11.541-5.785 2.661 1.747.827 3.635.309 5.647-.593 2.348-1.382 3.805-1.242 6.769 2.619.109 4.65.077 6.769-.782 2.087-.851 1.292-3.313 4.586-2.435.053.891.555 1.401.638 2.238 1.97.165 3.275-1.292 3.836-3.185 5.021.97 2.794-7.527 8.946-5.767-.12 1.476.247 3.161.138 4.66 4.716.25 5.66-.75 7.093 3.445 1.024 2.944.428 6.735.569 9.965 6.941-1.369 2.408 9.212 2.366 12.088-.021 1.489.306 6.524 3.74 3.23.92-.891.064-7.066.139-8.465 2.207-.096 4.14.035 6.032.534 1.989.51 1.999 2.55 4.847 1.728.258-4.926-1.337-10.086 3.432-12.92 2.531 1.507 2.225 5.638 2.946 8.127 4.801 1.443 3.551-2.946 6.649-4.728 2.499-1.433 8.018-.556 10.94-.404.242.33.056.928.165 1.319.51-.58 1.686-.873 2.214-1.319 4.347 5.078-1.117 10.879-.792 17.105 4.642-.221 4.945-.838 7.226 3.804 1.675 3.432 2.14 6.625 1.404 11.092.486-.032.757-.34 1.215-.391-2.175 2.549-7.747.556-7.117 5.16-2.97.316-2.77 3.376-1.284 5.259 1.404-.173 3.01-.356 4.283-1.183-.152 2.911 2.031 1.465 2.845 3.647.601 1.654 0 4.916-.096 6.652-8.029-.404-3.985 5.487-5.748 11.028-4.227.215-7.779-.726-11.528-1.268-3.241-.46-8.117 1.084-10.823.279-3.716-1.106-4.16-3.105-8.733-3.257-3.945-.133-6.694.12-9.584-2.403h-2.9z" fill="url(#ian_symbols_961444bcee9fe164c9d86322d3443f93)"/>
 <radialGradient id="ian_symbols_7756b6d4e56e0074dd5739860c6d1c2f" gradientUnits="userSpaceOnUse" cy="79.744" cx="229.26" gradientTransform="matrix(1 0 0 1.0679 0 1.4842)" r="75.457">
  <stop stop-color="#836C2B" offset="0"/>
  <stop stop-color="#8B7330" offset=".2694"/>
  <stop stop-color="#A28743" offset=".7201"/>
  <stop stop-color="#B49854" offset="1"/>
 </radialGradient>
 <path d="m218.15 103.32c-4.661-.547-10.036 3.679-11.501 7.699-1.805 4.977-.947 7.748-6.684 8.694-1.946.313-4.39-.62-6.259.087-1.664.63-2.499 2.826-3.948 3.382-4.549 1.768-6.333-2.012-9.855 2.247-3.092 3.773-2.616 6.291-8.721 5.533-2.023-.253-4.089-2.467-5.74-2.587-2.943-.197-4.228 2.43-6.727 3.105-3.693 1.002-8.071.303-9.483-3.597-1.855-5.073 1.077-6.822-3.009-10.733-1.653-1.59-5.086-2.762-6.083-5.248-1.438-3.533 2.321-5.572 1.213-9.51-1.638-5.822-10.93-7.66-9.97-14.938.346-2.619 3.911-7.365 6.689-7.705 3.36-.398 5.847 4.251 8.662 5.128 7.736 2.468 5.085-11.06 13.819-9.116.231 4.48-2.539 13.016 3.829 11.767.345 6.923-2.297 10.943.159 17.236 9.127 6.041 3.921-7.205 3.249-10.629-.51-2.619-.563-8.223.024-10.789.638-2.77 3.02-6.683 5.27-2.467.718-3.584 3.584-5.118 6.149-.965 1.542 2.497.479 7.476.638 10.528 9.496 2.752 2.436-7.104 4.807-11.602 6.128-.189 5.875-.915 6.224-7.187 1.999-.106 4.075-.019 6.085-.151 1.643-7.465-7.702-4.214-6.553-11.693.978-6.266 7.691-6.473 7.173-13.742 2.664-1.066 5.945.412 8.571-.566 2.502-.965 3.14-4.07 6.692-4.116 3.068-.034 5.859 2.26 9.108 2.55 2.978.285 6.062-.074 9.05.088.096 1.957.021 4.02.133 5.99 2.473.056 4.647 1.215 7.051 1.683 1.574 8.356-7.051 8.834-9.518 14.266-4.259 9.364 9.289 8.574 9.183-.957.558 0 1.217-.141 1.771-.151.138-3.129-1.037-6.79 2.105-7.997 3.6-1.402 5.424 2.935 8.422 3.61 3.999.901 9.444-7.186 13.511-1.098 3.021-3.122 14.776-7.269 13.017 1.388 3.084 2.284 10.363.968 14.255 1.175.021 2.629.064 5.128.585 7.54 3.393 1.315 6.392.97 9.933.5.043-1.794.085-3.682.17-5.466 4.695-2.518 7.242-.095 11.283 1.08 4.169 1.204 7.843-.418 11.646 2.9 4.583 4.039 1.845 7.258 1.414 12.796-.261 2.967 1.451 10.618-.564 12.713-1.505 1.534-4.216-.327-5.673.609-1.675 1.076-.718 3.315-2.238 4.27-3.393 2.118-6.477-.827-8.434-3.098-.914-1.042-.866-3.162-2.238-3.735-1.973-.84-3.823 1.388-5.78 1.042-4.583-.803-3.52-5.269-6.667-7.083-3.371-1.957-9.412.955-12.89 1.019-.021.611-.153 1.284-.175 1.872-2.823 1.226-5.972.127-9.013.606-2.978.468-4.195 2.523-6.694 3.087-5.615 1.273-9.874-4.802-16.319-2.563-4.658 1.598-6.843 7.117-11.124 9.584-3.068 1.768-5.413 1.641-8.997 1.673-3.382.031-6.035 1.653-9.119 1.534l-1.89.52z" fill="url(#ian_symbols_7756b6d4e56e0074dd5739860c6d1c2f)"/>
 <linearGradient id="ian_symbols_eefb96e54602582459bf9a25c16c4553" y2="27.313" gradientUnits="userSpaceOnUse" x2="423.43" y1="27.313" x1="331.56">
  <stop stop-color="#B49854" offset=".0056"/>
  <stop stop-color="#836C2B" offset="1"/>
 </linearGradient>
 <path opacity=".8" d="m397.42 44.256c.026-6.399 0-5.646 5.285-7.659 5.822-2.228 1.979-3.781 4.668-8.279.963-1.622 3.021-1.869 4.436-2.749 3.503-2.217 1.632-1.422 6.519-1.51 2.978-.064 2.978.923 4.52-2.326.718-1.521.681-4.4.394-6.16-2.372-.194-4.802-.045-7.046.327-1.323-3.695.139-7.431-2.078-10.857-5.828.619-10.778 7.3-16.585 3.275-4.11-2.85-7.582-13.118-14.361-5.641-4.413 4.865.457 10.921-7.306 14.277-3.063 1.302-7.062 1.675-9.954-.131-2.361-1.502-3.366-5.849-6.716-2.815-.994-3.943-2.749-7.822-8.273-5.703-4.104 1.584-2.175 6.008-5.742 7.681-1.644.792-4.382-.324-6.237.346-1.903.689-2.686 1.861-4.19 3.122-3.584 3.017-4.392 5.346-1.169 8.605.494 2.443-.356 4.64-.304 7.019 2.584-.184 2.888 1.13 4.237 1.999.431.271-.351 1.805.58 2.302.781.423 2.021-.313 2.765.101 2.042 1.074 2.521-.566 3.86 1.888.872 1.589-.866 4.642-.063 6.282 1.111 2.19 2.068 1.486 3.876 2.369 2.016.965 3.605 1.183 5.78 2.401 2.36 1.303 8.252 4.443 9.64-.401 4.068.17 6.259 1.476 8.051-2.481 1.388-3.009-.16-5.431 3.972-7.093 1.281-.51 3.195-1.031 4.674-.585 2.69.813 1.845 2.693 3.345 3.844 2.042 1.521 6.258 2.39 8.629.489l4.79-1.937z" fill="url(#ian_symbols_eefb96e54602582459bf9a25c16c4553)"/>
 <radialGradient id="ian_symbols_717f4e7a1ec26e5481734bc737109100" gradientUnits="userSpaceOnUse" cy="42.653" cx="307.61" r="50.045">
  <stop stop-color="#836C2B" offset=".0056"/>
  <stop stop-color="#8B7330" offset=".2735"/>
  <stop stop-color="#A28743" offset=".7217"/>
  <stop stop-color="#B49854" offset="1"/>
 </radialGradient>
 <path opacity=".77" d="m300.13 25.569c-4.737-.014-7.364-.62-11.384-2.512-3.105-1.465-5.759-2.356-9.236-1.324-3.02.901-5.588 3.241-8.63 3.86-3.887.813-6.279.042-9.485 3.443-1.165 1.25-.037 2.475-2.133 3.619-1.063.584-4.397.281-5.625.106-2.85-.391-6.12-2.935-8.747-2.031-3.009 1.053-3.249 5.67-1.686 8.726 1.845 3.629 5.418 3.238 8.912 3.456-1.281 9.353 9.768 1.303 13.527 6.115 1.414 1.816-.255 6.402.526 8.574.909 2.424 3.69 3.207 3.823 6.234 2.978.165 6.827-.561 9.518.556 2.584 1.09 3.893 3.161 6.609 3.943 4.126 1.186 14.404 2.642 16.973 0 2.148-2.183 1.563-5.201 4.668-6.939 3.217-1.806 5.541.335 8.651.13 3.647-.239 5.104-2.339 8.651-2.882 3.583-.555 6.582 1.566 9.991.891.09-1.837 0-3.767.127-5.594 3.695-1.489 6.742.008 10.108-2.464 1.323-.979 1.479-2.674 3.132-3.501 1.888-.936 4.302.239 6.344-.348 4.062-1.186 3.243-3.924 5.869-7.072 1.123-1.358 3.042-1.869 4.084-3.488 1.255-1.978.409-3.132 1.042-5.283 1.346-4.541 5.02-3.084 6.631-5.835 2.238-3.756-2.658-6.505-5.157-7.093-3.951-.891-8.62 1.066-12.49.045-3.76-.992-5.732-3.554-10.034-3.403-3.206.098-10.007.467-12.591 2.283-2.908 2.053-3.674 6.724-8.034 6.822-4.307.133-7.194-4.378-11.975-4.783-4.631-.377-10.432-.226-10.544 5.261l-1.43.488z" fill="url(#ian_symbols_717f4e7a1ec26e5481734bc737109100)"/>
 <path opacity=".75" d="m442.01 122.39c-3.674-1.034-7.306-2.945-11.522-2.393-4.227.532-6.837 4.129-11.011 4.805-4.61.726-6.907-2.273-10.539-4.411-4.132-2.467-7.173-2.108-11.911-2.393-.079-1.324-3.716-1.779-3.435-3.268-5.02 1.866-21.253 5.203-26.012 1.552-3.732-2.871-.048-8.507.611-12.094.415-2.084-.659-4.703-.026-6.716.681-2.095 2.243-2.858 3.44-4.801-2.568-3.086-6.673-6.55-10.523-7.747.112-1.465-.275-3.161-.175-4.618-3.685-1.056-8.168-3.509-9.513-7.258-1.09-2.921.276-3.791-1.893-6.258-1.542-1.718-4.478-2.26-6.126-3.956-1.372-1.412-3.504-4.453-2.521-6.607 1.261-2.794 3.978-1.552 6.711-.965 5.216 1.117 12.384.715 17.164 2.5.138 1.834.053 3.767.154 5.596 4.604-.133 6.912 1.117 10.975-1.481 2.547-1.63 5.301-5.618 8.608-5.65 4.493-.018 2.93 2.651 4.217 5.881.994 2.542 3.189 4.333 4.02 6.998 4.152.239 9.39.79 13.468 0 4.504-.883 7.827-3.382 12.74-1.752 2.111 5.259-.803 16.906 9.582 15.343.808 2.044.521 4.301.653 6.55 1.909.099 5.089-.486 6.731.425 2.999 1.648 1.676 2.824 2.872 5.825 4.87-.97 6.173 1.901 8.646 5.791 2.351 3.714 6.764 5.586 8.023 9.127.782 2.207.909 12.288-.324 14.027-1.893 2.629-9.565 2.882-11.171.359" fill="#BFA74E"/>
 <linearGradient id="ian_symbols_acd9bc941c906de491d0d3323cdf03a6" y2="310.78" gradientUnits="userSpaceOnUse" x2="204.08" y1="390.34" x1="204.08">
  <stop stop-color="#0A0A0A" offset="0"/>
  <stop stop-color="#533E45" offset="1"/>
 </linearGradient>
 <polygon points="272.16 388.1 265.12 382.37 259.37 379.17 255.54 377.26 250.44 376.61 246.59 376.61 239.56 377.26 234.45 379.8 230.61 380.45 228.05 380.45 220.38 375.95 228.7 378.85 232.52 378.85 234.77 377.89 237.33 376.28 241.16 375 245.31 375 250.1 374.36 242.76 373.42 240.84 372.13 230.61 362.54 241.8 371.5 243.71 372.46 245.96 372.46 242.44 368.61 238.92 365.11 228.38 360.94 225.81 359.35 223.26 359.35 220.71 358.07 217.83 355.2 214.65 354.25 203.13 355.5 217.83 353.62 219.43 354.88 222.95 358.07 225.81 357.74 229.01 360.3 239.24 364.13 229.98 349.44 202.5 341.77 182.68 335.08 175.33 335.38 159.03 332.52 158.08 330.27 151.37 321.96 134.73 314.61 131.22 310.78 152.64 321.32 159.35 329.95 160.64 331.56 175.33 334.1 182.68 333.14 203.44 340.49 228.7 346.9 230.93 348.16 241.48 364.79 243.71 365.74 243.4 367.02 248.19 370.87 250.1 371.5 252.99 373.1 256.18 374.36 259.05 375 254.26 366.7 249.78 360.94 245.31 348.48 240.19 338.58 245.31 345.92 243.07 331.56 246.92 346.58 246.92 348.79 251.38 359.98 261.93 374.69 265.77 378.52 276.64 387.48 276.94 389.4 275.03 390.34 273.12 389.4" fill="url(#ian_symbols_acd9bc941c906de491d0d3323cdf03a6)"/>
 <linearGradient id="ian_symbols_f483dad07a69399435f7cd4fc1343eb3" y2="186.15" gradientUnits="userSpaceOnUse" x2="158.71" y1="382.69" x1="158.71">
  <stop stop-color="#0A0A0A" offset="0"/>
  <stop stop-color="#533E45" offset=".7809"/>
  <stop stop-color="#B4A29E" offset=".9944"/>
 </linearGradient>
 <polygon points="276.94 380.45 274.38 375.65 271.51 370.87 270.56 367.02 267.05 363.17 263.54 359.98 257.47 357.44 251.07 354.55 243.07 350.73 239.88 348.79 237 345.92 232.85 344.01 228.05 341.47 224.54 338.58 220.71 335.38 217.19 333.47 214.31 331.56 211.77 330.27 209.53 329.62 206.65 329.62 201.53 328.67 197.7 327.39 194.82 325.8 192.59 322.93 190.66 321 188.43 319.08 184.59 317.8 180.44 316.19 175.98 314.61 173.74 312.37 169.9 310.78 167.67 309.18 165.11 305.68 162.23 302.49 158.08 300.54 153.6 297.35 148.8 293.83 144.02 291.29 140.81 287.75 137.95 285.2 133.78 282.02 128.99 279.14 123.88 275.95 119.74 272.76 115.56 269.24 110.46 265.08 105.66 263.17 102.78 261.89 97.354 259.01 92.563 257.09 87.453 253.26 84.577 252.3 82.021 249.42 78.177 244.94 72.754 242.72 68.917 241.43 63.483 237.92 61.561 236 61.245 232.81 60.593 229.29 58.998 227.69 55.489 225.14 43.036 228.65 56.14 223.54 58.052 224.18 60.29 226.74 62.518 228.65 62.845 231.53 63.161 234.73 67.636 238.24 71.799 241.12 76.26 242.39 78.829 242.72 81.383 245.59 83.943 249.11 86.488 251.02 89.051 251.65 90.324 253.26 92.879 255.17 97.037 257.09 99.276 257.73 103.43 259.97 98.938 255.17 90.962 249.42 85.214 246.55 81.383 243.03 72.102 236 66.365 230.57 61.561 225.14 51.979 215.55 46.556 208.52 39.513 196.69 35.68 186.15 45.591 204.37 51.022 212.36 57.414 218.43 64.443 225.76 69.875 231.21 73.067 234.73 76.904 237.92 84.25 244 90.324 246.88 95.442 250.39 101.52 254.85 106.63 244.31 106.94 239.2 103.43 232.17 108.23 237.61 111.41 233.44 112.7 229.29 110.77 226.74 108.23 222.26 106.94 218.11 104.71 213.31 105.02 211.72 103.43 209.16 103.43 203.4 103.43 198.3 106.29 189.03 105.02 197.97 104.07 206.28 105.35 209.48 106.94 211.4 106.63 213.31 108.53 216.5 109.18 221.3 112.05 225.76 113.96 228.01 114.3 229.93 113.33 233.44 111.11 237.61 109.18 240.8 108.53 244.31 105.35 249.75 104.71 253.26 104.71 256.14 106.63 259.33 110.77 262.85 114.61 265.71 116.53 261.89 121.64 255.82 124.84 251.65 126.11 246.88 125.81 242.39 126.11 239.51 128.04 235.68 129.95 231.21 130.71 228.44 130.92 227.69 134.43 223.86 131.87 228.96 130.92 232.17 128.04 238.56 127.71 241.12 127.71 243.68 127.71 246.55 126.44 250.7 124.52 254.54 122.6 257.73 120.36 260.28 118.44 263.17 116.53 265.08 117.17 266.99 119.08 269.24 120.69 270.84 123.25 272.76 124.84 274.04 128.04 275.29 132.18 278.19 136.99 281.05 141.13 283.92 143.7 287.75 148.49 291.29 152.95 293.53 156.16 296.39 160.31 299.28 163.5 299.91 166.71 303.74 170.22 307.58 174.7 309.5 177.25 311.44 179.16 313 181.71 314.3 185.89 315.89 188.75 316.19 191.96 317.5 193.86 319.71 194.5 322.6 198.02 324.22 201.86 326.75 205.69 327.08 210.17 327.08 211.43 327.08 209.84 324.52 208.88 321.64 206.65 319.41 200.89 314.3 192.9 308.22 187.48 304.06 182.04 302.16 176.29 300.23 175.64 297.35 172.13 294.79 169.9 294.48 167.34 294.48 163.19 292.24 160.64 291.92 157.43 290.64 154.88 290.34 143.05 284.25 153.91 288.72 157.43 289.06 159.99 290.01 162.23 290.34 167.67 292.55 172.44 292.9 176.29 295.45 177.89 297.35 177.56 299.28 185.55 301.5 188.75 301.83 190.35 304.06 194.18 306.94 197.7 310.13 200.89 311.74 204.4 314.61 210.17 321 213.99 327.08 219.1 331.56 223.26 333.47 226.14 336.66 231.88 340.81 236.68 341.47 231.57 330.58 225.49 325.48 220.71 321 216.23 318.12 212.71 315.89 204.73 311.1 199.3 307.89 196.1 302.49 195.47 298.97 191.62 293.53 187.48 291.29 183.95 290.64 181.71 288.1 176.61 287.12 173.41 284.57 166.37 283.92 160.95 282.33 157.12 280.1 155.83 276.9 154.23 275.29 152.01 274.04 149.44 269.56 145.92 262.21 142.1 259.66 139.54 259.66 136.34 256.14 127.41 255.17 138.25 255.48 140.5 258.37 143.05 258.69 147.22 260.93 153.28 272.76 156.16 274.99 158.08 277.86 159.03 280.1 164.47 281.38 173.09 282.97 177.25 285.54 181.71 286.16 184.28 287.75 186.83 288.72 189.07 290.01 192.27 291.6 195.47 295.12 198.02 298.97 198.32 301.2 200.58 304.4 203.44 307.26 206.96 309.5 211.77 312.06 215.6 314.93 218.15 316.19 220.38 318.45 222.3 318.12 224.86 314.3 225.49 310.46 225.99 309.33 227.42 305.98 229.65 303.42 234.13 301.5 238.92 299.28 249.47 296.72 240.52 300.23 236.36 302.16 233.49 303.74 230.29 305.05 228.38 306.94 227.42 310.46 226.78 313.33 226.14 315.89 224.54 317.5 224.54 319.71 226.14 321.64 229.65 324.84 232.22 327.39 234.77 328.04 235.41 330.58 236.36 334.75 237.96 337.62 239.88 341.47 240.84 344.01 243.4 346.58 249.47 348.79 254.26 351.36 257.77 352.64 264.17 355.5 267.05 357.74 270.56 360.94 273.45 365.11 277.27 369.9 280.16 374.69 280.79 378.19 281.75 381.38 280.79 382.69 277.57 382.04" fill="url(#ian_symbols_f483dad07a69399435f7cd4fc1343eb3)"/>
 <linearGradient id="ian_symbols_fd8b2923db227194554204cd0f47d95b" y2="155.47" gradientUnits="userSpaceOnUse" x2="366.26" y1="379.8" x1="366.26">
  <stop stop-color="#0A0A0A" offset="0"/>
  <stop stop-color="#533E45" offset="1"/>
 </linearGradient>
 <polygon points="301.56 376.93 299.63 379.8 297.24 379.32 297.72 376.46 299.63 373.1 303.96 367.83 306.82 361.11 310.67 356.31 313.54 352.96 317.84 346.73 321.21 340.97 323.12 329.47 323.62 324.22 325.51 314.61 325.51 309.35 325.51 304.06 325.51 300.23 326.48 295.45 331.27 289.2 337.51 281.05 341.83 274.82 346.61 267.17 349.96 261.41 353.33 256.61 358.11 252.3 360.24 250.45 361.96 248.94 361 246.06 360.04 241.75 360.04 236.97 360.52 231.21 358.58 229.77 355.24 226.42 351.42 223.54 351.42 220.67 352.37 215.39 354.76 209.16 355.52 205.56 356.2 202.45 355.72 198.14 357.15 205.8 357.15 208.2 355.72 211.55 354.28 214.92 353.8 219.69 353.33 222.57 356.2 224.97 358.11 226.42 361.45 228.33 367.71 222.57 372.02 218.74 372.58 216.48 373.45 212.99 373.93 205.8 372.5 198.14 372.5 189.03 373.93 194.3 373.93 198.61 374.89 203.4 375.36 208.2 374.41 216.83 372.97 220.19 369.63 223.54 366.28 226.42 363.86 229.29 361.96 233.6 361.45 237.92 361.96 242.72 363.86 246.06 364.34 248.46 361.96 251.33 359.09 254.21 356.2 257.09 352.85 261.41 351.42 264.28 348.53 267.17 346.61 271.47 344.22 274.82 342.29 278.19 339.42 282.02 336.56 286.34 335.09 289.68 331.27 292.55 328.88 296.39 327.93 299.76 327.93 304.54 327.44 308.39 327.44 313.17 327.44 317 326.48 323.23 330.32 319.89 332.71 315.56 336.56 310.31 336.56 305.05 338.46 301.2 341.83 294.97 345.64 292.55 350.44 288.25 354.28 283.44 357.15 274.82 360.52 269.56 362.91 264.76 368.17 258.04 368.17 254.21 371.06 250.86 374.41 245.11 379.69 239.36 384.47 233.12 388.8 227.85 391.18 221.62 392.16 216.83 392.62 211.55 395.03 206.28 397.42 190.47 398.05 186.43 398.85 181.36 398.37 167.92 399.81 186.63 397.42 200.05 396.95 205.33 395.03 210.6 394.07 213.94 393.59 219.22 397.42 214.44 401.27 209.64 406.52 204.37 409.42 196.69 411.8 190.47 414.68 182.79 416.74 178.37 418.05 175.61 420.91 167.92 425.24 160.75 430.49 155.46 424.76 164.57 420.91 173.2 417.06 182.32 414.68 187.58 413.24 193.81 409.9 200.05 408.91 205.33 405.09 208.68 402.2 212.51 398.37 217.79 394.55 222.57 392.62 225.93 390.7 229.29 387.36 233.6 384.47 237.45 380.65 242.23 377.28 246.06 374.89 249.42 382.56 245.59 388.8 244.63 395.99 241.75 401.27 237.92 408.91 231.21 399.34 241.27 394.07 245.11 387.81 247.03 383.03 247.98 377.75 250.39 372.97 252.78 371.06 256.14 370.11 259.49 366.74 263.32 364.34 266.69 362.44 271 361.45 273.86 359.09 277.71 358.11 282.02 356.67 285.85 353.8 288.72 350.92 291.6 348.05 293.53 344.22 296.39 342.29 300.23 340.38 304.54 339.42 307.41 339.42 310.31 337.98 313.65 336.07 316.52 333.21 320.37 328.88 325.16 326.48 328.04 326.02 331.86 325.51 336.19 324.08 338.58 324.08 342.88 321.69 345.77 318.82 349.11 317.39 351.53 314.5 354.4 313.06 357.26 319.3 354.4 321.69 351.53 326.02 347.69 330.79 347.69 331.75 351.05 333.66 353.44 338.46 354.4 342.29 356.31 345.64 356.31 353.8 353.92 362.44 352.46 368.17 351.53 377.28 346.73 386.88 344.81 394.55 343.85 411.8 338.1 413.72 337.36 424.26 333.31 435.28 333.31 424.26 335.21 414.2 339.54 408.43 341.47 404.61 342.4 400.77 344.33 396.95 345.29 394.55 345.77 390.22 346.73 385.92 347.69 382.1 348.16 379.21 349.11 375.36 349.62 371.06 352.46 367.23 353.92 361.96 354.4 356.2 355.35 353.33 356.78 361.96 357.74 363.85 358.48 368.17 360.16 372.5 356.78 383.03 355.83 397.9 350.57 409.42 350.57 397.9 352.96 393.1 354.88 396.47 360.64 401.74 368.31 409.9 368.79 401.27 370.22 397.42 365.89 395.03 362.54 393.1 358.72 390.7 355.83 386.4 357.26 383.53 358.72 379.69 358.72 375.36 358.24 372.5 359.68 370.11 362.54 366.74 362.54 362.91 361.11 358.58 359.18 352.85 358.72 349.5 357.74 346.13 357.74 342.29 357.74 337.51 356.78 333.21 356.78 331.27 354.88 329.84 351.99 328.4 349.62 326.48 350.57 323.12 352.46 322.64 354.88 318.82 357.26 315.93 358.72 312.58 360.16 310.17 363.02 308.26 365.42 306.82 369.26 305.39 372.61" fill="url(#ian_symbols_fd8b2923db227194554204cd0f47d95b)"/>
 <radialGradient id="ian_symbols_1894e01cb7b80464796440e72d9b0abe" gradientUnits="userSpaceOnUse" cy="331.61" cx="383.62" r="67.244">
  <stop stop-color="#836C2B" offset=".0056"/>
  <stop stop-color="#B49854" offset="1"/>
 </radialGradient>
 <path opacity=".8" d="m425.24 296.39c-5.151.957-5.716-4.759-9.135-6.71-3.322-1.914-3.169.367-5.253.979-1.59.479-4.35.76-6.157 1.5-.431 7.322 12.958 5.189 11.825 10.406-1.803-.08-7.215 2.265-8.104 3.897-1.59 2.775 1.931 8.949-.542 11.385-2.457 2.43-8.151-.809-10.953.59-3.09 1.516-1.085 6.646-4.807 6.295-2.298-.238-4.605-5.907-7.146-6.773-2.584-.872-7.731-.378-9.476 1.579-2.409 2.695-.563 5.785.936 8.263.937 1.563 3.936 1.212 2.196 3.493-.415.543-4.892.591-5.588.67-1.389 3.525-.107 7.269-1.846 10.565-2.09 3.914-7.736 5.259-12.15 3.744-4.392-1.526-4.04-4.201-1.414-6.259 3.419-2.723 8.821-2.09 5.302-7.784-2.148-3.436-6.296-3.499-8.534-6.211-2.345-2.877-1.175-6.434-3.329-9.587-1.803-2.653-4.972-4.935-8.188-4.61-1.329.154-2.499 2.653-4.435 2.351-1.675-.267-3.153-2.829-4.195-3.999-1.823-2.047-1.025-2.781-3.929-3.711-3.371-1.047-6.434.128-6.306 3.759-3.696-.154-6.802 2.5-9.997 1.516-2.845-.909-3.541-3.647-6.716-4.328-2.887-.606-8.167-.255-8.63 3.371-.494 3.909 3.94 4.217 6.242 5.764 2.627 1.739 4.218 3.536 3.845 7.216-.111 1.19-1.936 1.431-1.936 2.818 0 1.526 2.068 2.244 1.936 3.355-.282 2.865-3.345 3.472-4.929 5.641-2 2.786-1.894 4.589-1.718 8.216 4.802.218 14.144-1.846 17.536 1.61 2.169 2.213 1.127 4.436 3.456 6.477 2.542 2.218 5.907 1.452 9.082 1.654-1.281 2.042-3.808 2.084-6.131 1.893-1.281 9.315 11.172 10.246 17.627 9.928.733-4.983-5.238-7.189-4.174-12.299 2.169-.782 7.497-3.153 9.411-.458 1.973 2.781-2.547 7.104-.324 10.3 1.951 2.823 9.688 3.541 12.771 2.521 2.914-.957 3.807-3.695 6.194-5.865 3.042-2.765 7.306-3.243 10.672-4.302 2.366-.76 4.217-.596 6.364-.963 3.116-.516 2.26-.499 4.695-2.259 1.803-1.324.5-2.669 3.456-2.542.872.021 4.063 2.265 4.669 2.999 2.653 3.195.681 7.784 2.397 11.522 3.233 6.977 17.664 12.729 25.05 9.209 2.85-1.351 2.132-2.823 3.243-4.908 2.063-3.934-.063-2.913 5.296-3.849 6.54-1.148 8.37-3.647 8.04-10.476-5.211-.261-6.535.33-10.56 2.675-3.042 1.781-8.912 4.307-10.954-.303-2.6-5.913 7.307-2.393 9.172-7.721 1.628-4.626-3.796-7.077-3.317-10.927 6.296.239 6.146-2.627 6.211-8.168 4.998-.377 12.41-.085 17.211-1.828 2.611-.958 4.174-3.281 6.067-4.584 1.101-.766 5.668-2.042 5.944-2.345 2.786-3.18-.559-9.523 2.829-13.373 1.479-1.643 8.821-8.428 1.042-8.231-.979-3.908-5.147-11.129-9.321-5.302-1.627 2.239.176 6.083-1.175 8.407-1.605 2.781-5.844 3.546-8.667 3.132-1.479-2.653-2.324-3.914-2.499-7.13-.176-2.776 1.93-5.801-1.521-7.54-4.047-2.021-3.265 1.632-5.307 3.61-2.298 2.276-5.844 2.627-8.976 2.994l-2.36-.96z" fill="url(#ian_symbols_1894e01cb7b80464796440e72d9b0abe)"/>
 <linearGradient id="ian_symbols_98aa538aa69e92847d4682ed19fdb63f" y2="265.35" gradientUnits="userSpaceOnUse" x2="405.14" y1="265.35" x1="281.02">
  <stop stop-color="#836C2B" offset="0"/>
  <stop stop-color="#8F7633" offset=".1644"/>
  <stop stop-color="#B09550" offset=".4746"/>
  <stop stop-color="#B49854" offset=".5056"/>
  <stop stop-color="#836C2B" offset=".9944"/>
 </linearGradient>
 <path opacity=".75" d="m368.5 263.76c-3.584-.09-6.652.861-10.087 1.324.568 10.491-8.858 11.906-15.053 7.365-3.723-2.739-3.105-5.737-7.764-5.435-2.695.176-6.758 1.718-9.778 2.329-7.646 1.542-10.969 8.624-19.381 9.3-7.566.563-3.893 4.232-9.061 7.949-3.414 2.462-12.39.873-16.191.612-1.436-12.926 7.04-5.434 13.538-7.928 7.349-2.851 2.175-13.15 9.257-16.127 6.37-2.675 13.798 2.759 18.297-4.929 1.393-2.313 1.372-6.456 3.668-8.694 2.287-2.207 4.983-2.105 7.913-3.217.154-1.292.999-2.212 1.196-3.494.669-.08 1.201-.09 1.871-.026.128 3.01.021 6.109.149 9.103 6.434.393 5.827-1.701 9.98-5.003 3.345-2.675 8.167-1.686 11.447 1.212 1.676 1.483.957 3.132 2.888 4.499 1.781 1.287 5.477 1.393 7.588 1.244 6.758-.458 4.083-9.337 11.149-6.705.543 10.427 4.914 7.688 10.715 7.322 5.146-.324 8.8 3.296 13.665 4.456.154.447.633 2.951.633 2.951-1.979 3.563-4.174 4.211-7.179 5.625-2.839 1.351-5.577 4.871-8.215 6.067-7.406 3.408-11.496-3.872-17.185-6.716l-4.08-3.07z" fill="url(#ian_symbols_98aa538aa69e92847d4682ed19fdb63f)"/>
 <radialGradient id="ian_symbols_716f1ef300b56c24398970aaa362cc54" gradientUnits="userSpaceOnUse" cy="224.67" cx="399.18" gradientTransform="matrix(1.2049 0 0 1.1453 -78.581 -28.315)" r="22.643">
  <stop stop-color="#B49854" offset="0"/>
  <stop stop-color="#836C2B" offset="1"/>
 </radialGradient>
 <path opacity=".85" d="m370.41 224.02c-2.323 4.11-1.913 9.284-1.626 14.191 5.864 1.047 10.862-5.875 15.51-3.334 4.174 2.281 2.393 8.88 7.481 11.07 6.386 2.76 9.688-3.664 15.031-4.897 5.322-1.25 12.326.17 17.802-.101 2.059-5.104 7.435-6.189 11.561-8.79.388-7.29-1.437-12.984-7.546-17.743-5.816-4.53-16.382-4.562-18.945 3.563-1.435 4.466 1.824 6.38-3.413 8.779-3.132 1.436-8.343.797-11.283-.367-4.583-1.834-4.647-3.759-10.119-4.025-3.482-.149-9.065-.819-11.564 1.111l-2.88.55z" fill="url(#ian_symbols_716f1ef300b56c24398970aaa362cc54)"/>
 <radialGradient id="ian_symbols_282663850a9bb784f9c17f926e617de9" gradientUnits="userSpaceOnUse" cy="160.24" cx="405.81" r="33.887">
  <stop stop-color="#836C2B" offset=".5449"/>
  <stop stop-color="#B49854" offset=".9944"/>
 </radialGradient>
 <path opacity=".85" d="m433.38 142.05c-3.803-.923-6.929-.556-9.491 2.51-2.436 2.879-1.437 5.628-6.322 3.727-3.042-1.196-4.329-5.923-7.673-5.748-4.504.215-2.499 5.139-4.913 7.547-1.021 1.016-3.041.612-4.323 1.438-1.653 1.117-1.872 2.605-3.328 3.943-2.993 2.707-6.099 3.326-10.087 1.584-3.19-1.369-4.339-3.954-8.013-4.453-3.436-.468-9.151.882-12.129 2.26-4.908 2.302-6.673 11.009-4.563 16.321 1.324 3.424 3.605 3.097 6.609 3.942 3.238.928 6.864 3.23 9.991 3.762.282-5.761.659-10.214-5.035-12.897 4.844.096 9.23-.651 13.229 1.824 4.238 2.611 5.174 4.724 9.954 1.943 3.95-2.278 5.907-7.333 9.821-9.018 4.11-1.771 8.869.827 13.261.566-.542 5.921 8.971 4.911 13.012 4.14 3.657-.694 4.524-3.217 7.545-4.357 2.26-.846 4.87.042 7.231.056 1.525-2.608 3.18-10.757-.064-13.237-3.232-2.518-7.582 1.401-10.411 2.826-1.366-.901-2.233-2.315-2.408-3.879l-1.91-4.79z" fill="url(#ian_symbols_282663850a9bb784f9c17f926e617de9)"/>
 <radialGradient id="ian_symbols_422f9cf38bae7a24c11c790d94f07b89" gradientUnits="userSpaceOnUse" cy="100.29" cx="402.86" r="30.728">
  <stop stop-color="#836C2B" offset=".0056"/>
  <stop stop-color="#8B7330" offset=".2735"/>
  <stop stop-color="#A28743" offset=".7217"/>
  <stop stop-color="#B49854" offset="1"/>
 </radialGradient>
 <path opacity=".85" d="m398.37 86.926c-3.302 1.433-3.775 5.192-8.077 5.767-5.004.699-10.762-2.031-15.888-.51-1.914.58-2.329 1.917-3.961 2.775-1.037.542-4.015.923-4.669 1.539-1.914 1.816-1.133 7.926.091 10.954 2.084.563 3.493 1.988 5.668 2.478 2.281.521 4.892-.479 7.188.011 4.982 1.045 5.652 6.163 10.55 6.226 2.903.043 5.035-3.193 7.673-3.249 2.865-.064 4.515 2.978 6.726 4.586 4.291 3.052 8.327 3.69 13.83 3.376 2.888-3.074 4.063-8.42-1.313-10.071-1.036-4.714 6.11-3.193 8.938-3.345.867-.992 1.409-1.566 2.409-2.417-.521-10.874 9.518-1.93 12.931-9.111 1.606-3.47-.212-7.077-2.28-9.01-.367-.34-3.393-2.15-3.951-2.292-1.266-.295-3.61.606-4.228.412-2.408-.837-4.227-5.346-7.056-5.421-3.328-.101-3.392 4.333-5.259 6.953-4.344 6.096-10.805 4-13.67-1.986-.479.511-1.346.574-1.824.901l-3.83 1.42z" fill="url(#ian_symbols_422f9cf38bae7a24c11c790d94f07b89)"/>
 <radialGradient id="ian_symbols_70f8725ff49512f4b55af994325b7bae" gradientUnits="userSpaceOnUse" cy="70.152" cx="359.55" r="26.579">
  <stop stop-color="#5A4218" offset=".0169"/>
  <stop stop-color="#644C1E" offset=".183"/>
  <stop stop-color="#806929" offset=".5121"/>
  <stop stop-color="#836C2B" offset=".5449"/>
  <stop stop-color="#B49854" offset=".9944"/>
 </radialGradient>
 <path opacity=".85" d="m349.96 69.191c-.946 2.579-.558 6.208-.388 9.021 1.866.771 3.999.676 6.067.481.34-1.111 1.26-1.59 1.605-2.699 6.497-1.119 9.193 4.825 15.148 4.132 2.175-.253 4.147-2.305 6.817-2.305 2.722-.011 5.349 1.031 8.57.88-1.919-8.462 9.173-1.553 12.517-1.845 3.255-.271 6.801-2.271 7.189-5.748.548-4.814-2.431-3.791-5.737-5.262-2.297-1.052-4.105-4.323-6.237-4.833-2.244-.543-4.413 1.768-6.231 2.531-2.701 1.117-2.286 2.499-5.392.497-1.696-1.109-2.658-3.313-3.829-4.844-2.302 1.433-4.067 3.594-7.082 3.291-3.408-.334-5.265-4.756-9.124-3.855-2.005.468-3.935 3.877-5.87 5.161-2.281 1.51-6.322 1.693-7.54 2.521l-.49 2.876z" fill="url(#ian_symbols_70f8725ff49512f4b55af994325b7bae)"/>
 <radialGradient id="ian_symbols_71dbd3b8f904c7e4259f61aa3b34d455" gradientUnits="userSpaceOnUse" cy="40.219" cx="313.61" r="30.32">
  <stop stop-color="#836C2B" offset=".5449"/>
  <stop stop-color="#B49854" offset=".9944"/>
 </radialGradient>
 <path opacity=".85" d="m274.71 36.128c-.154 5.381.781 10.683 6.236 12.81 5.626 2.196 9.821-6.309 12.91-.67-2.286 2.475 2.016 7.769 4.345 9.952 4.429-4.249 7.843-.208 8.624-7.245.394-3.488-1.345-9.64 2.068-11.868 5.695-3.704 4.318 4.033 5.126 7.061 1.042 3.924 4.323 7.011 9.497 6.163 1.414-3.727 3.084-6.497 7.172-7.487 4.908-1.193 8.497 1.891 10.65-2.967 1.846-4.15.452-5.822 5.015-8.518 3.604-2.14 7.131-3.235 5.939-8.656-7.024-2.84-14.086-4.272-20.407 1.464-2.632 2.38-4.068 5.791-7.306 7.094-5.126 2.066-5.104-1.29-7.189-4.336-5.109-7.351-10.108-.258-15.824 2.882-2.345 1.281-7.104 3.509-9.603 3.826-3.738.479-4.85-1.869-8.258-2.751-2.153-.588-5.194-.606-6.131 1.318l-2.87 1.928z" fill="url(#ian_symbols_71dbd3b8f904c7e4259f61aa3b34d455)"/>
 <radialGradient id="ian_symbols_3049acfc37b658b465bf93aed5177b36" gradientUnits="userSpaceOnUse" cy="115.21" cx="313.06" r="26.396">
  <stop stop-color="#5A4218" offset=".0169"/>
  <stop stop-color="#644C1E" offset=".183"/>
  <stop stop-color="#806929" offset=".5121"/>
  <stop stop-color="#836C2B" offset=".5449"/>
  <stop stop-color="#B49854" offset=".9944"/>
 </radialGradient>
 <path opacity=".85" d="m272.32 134.38c4.408.654 4.929-1.574 7.54-3.942 2.275-2.053 4.498-2.337 6.843-3.73 3.871-2.302 3.147-3.147 3.823-7.659.654-4.291 2.893-5.995 5.892-9.004 1.473-1.471 4.237-5.238 6.582-4.922 2.366.291 4.456 5.126 6.322 6.139 8.651 4.639 4.737-12.259 13.714-10.499 1.802-3.964 6.151-6.703 10.564-6.083.239 4.801.218 6.226-2.887 9.363-4.504 4.575-2.659 4.903-4.243 10.696-2.866 10.568-14.362 5.831-21.471 8.702-.128 1.834-.043 3.759-.176 5.596-2.93 1.433-6.365 1.544-8.534 2.964-2.786 1.837-5.546 3.206-8.523 4.889-3.063 1.718-3.78 3.307-7.301 4.208-2.908.726-7.194 1.042-9.975-.101-.106-.672-.239-1.584-.091-2.302l1.93-4.33z" fill="url(#ian_symbols_3049acfc37b658b465bf93aed5177b36)"/>
 <radialGradient id="ian_symbols_676e1326273cd744356787d9f3fc5cc0" gradientUnits="userSpaceOnUse" cy="74.939" cx="247.39" r="36.052">
  <stop stop-color="#5A4218" offset=".0169"/>
  <stop stop-color="#644C1E" offset=".183"/>
  <stop stop-color="#806929" offset=".5121"/>
  <stop stop-color="#836C2B" offset=".5449"/>
  <stop stop-color="#B49854" offset=".9944"/>
 </radialGradient>
 <path opacity=".85" d="m204.25 106.1c-.763-7.502 4.36-11.889 6.106-17.863 1.106-3.791 2.802-5.161 4.815-7.641.813-1.011 1.281-2.292 2.021-3.249 1.159-1.507-.688-3.52 2.813-2.954-.553-1.949-.436-4.347-.335-6.567 2.967-.561 5.541.731 8.55.404 2.919-.303 5.099-2.555 8.082-2.315 1.165 4.219-4.062 5.521-2.707 9.411 2.297 6.596 4.86-1.436 5.642-3.249.761-1.714 3.382-6.673 5.248-7.702 2.616-1.438 8.508.888 11.464 1.063.197 3.682-.776 8.595 4.791 7.029 1.096-3.324 15.792-4.836 17.425-1.922.585-.078 1.627.031 2.238.162.388 4.475 1.653 5.509-2.829 6.639-3.956.989-5.54-.334-8.97 2.021-3.068 2.076-2.478 3.326-7.312 3.249-3.541-.053-5.987-.965-9.103-1.964-1.425 1.422-.989 3.637-1.037 5.724-6.375.141-6.322-.175-6.71 6.694-2.51.89-5.152.151-7.529 1.172-2.196 2.879-1.819 7.12-4.86 8.499-2.946 1.346-10.225-.024-10.135 5.214-4.02-.032-5.347-5.706-9.044-2.335-1.412 1.292-.346 3.76-1.76 4.953-1.584 1.282-4.354.891-6.298.718-.313-.619-.479-1.172-.566-1.837v-3.35z" fill="url(#ian_symbols_676e1326273cd744356787d9f3fc5cc0)"/>
 <linearGradient id="ian_symbols_ae68428fe8fd3894459df13054df2012" y2="196.34" gradientUnits="userSpaceOnUse" x2="240.11" y1="196.34" x1="188.78">
  <stop stop-color="#B49854" offset=".0056"/>
  <stop stop-color="#836C2B" offset="1"/>
 </linearGradient>
 <path opacity=".75" d="m217.88 189.37c-6.07.011-8.906.521-13.179 4.365-2.39-1.911-3.9-1.696-6.128-.183-3.419 2.323-.694 4.432-2.246 7.138-1.858 3.259-4.725 1.196-6.769 3.653-.933 1.117-1.023 7.269-.295 8.635 1.632 3.031 4.78 3.77 8.257 3.36 3.735-.452 3.64-2.499 6.713-3.664 6.838-2.6 11.616 1.25 11.932-8.125 3.772-.165 10.594 1.51 13.689.888 6.748-1.334 1.936-4.886 4.164-9.071 1.967-3.667 4.195-2.108 5.397-6.998.915-3.621.733-8.021.51-11.78-3.525-1.584-9.273-2.204-12.325.598-3.196 2.911.431 11.081-6.12 9.561l-3.6 1.61z" fill="url(#ian_symbols_ae68428fe8fd3894459df13054df2012)"/>
 <radialGradient id="ian_symbols_b38eb11ce91ae774c5aed9db533e890e" gradientUnits="userSpaceOnUse" cy="191.9" cx="162.07" r="29.049">
  <stop stop-color="#5A4218" offset=".0169"/>
  <stop stop-color="#644C1E" offset=".183"/>
  <stop stop-color="#806929" offset=".5121"/>
  <stop stop-color="#836C2B" offset=".5449"/>
  <stop stop-color="#B49854" offset=".9944"/>
 </radialGradient>
 <path opacity=".85" d="m187.95 199.09c-2.762 1.148-10.967.877-14.375.479-2.579-.303-3.791-2.382-5.262-2.403-2.52-.053-2.914 2.478-4.907 3.27-5.445 2.159-23.92.324-22.821-8.452 1.185-.013 2.296-.891 3.674-.633.042-1.683.098-3.456.144-5.139 1.842-.096 3.767-.021 5.604-.127.25-4.804-.792-8.715 4.379-10.488 2.598-.901 3.424.165 5.291-1.425 2.217-1.888.394-3.451 4.304-3.842 10.268-1.01-.763 16.417 13.344 15.731 1.117-2.369-.524-4.4.694-6.495.6-1.058 3.987-2.48 5.062-2.938.229 5.543 5.705 1.802 8.707 3.14 4.7 2.122.997 8.303 7.582 7.412 3.914 9.683-6.356 7.019-8.063 12.389l-3.34-.49z" fill="url(#ian_symbols_b38eb11ce91ae774c5aed9db533e890e)"/>
 <radialGradient id="ian_symbols_bd9e01e6749506a4554d65dcaaf88171" gradientUnits="userSpaceOnUse" cy="142.58" cx="56.3" gradientTransform="matrix(1.1972 0 0 1.1177 -.1223 -7.9816)" r="22.964">
  <stop stop-color="#836C2B" offset="0"/>
  <stop stop-color="#8B7330" offset=".2694"/>
  <stop stop-color="#A28743" offset=".7201"/>
  <stop stop-color="#B49854" offset="1"/>
 </radialGradient>
 <path opacity=".75" d="m68.463 178.82c-.859 3.323-5.339 3.161-8.462 2.56-1.231-.25-2.48-1.672-3.709-1.898-1.768-.34-4.563.518-6.202-.12-2.827-1.13-4.709-4.368-4.001-7.521 1.154-5.086 3.478-2.435 8.032-2.674 3.573-.194 7.061-.455 6.322-4.823-.521-3.001-4.509-3.411-5.91-6.282-2.792-5.822-1.346-15.611 6.952-14.7-1.451-6.104 4.26-3.674 7.585-6.224 3.076-2.371 3.089-7.292 8.497-6.617.436-8.085 1.111-10.727 10.897-8.955.62 2.954-.758 5.607-1.053 8.486-.335 3.345.97 6.139 1.164 9.106.575 8.462-4.522 8.311-11.987 8.662-.056 1.875-.12 3.855-.162 5.748-1.295-.295-3.129.41-4.432.152-.112 3.887 1.063 8.071 1.063 12.232.011 4.206-1.882 7.542-1.226 11.169-.84.101-1.925.229-2.784.087l-.584 1.59z" fill="url(#ian_symbols_bd9e01e6749506a4554d65dcaaf88171)"/>
 <radialGradient id="ian_symbols_67ac26ac9e6fc804f592b0dc2b2ee1f1" gradientUnits="userSpaceOnUse" cy="224.19" cx="177.64" gradientTransform="matrix(1.0776 0 0 1.0987 -7.4344 -19.376)" r="32.207">
  <stop stop-color="#836C2B" offset="0"/>
  <stop stop-color="#8F7633" offset=".3252"/>
  <stop stop-color="#B09550" offset=".9386"/>
  <stop stop-color="#B49854" offset="1"/>
 </radialGradient>
 <path opacity=".75" d="m172.09 224.78c-3.021-.096-4.435 2.435-7.16 3.265 1.433 8.188-5.968 4.578-9.521 2.659-2.486-1.334-2.563-1.638-5.54-2.217-3.4-.696-3.848.239-6.323-1.989.473.426-3.621-5.072-3.392-4.456-1.087-2.946-.274-2.909.024-5.551.757-6.854 1.521-8.29 8.574-7.949.139.5.019.92.151 1.42 7.117.377 8.606.479 9.3 7.901 5.445.42 8.367-.968 11.299-5.185 1.303-1.861-.383-2.882 2.053-4.227 1.446-.824 5.476.021 7.162-.069-.274-8.071 6.833 3.876 7.324 4.807 1.584 3.153.359 3.376 4.626 4.227 2.294.457 5.543.16 7.67-.622.992-3.988 3.143-6.668 7.856-5.179 4.185 1.345 3.432 4.291 6.529 7.354 3.174 3.132 6.314 2.334 9.467 4.748 2.446 1.861 3.834 7.519 6.104 7.986 1.26 8.125-10.247 7.955-9.29 16.18-7.779 2.191-9.94-5.237-16.385-5.11 1.175 7.391-5.923 4.903-10.409 4.674-4.249-.229-10.083 1.968-13.787-.154-2.598-1.479-5.501-8.104-3.783-10.938 1.816-3.026 9.18-1.479 12.333-1.643-.229-1.01.391-2.51.151-3.52 1.173.26 2.813-.436 3.988-.165.38-8.54-12.57-5.291-16.875-8.279-.154.532 0 .979-.111 1.5l-2.04.54z" fill="url(#ian_symbols_67ac26ac9e6fc804f592b0dc2b2ee1f1)"/>
 <path opacity=".75" d="m149.13 230.6c-2.565-1.851-8.518-4.116-10.095 0-.183.495 1.231 5.594 1.47 6.274.973 2.807 1.433 5.035 4.764 6.418 6.5 2.658 4.74.516 4.829 7.699.056 4.881 2.629 9.353 7.582 8.965.133.495-.032.952.141 1.431 1.274-.26 2.914.388 4.174.149-.144 4.498-5.974 2.978-8.965 3.132-.106 2.521-.032 5.152-.139 7.694-3.293.191-7.717-.978-10.442 1.26.239.26.675.458.866.76-3.137 2.999-6.114 11.756-1.281 14.798 3.836 2.387 12.485-4.801 16.308-5.674 7.295-1.669 11.137 2.717 13.434-6.237 1.715-6.667 1.213-11.145-6.75-10.667-.053-2.632.401-5.343-1.465-7.146 1.704-.643 3.369-1.042 5.137-1.239 2.435-6.572-1.566-9.289-2.803-14.538-.901-3.802 1.218-14.255-5.66-12.474-1.622 6.344-5.823 8.811-9.194 1.479l-1.92-2.08z" fill="#B49854"/>
 <linearGradient id="ian_symbols_753314a0d8d90bb4d54dd9838069f06f" y2="225.08" gradientUnits="userSpaceOnUse" x2="135.06" y1="225.08">
  <stop stop-color="#B49854" offset=".0056"/>
  <stop stop-color="#836C2B" offset="1"/>
 </linearGradient>
 <path opacity=".8" d="m132.19 261.24c-6.322 3.307-10.145 6.545-17.969 3.068-2.031-.936-2.749-3.414-4.77-4.499-3.174-1.669-7.986-1.106-11.496-2.648-5.413 5.557-5.554 8.97-14.505 9.055-2.815 0-9.608-1.282-11.974-.542-4.228 1.302-4.249 6.13-7.792.542-3.565-5.652 2.403-14.49-8.051-8.274-4.868 2.909-12.745 1.771-12.854-5.572 1.781.575 3.653 1.521 5.617 1.303-1.464-5.956 5.456-7.833 8.694-3.696.176-.93.976-2.02 1.032-3.344 2.898-.446 6.734 1.202 7.202 4.137 2.056.394 5.969 2.946 8.096 2.058 2.901-1.239 3.129-7.194 1.521-9.257-2.369-3.02-5.224-.989-8.733-1.818-3.629-.846-3.9-3.972-6.708-5.27-5.256-2.403-13.104 2.882-18.36-2.722-1.622-1.729-1.861-4.855-3.565-6.524-2.169-2.105-9.212-4.759-10.765-1.856-3.608.542-9.856-7.508-7.04-10.485-3.892-3.892-8.013-.011-12.52.5-7.614.882-7.476-1.792-7.117-8.566 2.89-.138 5.692.255 8.071-.899 2.927-1.414 3.815-3.813 7.194-4.435 2.805-.521 5.171-.335 7.659-1.074 3.108-.958 4.804-1.686 8.553-1.882 3.51-3.879.67-8.026 2.475-12.384 1.925-4.621 5.349-2.576 5.836 1.834.75.221 1.967.221 2.719.013-.361-4.719 2.159-7.269 6.713-6.575.096 1.848-.611 4.953.075 6.639 1.239 3.041.904 1.281 3.836 2.403 3.693 1.412 8.173 1.412 7.673 6.702-.447 4.738-4.914 3.01-6.37 6.583-1.377 3.403 2.629 6.11 5.814 5.956.215 4.238-.662 9.108 4.52 8.571 2.175-.202 7.702-5.243 6.649 2.318 6.529 2.988 4.977-5.03 7.205-7.992 3.129-.622 7.212.882 6.694 4.621 2.278.186 13.604-6.732 12.942 1.457 4.485.25 8.233-.606 9.036 4.366.489 3.036-1.239 7.476-4.227 8.726-.229.739-.205 1.957-.008 2.717 4.421-.085 1.011 4.387 2.303 6.806 1.566 2.994 4.424 2.074 7.13 1.973.149 2.914-.436 6.29.625 8.954 5.237.313 7.425 1.382 12.562 1.989.989 3.738 7.729.303 8.619 1.606-.524 1.042 1.356 2.945.303 3.195l-2.53 2.2z" fill="url(#ian_symbols_753314a0d8d90bb4d54dd9838069f06f)"/>
 <radialGradient id="ian_symbols_d6ed1c18a87893d42d312e6a1ac3d5bd" gradientUnits="userSpaceOnUse" cy="288.79" cx="230.03" gradientTransform="matrix(1.0291 0 0 1.069 -2.143 -19.521)" r="59.698">
  <stop stop-color="#5A4218" offset=".0169"/>
  <stop stop-color="#644C1E" offset=".183"/>
  <stop stop-color="#806929" offset=".5121"/>
  <stop stop-color="#836C2B" offset=".5449"/>
  <stop stop-color="#B49854" offset=".9944"/>
 </radialGradient>
 <path opacity=".8" d="m269.93 292.27c-3.153-1.867-15.394-2.696-17.797.505 3.042 2.648 3.956 4.753 3.504 9.236-.569 5.578-2.536 4.844-7.891 5.125-3.978.213-7.248-.845-9.497 2.936-2.074 3.498.175 6.577-4.323 8.321-3.424 1.323-8.215.845-11.831 1.675-5.503 1.212-4.998 1.653-8.76-2.803-3.589-4.216-6.011-3.482-11.475-2.456-4.185.803-7.662.021-9.366 3.584-1.361 2.865 1.01 3.413-1.872 5.259-1.476.936-4.681.521-6.519.909-4.549 1-7.973 2.26-13.243 1.957-4.878-7.37-10.461-3.17-17.332-3.473-3.597-.154-6.096-3.722-9.376-3.132-2.053.346-3.238 2.627-4.935 3.105-1.736.505-5.182.281-6.92 0-5.681-.931-14.09-5.844-15.396-12.793-2.032-10.741 11.179-2.334 15.818-3.195.317-4.956 3.64-5.652 7.898-4.44.208 1.441 1.098 2.462 1.13 3.94 3.969 1.17 6.947-3.089 10.794-3.499 3.018-.33 4.203.101 6.019 2.058 1.194 1.313.933 4.328 2.454 4.998 2.544 1.159 3.379-1.43 5.302-1.957 2.642-.691 3.849-.192 6.138.505 4.554 1.367 8.38 5.652 13.554 4.567.248-5.088-.045-7.72-2.266-11.846-1.943-3.563-5.28-10.326 2.34-9.087 4.216.675 5.737 7.258 10.332 6.046 5.293-1.457 5.064-7.024 11.791-6.652.638-3.611-.947-5.695-2.329-8.609 4.208-5.886 8.151.83 12.682 1.983.133-2.568-.718-10.086.915-11.868 1.691-1.802 3.855.261 5.599-.872 2.169-1.43.766-2.106 1.462-4.626.792-2.914.176-2.956 2.499-5.062 2.154-1.957 8.986-3.558 11.9-4.536 3.978-1.361 6.487-1.143 9.853 1.888 4.354 3.882.398 6.62 2.866 10.816 1.882 3.174 7.162.935 10.363.978 5.131.112 5.998 1.675 8.385 5.652 1.351 2.281 4.653 8.821.591 10.342-.085 1.261-.654 1.436-1.085 2.478l-1.95 2.02z" fill="url(#ian_symbols_d6ed1c18a87893d42d312e6a1ac3d5bd)"/>
 <radialGradient id="ian_symbols_b6d8bfba08320394a97a60c3f4547f3d" gradientUnits="userSpaceOnUse" cy="244.15" cx="246.1" gradientTransform="matrix(1.1195 0 0 1.0784 -25.852 -12.8)" r="33.287">
  <stop stop-color="#836C2B" offset="0"/>
  <stop stop-color="#B49854" offset="1"/>
 </radialGradient>
 <path opacity=".8" d="m243.9 254.33c-6.227-.495-8.444 2.404-8.141 8.189-9.603.478-18.004.542-27.554 1.175-.359-1.936-.872-5.646.13-7.438.564-1.042 2.778.33 3.257-.468.633-1.053.38-2.169 1.066-3.116 1.598-2.217 1.217-2.696 3.347-4.53 1.51-1.292 3.414-1.08 4.695-3.031 2.388 1.983 3.137 4.876 6.769 4.03.686.479 1.467.489 2.935.479-.112-.33 0-1.515-.016-1.925-2.084-1.095-2.972-9.842-2.063-12.485.654-1.919 2.728-2.595 3.382-3.988 1.021-2.185.856-4.206 1.01-6.79 2.031-.106 4.987.479 6.923-.064 2.387-.686 2.866-2.643 5.211-3.759 5.003-2.436 8.247.313 10.757 4.934 2.121 3.93.558 7.875 5.338 9.146 3.743 1.01 8.891-.627 12.938-.436.346 6.849-1.287 9.183 5.977 10.794 5.168 1.138 9.257 2.994 10.729 7.747.894 2.898 1.351 11.358.569 14.49-.521 2.127-2.393 3.057-2.718 6.168-.287 2.717.021 5.168-.605 7.694-4.243.197-11.15.606-14.304-2.632-3.823-3.887-.351-8.322-4.801-11.906-4.478-3.631-7.471-1.217-13.022-1.414-7.311-.261-5.79-2.824-10.193-6.721l-1.65-4.15z" fill="url(#ian_symbols_b6d8bfba08320394a97a60c3f4547f3d)"/>
 <linearGradient id="ian_symbols_f5d3f4f0843e6664b1144804907337a5" y2="364.27" gradientUnits="userSpaceOnUse" x2="282.92" y1="364.27" x1="186.3">
  <stop stop-color="#B49854" offset=".0056"/>
  <stop stop-color="#836C2B" offset="1"/>
 </linearGradient>
 <path opacity=".8" d="m230.39 364.13c-9.688.654-1.712 14.798-12.793 16.946-4.677.894-7.774-2.425-12.174-2.839-6.107-.548-12.517.909-18.828.579-.327-1.175-.391-4.041-.112-5.253 1.925-.111 4.99-.526 7.356-.373-.042-2.892-2.278-10.603.102-13.148 3.092-3.324 7.787.855 11.376 1.159-1.295-12.001 5.918-2.979 10.406-4.09 2.97-.744 4.458-7.241 5.347-7.646 3.28-1.553 5.934.733 9.321 1.409 2.765.558 7.141 1.366 9.991.409 3.77-1.255 3.249-5.254 8.375-3.584 3.78 1.26 4.094 4.44 7.247 5.849 3.292 1.479 8.47.606 12.076.798-1.154 7.434 5.779 3.482 9.544 4.834 4.738 1.754 4.238 3.838 5.296 9.076-1.888.111-5.604-.67-7.343.085-2.542 1.138-1 3.089-3.175 4.418-4.365 2.69-9.32 1.952-14.345 1.952-6.147 0-21.088-.628-22.944-7.062l-4.77-3.54z" fill="url(#ian_symbols_f5d3f4f0843e6664b1144804907337a5)"/>
 <radialGradient id="ian_symbols_bfbe150b2d4cb234811531d268321b1e" gradientUnits="userSpaceOnUse" cy="330.38" cx="333.96" r="23.714">
  <stop stop-color="#B49854" offset="0"/>
  <stop stop-color="#836C2B" offset="1"/>
 </radialGradient>
 <path opacity=".85" d="m343.74 334.27c-5.541-.543-.979 5.87-2.951 8.039-1.324 1.462-9.953 1.196-11.825.983-.176-.681-.5-1.084-.654-1.765-3.913-1.175-4.668 1.956-4.301 5.109-4.76 2.371-15.038 4.041-15.383-3.631-.176-3.675 1.865-2.957 4.083-5.76 1.888-2.435.851-7.391 4.584-6.885.042-.585-.043-1.213 0-1.761-4.823-2.547-13.427-.957-11.081-9.3.957-3.477 2.823-4.524 5.907-5.195.372-.09 3.243.101 4.179.021 1.866-.197 3.127-1.308 5.317-.893.176 1.999.437 3.632.611 5.604 4.217-.102 8.301 3.354 13.756 2.892 1.914-5.301-1.59-10.666 6.716-9.427 1.021 2.382 3.807 3.493 4.78 5.779.872 2.042.037 5.737.148 7.95 5.216 1.111 2.159-5.036 3.398-7.472 1.563-3.067 5.992-4.025 8.922-2.914 2.658 3.808 2.435 12.172 1.499 16.691-1.058 5.301-10.055 5.126-14.841 3.371l-2.88-1.43z" fill="url(#ian_symbols_bfbe150b2d4cb234811531d268321b1e)"/>
 <radialGradient id="ian_symbols_88b074479b4e5dc4594c10699e310ded" gradientUnits="userSpaceOnUse" cy="322.52" cx="426.98" r="29.11">
  <stop stop-color="#836C2B" offset=".5449"/>
  <stop stop-color="#B49854" offset=".9944"/>
 </radialGradient>
 <path opacity=".85" d="m396.95 333.31c0-3.887-1.25-9.188 2.015-11.384 2.909-1.93 10.581-.829 13.708-.213 2.675-4.694-1.409-10.395 4.392-12.846 2.829-1.196 5.935.24 8.519-1.462 3.153-2.084 2.371-4.079 2.61-7.561 2.473-1.021 5.732-.644 8.471-.495.718 4.61-4.711 12.91 2.85 14.25 1.83-4.759 1.691-5.147 7.194-5.323.654-1.669 2.105-2.844 3.845-3.344.394-7.37 1.936-7.386 9.104-7.04.313 5.929.313 12.149 0 18.079-4.19 2.802-8.253 1.132-12.385 3.328-4.498 2.388-4.322 6.174-10.56 5.887-6.929-.33-4.174.324-7.279 5.131-2.866 4.472-7.151 2.973-11.32 3.058.431 4.658 2.951 14.473-5.349 13.846-5.823-.473-5.478-9.151-8.13-12.538-1.452 1.414-.995 3.653-1.059 5.732-4.546 1.829-7.104-.165-9.502-3.76l2.89-3.37z" fill="url(#ian_symbols_88b074479b4e5dc4594c10699e310ded)"/>
 <radialGradient id="ian_symbols_8119389bc30a3054a1ee004c2bbde10e" gradientUnits="userSpaceOnUse" cy="231.13" cx="87.183" r="17.129">
  <stop stop-color="#836C2B" offset="0"/>
  <stop stop-color="#87702D" offset=".2479"/>
  <stop stop-color="#947B37" offset=".551"/>
  <stop stop-color="#AB8F4B" offset=".8817"/>
  <stop stop-color="#B49854" offset=".9944"/>
 </radialGradient>
 <path opacity=".85" d="m68.593 231.69c.325 8.614 15.332 4.823 19.677 7.072 2.813 1.467 5.625 5.551 8.584 6.38 4.977 1.393 7.205-2.292 6.649-6.652-.883-.356-1.186-1.106-1.904-1.521 1.035-.771 2.101-2.196 2.478-3.355.274-.803-.391-2.111-.042-2.866.455-1.005 2.108-1.994 2.334-2.882.978-3.813 0-6.306-3.268-8.641-10.204-7.311-1.074 12.703-11.996 8.151-3.823-1.59-1.903-4.801-3.805-7.683-1.411-2.127-6.106-4.206-8.518-1.771-2.348 2.313 1.327 8.566-.707 10.789-1.747 1.936-8.266.144-10.44 1.063l.959 1.91z" fill="url(#ian_symbols_8119389bc30a3054a1ee004c2bbde10e)"/>
 <radialGradient id="ian_symbols_faf12d35d6a723e401c43c256cd579ca" gradientUnits="userSpaceOnUse" cy="201.75" cx="27.655" r="16.359">
  <stop stop-color="#5A4218" offset=".0056"/>
  <stop stop-color="#765C2A" offset=".3391"/>
  <stop stop-color="#B49854" offset="1"/>
 </radialGradient>
 <path opacity=".85" d="m45.109 211.55c-4.105.266-7.04.394-10.908-.584-4.259-1.074-6.128.101-10.658.584-3.26.362-11.57 1.425-14.373 0-3.589-1.813-1.98-6.019.096-8.97 1.686-2.403 5.086-8.38 8.191-6.849 3.273 1.584 1.013 7.891 6.085 9.497 6.564 2.095 3.693-3.095 3.826-6.136.099-2.212 1.282-6.003 4.195-7.314 4.246-1.933 4.746 1.824 7.678 3.129 2.794 1.26 4.761-1.042 7.704.912 1.085 3.762 2.032 10.876.556 14.3l-2.392 1.43z" fill="url(#ian_symbols_faf12d35d6a723e401c43c256cd579ca)"/>
 <linearGradient id="ian_symbols_3f94efe894055fc451ed2afa667c59e4" y2="193.35" gradientUnits="userSpaceOnUse" x2="500" y1="193.35" x1="430.75">
  <stop stop-color="#B49854" offset="0"/>
  <stop stop-color="#836C2B" offset="1"/>
 </linearGradient>
 <path opacity=".75" d="m435.39 179.76c-1.808 5.759-3.647 8.869-3.259 15.223 3.775 2.372 7.891 2.281 7.991 7.152.154 6.083-4.907 3.185-7.625 6.987-4.323 6.104-.063 24.065 6.807 26.793 6.04-3.77 3.972-10.342 4.301-16.43 6.232-.314 13.947 1.978 16.144-3.302 1.154-2.813-1.281-5.498 1.345-7.683 1.569-1.324 5.893-.627 8.024-1.372-1.701-7.199 8.646-4.939 12.989-7.72 5.285-3.358 8.062-10.236 10.763-14.562 1.93-3.118 8.603-10.204 6.843-14.71-2.956-7.553-10.453.979-14.148-.069-.937-4.421 8.544-28.575-4.303-15.37-5.04 5.137-5.173 4.366-11.538 2.853-4.477-1.074-11.24-2.701-10.65 4.305.521 6.062 8.242 4.421 11.539 8.792 1.499 1.999 2.978 12.158.829 14.407-6.938 7.301-16.643-9.661-23.056-5.378-1.286-2.717-2.786-5.16-2.935-8.125-5.844-1.273-6.87 3.257-7.369 6.928l-2.68 1.27z" fill="url(#ian_symbols_3f94efe894055fc451ed2afa667c59e4)"/>
 <linearGradient id="ian_symbols_baef851b83f72624256a9b435077223e" y2="258.37" gradientUnits="userSpaceOnUse" x2="128.76" y1="174.68" x1="128.76">
  <stop stop-color="#B49854" offset=".0056"/>
  <stop stop-color="#836C2B" offset="1"/>
 </linearGradient>
 <path opacity=".7" d="m132.52 257.71c-11.895 1.872-6.548-13.644-9.818-19.62-4.762-8.683-4.728-17.834-8.346-26.708 8.606 0 10.397 4.668 10.56 11.57 7.074.909 2.903-9.353 4.089-12.985 2.279-7.061 5.508-6.04.896-13.266-3.129-4.935-3.943-7.149-3.539-13.421.479-7.712 2.292-8.917 10.954-8.537 1.627 7.42-6.955 8.441-2.858 16.436 3.583 7.011 6.473 8.154 6.473 16.821 0 5.822 2.446 13.798 1.436 18.993-.912 4.551-8.454 11.342.553 15.138.479 7.715.98 12.485-6.192 16.244l-4.2-.65z" fill="url(#ian_symbols_baef851b83f72624256a9b435077223e)"/>
</svg>
