<?xml version="1.0" standalone="no"?>
<!DOCTYPE svg PUBLIC "-//W3C//DTD SVG 20010904//EN"
 "http://www.w3.org/TR/2001/REC-SVG-20010904/DTD/svg10.dtd">
<svg version="1.0" xmlns="http://www.w3.org/2000/svg"
 width="1536.000000pt" height="779.000000pt" viewBox="0 0 1536.000000 779.000000"
 preserveAspectRatio="xMidYMid meet">
<metadata>
Created by potrace 1.16, written by Peter Selinger 2001-2019
</metadata>
<g transform="translate(0.000000,779.000000) scale(0.100000,-0.100000)"
fill="#000000" stroke="none">
<path d="M7910 7769 c-51 -23 -68 -23 -141 -3 -57 16 -59 16 -96 -6 -35 -21
-46 -22 -143 -16 -81 5 -116 3 -155 -9 -35 -11 -69 -14 -115 -10 -49 5 -75 2
-103 -10 -28 -12 -65 -15 -135 -14 -83 2 -103 -1 -139 -20 -38 -21 -54 -22
-157 -19 -108 3 -116 2 -139 -20 -33 -31 -78 -42 -176 -42 -74 0 -90 -3 -135
-29 -39 -22 -70 -30 -131 -36 -59 -5 -90 -13 -117 -31 -44 -28 -104 -43 -176
-44 -36 0 -65 -7 -91 -22 -48 -28 -64 -18 -81 50 -16 63 -86 131 -166 162 -53
20 -68 21 -149 14 -49 -4 -129 -8 -176 -8 l-86 -1 -51 -47 c-46 -43 -56 -48
-99 -48 -28 0 -60 -7 -78 -18 -16 -10 -46 -24 -65 -32 -19 -7 -55 -28 -80 -45
-25 -18 -70 -40 -100 -50 -38 -12 -73 -35 -113 -71 -89 -83 -137 -71 -137 32
0 20 14 67 31 106 29 66 30 71 14 94 -26 40 -47 26 -92 -66 l-42 -85 0 -146
c-1 -185 -1 -185 -107 -182 -54 2 -99 -3 -144 -17 -36 -10 -119 -24 -185 -30
-66 -6 -145 -18 -176 -26 -105 -26 -179 -14 -342 55 -77 33 -112 41 -212 52
-175 18 -220 12 -252 -37 -12 -18 -11 -24 5 -45 18 -21 31 -24 183 -35 198
-14 227 -21 315 -79 67 -44 69 -45 154 -45 47 0 123 7 170 15 118 21 343 20
364 -1 22 -21 20 -89 -3 -141 -17 -36 -26 -44 -70 -57 -31 -9 -61 -27 -78 -46
-30 -33 -79 -49 -151 -50 -29 0 -55 -8 -80 -25 -43 -30 -71 -31 -205 -8 -92
15 -105 15 -171 0 -39 -9 -116 -20 -171 -24 -84 -5 -109 -11 -159 -37 -149
-77 -107 -180 45 -112 59 26 215 52 248 41 45 -14 4 -87 -56 -100 -32 -7 -59
-17 -198 -75 -55 -23 -130 -52 -166 -65 -36 -12 -88 -39 -116 -59 -57 -41
-124 -72 -239 -111 -43 -15 -166 -72 -272 -127 -106 -55 -219 -108 -250 -118
-51 -15 -141 -68 -367 -214 -38 -25 -139 -80 -223 -124 -103 -53 -187 -105
-255 -158 -55 -43 -126 -94 -156 -113 -81 -48 -209 -160 -286 -249 -37 -42
-107 -111 -156 -152 -49 -41 -110 -104 -137 -140 -26 -36 -70 -94 -98 -130
-109 -141 -161 -235 -204 -370 -46 -143 -76 -293 -86 -427 -6 -84 13 -259 47
-433 31 -157 106 -312 242 -498 35 -48 86 -121 115 -162 63 -92 101 -135 172
-192 30 -25 129 -119 220 -209 158 -158 170 -167 275 -221 61 -31 135 -78 165
-104 30 -26 86 -61 125 -79 38 -17 96 -53 128 -79 72 -58 253 -179 327 -216
30 -16 84 -49 120 -75 36 -25 112 -77 170 -116 58 -39 124 -86 147 -105 22
-19 76 -56 120 -83 43 -26 166 -106 275 -177 108 -71 242 -158 299 -194 56
-36 130 -84 164 -107 103 -68 484 -235 710 -311 66 -22 136 -47 157 -56 20 -8
58 -20 85 -26 26 -6 89 -26 139 -45 108 -41 222 -73 319 -90 38 -7 110 -24
158 -39 77 -22 162 -38 472 -87 45 -8 120 -9 215 -4 80 4 379 9 665 10 386 2
563 7 685 19 115 11 270 16 510 16 222 0 409 6 525 16 99 8 257 19 351 24 94
5 197 11 230 15 32 3 176 10 319 16 143 5 310 14 370 19 138 12 789 38 1245
50 258 7 361 13 410 25 42 10 145 19 290 25 124 5 288 18 365 29 223 31 263
34 404 21 218 -19 380 -18 418 3 32 17 48 49 41 83 -6 35 -56 57 -190 85 -73
15 -173 37 -223 48 -146 34 -389 40 -1295 33 -1182 -10 -3340 -9 -3890 2 -256
5 -532 10 -615 12 -82 2 -187 -2 -231 -8 -65 -9 -125 -7 -295 6 -247 20 -376
44 -506 92 -51 19 -126 43 -167 54 -41 10 -114 35 -162 56 -100 41 -311 114
-331 114 -24 0 -243 90 -405 166 -87 41 -160 74 -163 74 -3 0 -34 17 -68 38
-34 21 -93 56 -132 78 -65 37 -208 141 -430 314 -49 39 -143 112 -209 163 -65
50 -140 110 -166 132 -72 61 -253 203 -315 246 -31 21 -88 67 -128 102 -40 34
-112 87 -162 117 -132 79 -274 174 -320 214 -22 19 -76 55 -120 81 -121 72
-284 203 -488 395 -70 66 -191 235 -233 325 -17 36 -24 68 -24 116 0 73 10
106 65 222 33 69 57 99 213 259 180 184 340 324 447 391 33 20 119 66 190 101
72 35 164 88 205 118 41 30 102 64 135 76 33 11 92 34 130 50 162 70 337 132
430 152 121 26 175 43 280 86 44 18 126 44 183 58 56 15 180 55 275 90 95 35
199 69 232 76 33 7 101 29 150 51 55 23 125 43 181 52 50 8 104 22 120 30 47
24 270 94 369 116 50 10 128 33 174 50 105 39 133 35 202 -28 28 -25 94 -73
147 -106 52 -33 99 -67 105 -76 17 -27 -1 -107 -33 -143 -16 -18 -38 -53 -48
-77 -11 -24 -29 -53 -42 -64 -12 -11 -31 -38 -42 -60 -12 -22 -38 -60 -58 -85
-21 -25 -46 -61 -55 -80 -10 -19 -35 -55 -57 -80 -40 -46 -82 -97 -210 -254
-70 -85 -156 -153 -267 -211 -58 -29 -176 -13 -319 44 -74 29 -103 27 -198
-19 -46 -22 -114 -51 -150 -65 -118 -44 -157 -71 -194 -132 -43 -70 -46 -135
-12 -206 41 -82 92 -85 92 -5 0 61 24 100 94 151 127 94 240 132 367 125 64
-4 85 -10 129 -37 35 -21 71 -35 104 -38 47 -5 59 -1 149 47 109 57 195 78
243 59 57 -21 58 -54 4 -113 -41 -44 -107 -75 -290 -135 -36 -11 -111 -50
-168 -85 -59 -37 -126 -70 -155 -77 -32 -8 -125 -13 -237 -14 -179 -1 -190 -2
-339 -39 -85 -21 -172 -45 -193 -53 -47 -19 -132 -110 -148 -159 -17 -50 -8
-134 16 -151 22 -16 31 -8 59 50 28 60 113 113 265 167 l125 45 215 5 c187 5
221 9 265 27 28 11 93 35 145 52 52 18 149 56 215 85 115 51 429 156 463 156
32 -1 72 -48 72 -83 0 -32 -124 -154 -279 -277 -26 -21 -34 -37 -46 -95 -8
-38 -23 -95 -34 -125 -16 -43 -20 -80 -21 -167 0 -113 8 -135 31 -90 7 12 27
45 45 73 25 37 39 76 53 146 10 52 26 109 34 125 9 17 45 49 80 72 43 28 77
60 100 96 20 29 53 66 74 82 21 15 64 54 95 86 32 32 64 57 71 55 6 -3 15 -29
19 -59 22 -179 81 -394 109 -394 21 0 39 126 33 230 -10 159 23 343 67 371 12
7 116 35 225 60 62 15 76 15 115 3 39 -13 47 -21 72 -72 23 -47 32 -58 50 -55
27 4 84 79 92 122 9 46 -10 109 -43 144 -43 46 -90 54 -202 37 -181 -29 -188
-29 -215 -11 -17 11 -25 26 -25 44 0 32 59 123 96 149 57 39 121 103 218 218
121 142 166 206 276 384 45 73 116 179 158 235 105 137 129 182 147 268 24
114 31 120 161 134 110 12 272 25 522 45 75 5 160 14 189 19 28 5 82 7 120 4
37 -2 192 -9 343 -14 242 -8 486 -30 511 -45 4 -3 36 -10 71 -14 131 -19 244
-41 283 -55 22 -8 52 -15 67 -16 15 0 51 -9 79 -19 28 -11 76 -23 107 -26 32
-4 75 -15 97 -24 22 -10 96 -35 165 -55 69 -21 168 -57 220 -81 52 -23 111
-46 130 -50 19 -4 73 -27 118 -51 46 -24 90 -44 97 -44 6 0 32 -17 56 -38 24
-21 65 -53 92 -71 77 -52 80 -61 73 -208 -3 -71 -9 -217 -12 -325 l-6 -197 29
-63 c68 -143 224 -285 425 -385 133 -66 477 -185 587 -202 95 -15 210 -93 231
-156 21 -64 -33 -122 -134 -145 -67 -15 -105 -37 -117 -67 -18 -49 -14 -186 7
-228 26 -54 41 -54 54 -3 6 24 13 50 16 59 11 39 80 97 132 113 30 8 113 50
185 92 203 118 232 115 378 -40 73 -77 103 -100 195 -151 126 -69 208 -146
249 -232 14 -31 31 -53 38 -50 21 7 20 104 -2 176 -30 98 -54 128 -151 182
-149 84 -189 112 -215 149 -33 48 -33 78 1 86 38 10 96 -22 182 -100 40 -36
82 -68 95 -71 12 -2 77 -13 143 -24 172 -28 254 -71 317 -165 27 -40 47 -19
47 50 0 57 -9 83 -52 155 -33 55 -49 62 -188 84 -58 9 -127 22 -155 30 -62 18
-121 64 -112 89 6 14 14 16 59 9 29 -4 82 -7 118 -6 325 10 352 7 416 -49 42
-37 54 -29 54 40 0 77 -38 130 -127 176 -42 21 -81 20 -176 -6 -74 -19 -89
-20 -193 -10 -171 17 -227 49 -171 98 53 45 141 56 197 24 72 -42 80 -44 92
-32 9 9 7 25 -6 68 -19 62 -16 98 11 109 32 12 227 22 293 14 36 -4 144 -18
240 -32 273 -39 341 -47 400 -47 42 0 91 -14 205 -55 512 -189 1004 -305 1292
-305 208 0 329 28 440 103 138 92 188 192 181 365 -3 86 -7 105 -36 162 -74
149 -130 249 -173 310 -26 36 -70 106 -99 155 -149 255 -308 506 -383 603 -42
55 -206 186 -280 223 -23 12 -105 83 -182 159 -77 75 -183 170 -235 212 -107
84 -330 214 -447 261 -70 28 -92 31 -218 36 l-140 6 -105 59 c-58 33 -130 72
-160 87 -55 27 -171 138 -220 209 -105 154 -301 355 -379 387 -27 12 -60 14
-136 10 -100 -5 -113 -8 -307 -83 -47 -18 -47 -18 -90 4 -143 74 -213 114
-245 138 -20 15 -54 34 -76 41 -22 8 -54 25 -70 39 -16 14 -46 33 -67 44 -20
10 -42 26 -49 34 -8 9 -29 16 -48 16 -37 0 -67 12 -99 41 -20 19 -235 99 -265
99 -8 0 -28 13 -44 30 -36 37 -76 56 -181 85 -47 13 -100 35 -119 49 -41 32
-73 44 -145 58 -31 5 -70 21 -89 35 -22 17 -59 31 -110 40 -42 7 -98 22 -126
33 -70 27 -207 60 -248 60 -23 0 -46 10 -70 29 -34 27 -40 28 -114 23 -78 -5
-87 -3 -258 54 -27 9 -65 16 -82 15 -150 -7 -310 4 -364 25 -24 9 -71 18 -104
20 -33 2 -112 8 -175 14 -63 6 -168 12 -234 15 -77 2 -135 10 -166 21 -47 17
-48 17 -78 -4 -37 -27 -63 -27 -134 -3 -54 19 -56 19 -98 0z m2898 -2891 c23
-18 67 -55 100 -81 64 -52 77 -72 117 -188 22 -64 35 -84 88 -136 34 -33 107
-95 162 -136 55 -42 143 -111 195 -153 109 -90 240 -167 361 -214 130 -49 146
-74 84 -129 -78 -68 -130 -80 -236 -52 -132 34 -164 54 -217 137 -64 99 -231
253 -327 301 -38 20 -86 48 -105 63 -58 45 -192 108 -281 130 -167 42 -197 77
-224 263 -22 148 -11 168 115 208 85 27 122 24 168 -13z"/>
</g>
</svg>
