<?xml version="1.0" standalone="no"?>
<!DOCTYPE svg PUBLIC "-//W3C//DTD SVG 20010904//EN"
 "http://www.w3.org/TR/2001/REC-SVG-20010904/DTD/svg10.dtd">
<svg version="1.0" xmlns="http://www.w3.org/2000/svg"
 width="1087.000000pt" height="1536.000000pt" viewBox="0 0 1087.000000 1536.000000"
 preserveAspectRatio="xMidYMid meet">
<metadata>
Created by potrace 1.16, written by Peter Selinger 2001-2019
</metadata>
<g transform="translate(0.000000,1536.000000) scale(0.100000,-0.100000)"
fill="#000000" stroke="none">
<path d="M4611 15335 c-148 -39 -380 -112 -576 -183 -212 -76 -286 -98 -264
-77 22 20 172 101 263 140 142 62 151 68 151 95 0 47 -38 47 -171 0 -65 -23
-191 -66 -279 -97 -215 -74 -521 -226 -704 -350 -35 -24 -66 -41 -69 -38 -6 5
9 22 111 132 80 86 76 122 -8 66 -61 -40 -137 -106 -282 -245 -73 -69 -186
-171 -251 -225 -190 -159 -286 -245 -477 -427 -222 -212 -276 -258 -440 -371
-71 -50 -160 -120 -198 -157 l-68 -68 -122 0 c-226 0 -615 -19 -722 -35 -127
-19 -217 -46 -306 -90 -102 -52 -216 -152 -195 -172 5 -5 41 -10 93 -12 6 -1
15 -10 18 -21 8 -25 165 -157 255 -215 36 -23 155 -95 265 -159 110 -64 208
-127 218 -139 49 -61 192 -285 210 -331 40 -100 33 -516 -9 -598 -9 -18 -70
-104 -135 -190 -167 -222 -275 -386 -330 -503 -96 -202 -186 -507 -213 -725
-32 -255 -45 -631 -27 -743 10 -59 32 -87 55 -67 13 10 16 10 16 -1 0 -54 67
-530 100 -712 62 -342 107 -515 227 -882 155 -473 264 -736 493 -1195 236
-471 325 -610 394 -610 27 0 39 -11 101 -93 81 -108 407 -439 480 -487 28 -18
52 -35 54 -36 2 -2 -32 -41 -75 -87 -101 -106 -206 -254 -239 -334 -54 -136
-75 -395 -41 -523 28 -104 73 -213 111 -266 19 -27 35 -58 35 -69 0 -34 46
-120 76 -144 26 -21 37 -23 101 -18 79 6 74 9 88 -60 4 -18 30 -69 60 -113 29
-44 65 -114 79 -156 44 -132 126 -233 205 -253 36 -10 147 -15 253 -12 47 1
59 5 69 22 17 33 -5 47 -103 64 -93 16 -175 44 -218 75 -19 13 -32 37 -44 78
-21 75 -20 88 5 120 24 31 23 44 -16 277 -13 77 -29 197 -35 268 -11 121 -11
131 10 200 l22 72 24 -104 c27 -121 54 -181 96 -216 40 -34 65 -32 129 13 47
33 60 50 104 137 42 82 50 108 50 154 0 79 -21 79 -65 1 -35 -62 -56 -87 -66
-78 -2 3 9 66 25 139 17 74 35 177 41 229 6 52 13 114 16 138 3 23 10 42 15
42 14 0 107 -48 324 -166 212 -115 225 -121 225 -105 0 6 -38 39 -85 73 -46
34 -83 63 -81 66 2 2 48 -12 103 -32 133 -47 163 -59 163 -67 0 -4 -15 -40
-34 -80 -45 -100 -53 -137 -30 -146 9 -3 31 2 49 11 41 22 142 120 150 145 9
29 27 31 117 15 46 -8 94 -12 108 -9 14 3 60 -4 103 -15 42 -11 111 -29 152
-40 82 -21 100 -19 108 11 4 15 11 18 29 15 206 -46 642 -136 656 -136 10 0
24 11 30 25 6 14 17 25 24 26 31 3 80 -3 191 -23 73 -12 133 -17 155 -13 78
14 170 -2 409 -71 l51 -15 -53 -117 c-70 -153 -261 -528 -341 -668 l-64 -112
-60 -22 c-119 -44 -169 -101 -157 -177 17 -101 130 -254 224 -302 64 -32 106
-27 212 24 51 25 94 45 95 45 2 0 6 -42 9 -93 8 -113 24 -161 83 -244 31 -43
48 -78 51 -106 16 -118 121 -211 297 -262 108 -31 254 -4 264 49 6 27 -15 36
-81 36 -119 0 -264 48 -316 104 l-25 26 31 33 c17 17 38 47 47 65 19 38 20 38
53 13 36 -29 101 -36 165 -17 64 19 178 90 178 111 0 8 -1 15 -2 15 -2 0 -52
-14 -113 -30 -127 -35 -145 -36 -191 -14 -45 22 -65 58 -52 96 12 33 -3 58
-34 58 -35 0 -31 31 21 137 l52 107 9 221 c8 193 12 235 39 340 49 198 79 282
107 304 36 29 134 63 160 57 38 -10 84 -72 84 -113 0 -79 -67 -267 -115 -325
-27 -32 -33 -76 -11 -84 24 -9 78 26 149 97 50 50 77 87 103 145 40 85 74 229
74 311 0 61 2 62 108 92 l72 20 132 -147 c165 -182 274 -296 698 -732 485
-498 537 -553 1024 -1100 498 -559 532 -598 571 -657 27 -43 85 -166 215 -464
171 -390 299 -607 539 -907 134 -168 258 -290 350 -346 48 -29 87 -46 96 -42
27 10 42 67 49 186 7 108 9 118 39 160 58 82 49 189 -38 495 -106 366 -217
670 -410 1125 -224 526 -344 773 -590 1205 -127 225 -181 338 -201 421 -12 53
-15 124 -15 309 0 132 -4 281 -8 330 -4 50 -7 91 -6 93 1 1 49 -33 106 -76 57
-43 158 -116 224 -162 66 -45 154 -113 195 -151 112 -101 583 -578 696 -704
189 -210 217 -235 230 -200 8 20 -57 124 -318 512 -749 1114 -732 1089 -909
1408 -243 438 -239 429 -239 542 0 50 4 94 9 97 5 3 21 -13 36 -37 32 -48 75
-97 87 -97 19 0 5 50 -41 149 -29 62 -56 140 -66 188 -19 99 -57 215 -96 302
-16 35 -28 66 -26 68 2 1 36 -5 77 -16 l73 -18 46 -69 c31 -46 54 -70 69 -72
34 -5 36 20 7 90 -15 34 -55 133 -89 218 -35 85 -100 234 -146 330 -91 193
-201 441 -262 595 -48 120 -178 512 -178 539 0 14 5 17 25 12 19 -5 27 -2 32
11 15 39 -65 270 -223 639 -151 355 -374 914 -439 1106 -64 185 -86 229 -195
383 -290 409 -796 1004 -1143 1345 -706 692 -706 692 -757 845 -59 177 -201
418 -350 595 -73 86 -84 105 -94 151 -3 15 -78 103 -178 210 -95 102 -230 248
-300 325 -197 217 -516 501 -611 544 l-39 17 78 33 c250 104 711 153 1014 107
57 -9 106 -14 108 -12 10 10 -22 45 -55 58 -105 41 -411 88 -596 90 -65 0
-112 4 -105 8 29 15 198 48 278 54 133 10 297 -9 429 -50 149 -46 191 -53 191
-31 0 20 -98 69 -252 127 -65 23 -116 45 -114 47 8 7 121 -20 225 -55 115 -38
154 -40 159 -6 4 29 -41 62 -159 117 -119 56 -274 108 -414 141 -97 23 -139
27 -352 32 -289 7 -318 18 -108 43 220 25 470 8 677 -47 75 -19 144 -33 152
-30 22 9 20 49 -4 80 -40 50 -224 93 -544 127 -314 33 -305 38 66 39 185 1
339 5 342 10 3 5 -8 14 -24 21 -31 13 -37 24 -20 35 54 33 -142 94 -387 120
-141 15 -422 18 -595 6 -53 -3 -94 -3 -90 1 8 8 296 82 385 99 46 8 57 14 57
30 0 27 -37 34 -185 33 -145 -1 -280 -19 -524 -70 -147 -30 -185 -34 -170 -20
2 3 130 48 284 102 297 103 405 146 405 163 0 18 -68 12 -169 -14z m-2328
-10642 c-14 -118 -14 -160 -4 -283 6 -80 14 -164 18 -187 l6 -43 -47 0 c-39 0
-53 5 -77 29 -40 40 -38 73 7 107 66 50 77 98 48 208 -20 76 -14 151 22 266
38 121 48 82 27 -97z m3508 -1214 c-7 -100 -14 -146 -24 -156 -17 -17 -164
-38 -201 -29 -20 5 -26 13 -26 34 0 21 21 52 85 122 46 52 99 122 116 155 48
90 53 95 57 52 2 -20 -1 -100 -7 -178z"/>
</g>
</svg>
